<svg width="749" height="178" xmlns="http://www.w3.org/2000/svg" xmlns:xlink="http://www.w3.org/1999/xlink" xml:space="preserve" overflow="hidden"><defs><clipPath id="clip0"><rect x="0" y="0" width="749" height="178"/></clipPath><clipPath id="clip1"><rect x="0" y="0" width="749" height="178"/></clipPath></defs><g clip-path="url(#clip0)"><g clip-path="url(#clip1)"><path d="M190.157 92.0128 190.157 6.22691 203.534 6.22691 216.911 6.22691 216.911 11.8975C216.911 15.0163 216.959 17.5681 217.017 17.5681 217.075 17.5681 218.764 16.5402 220.769 15.2839 244.431 0.463486 278.826-3.99928 309.676 3.74843 337.469 10.7285 357.617 27.2981 364.78 49.0652 368.966 61.785 368.735 75.9306 364.141 88.2324 358.427 103.535 346.679 115.839 329.735 124.267 314.907 131.643 297.977 135.336 278.997 135.336 263.261 135.336 248.586 132.712 235.668 127.589 230.541 125.557 223.971 122.22 219.985 119.626L216.911 117.624 216.911 147.712 216.911 177.799 203.534 177.799 190.157 177.799ZM291.937 112.529C306.985 110.395 318.661 105.621 327.415 98.0219 334.041 92.2698 338.656 84.2811 340.405 75.5359 341.12 71.9592 341.122 63.5125 340.412 59.9463 338.354 49.6545 332.456 40.6643 323.627 34.3597 320.068 31.8184 312.84 28.1979 308.226 26.6459 295.196 22.2629 279.398 20.9649 264.929 23.0886 239.806 26.7757 222.827 39.2351 218.271 57.3251 216.261 65.3064 216.62 73.9227 219.276 81.4534 225.309 98.5591 243.1 109.942 268.241 112.783 273.295 113.354 287.173 113.206 291.941 112.529ZM380.631 92.0128 380.631 6.22691 394.008 6.22691 407.385 6.22691 407.385 11.8975C407.385 15.0163 407.443 17.5681 407.514 17.5681 407.585 17.5681 409.057 16.6462 410.785 15.5195 414.784 12.9124 422.679 9.0132 427.741 7.14482 449.592-0.920686 476.272-2.22142 499.62 3.64047 537.68 13.1959 560.093 39.3747 557.977 71.8022 556.362 96.5551 539.891 116.888 512.799 127.572 503.962 131.058 494.906 133.256 483.571 134.666 477.589 135.41 461.466 135.409 455.221 134.664 437.546 132.555 422.028 127.307 409.929 119.345L407.385 117.671 407.385 147.735 407.385 177.799 394.008 177.799 380.631 177.799 380.631 92.0127ZM483.058 112.403C503.9 109.291 518.587 100.895 526.304 87.6808 530.786 80.0059 532.465 69.7953 530.803 60.3156 527.347 40.611 510.03 26.9762 483.517 23.085 466.018 20.5166 446.261 23.0748 432.83 29.6481 419.119 36.358 410.868 46.3767 408.051 59.734 407.312 63.2403 407.314 72.2546 408.059 75.6916 410.054 84.9433 414.562 92.5979 421.406 98.351 430.828 106.272 443.092 110.989 459.005 112.813 464.269 113.416 477.827 113.185 483.062 112.403ZM79.6535 135.159C65.4621 133.905 53.3492 131.109 43.0489 126.71 19.621 116.703 4.82373 99.8143 0.807962 78.4976 0.0409912 74.4262-0.251587 65.254 0.245766 60.871 3.14567 35.3145 21.9719 15.0719 51.7368 5.50612 67.5762 0.415682 87.0736-1.24718 104.574 0.999812 136.636 5.11661 160.89 19.9842 171.55 42.0572 180.229 60.0296 179.128 81.8607 168.695 98.6438 163.994 106.205 156.256 114.007 148.282 119.225 135.876 127.344 121.059 132.395 103.063 134.639 99.4582 135.089 82.9972 135.454 79.6535 135.159ZM98.6313 112.81C112.587 111.329 124.327 107.345 133.161 101.093 140.382 95.9815 146.096 88.4483 148.66 80.6598 150.161 76.1009 150.459 73.9604 150.459 67.731 150.459 61.5199 150.166 59.3972 148.676 54.8351 143.782 39.8405 129.465 28.6869 109.461 24.2837 91.9215 20.4231 71.4676 21.7649 56.3129 27.7703 45.3798 32.1027 36.7499 39.116 31.6892 47.7812 26.3077 56.9955 25.0869 69.5458 28.5199 80.3614 32.2187 92.0147 41.9627 101.768 55.3718 107.238 62.6754 110.217 71.7185 112.293 80.6713 113.046 84.1064 113.334 95.0439 113.191 98.6313 112.81ZM650.493 135.169C649.933 135.105 647.97 134.91 646.131 134.736 631.363 133.336 615.837 128.673 604.455 122.217 589.068 113.49 578.35 101.086 573.457 86.3422 570.146 76.3642 569.581 65.1508 571.869 54.8346 575.328 39.2353 584.824 25.9891 599.57 16.1923 619.017 3.2728 647.609-2.46523 675.211 1.01261 698.143 3.90202 717.035 12.2891 730.182 25.4156 740.193 35.4124 745.949 47.1262 747.613 60.8896 748.045 64.4664 747.978 71.6998 747.477 75.495 743.869 102.826 722.204 123.714 689.024 131.852 678.964 134.32 672.649 135.066 660.816 135.189 655.698 135.241 651.053 135.232 650.493 135.169ZM668.086 112.946C685.751 111.321 700.149 105.5 709.392 96.2451 715.65 89.979 719.282 83.0811 720.714 74.7448 721.304 71.3094 721.295 64.1485 720.697 60.585 717.477 41.4025 700.564 27.4981 675.502 23.4296 669.485 22.4528 665.483 22.1345 659.217 22.1345 631.119 22.1345 609.317 32.7291 600.932 50.4582 598.432 55.7427 597.279 61.1962 597.279 67.731 597.279 76.3538 599.289 83.1925 603.825 90.0069 612.153 102.516 627.947 110.509 648.851 112.791 653.162 113.261 663.732 113.347 668.086 112.946Z" fill="#006B33" fill-rule="nonzero" fill-opacity="1" transform="matrix(1.00147 0 0 1 0 0.100443)"/></g></g></svg>