<svg width="176" height="176" xmlns="http://www.w3.org/2000/svg" xmlns:xlink="http://www.w3.org/1999/xlink" xml:space="preserve" overflow="hidden"><defs><clipPath id="clip0"><rect x="274" y="389" width="176" height="176"/></clipPath><clipPath id="clip1"><rect x="274" y="389" width="176" height="176"/></clipPath><clipPath id="clip2"><rect x="275" y="390" width="175" height="175"/></clipPath><clipPath id="clip3"><rect x="275" y="390" width="175" height="175"/></clipPath></defs><g clip-path="url(#clip0)" transform="translate(-274 -389)"><g clip-path="url(#clip1)"><g clip-path="url(#clip2)"><g clip-path="url(#clip3)"><g><path d="M152.928 68.4979 154.832 73.3562 159.624 71.2772 157.545 76.0699 162.404 77.9738 157.545 79.8778 159.624 84.6704 154.832 82.5914 152.928 87.4497 151.024 82.5914 146.231 84.6704 148.31 79.8778 143.452 77.9738 148.31 76.0699 146.231 71.2772 151.024 73.3562M22.4095 68.4979 24.3135 73.3562 29.1061 71.2772 27.0271 76.0699 31.8855 77.9738 27.0271 79.8778 29.1061 84.6704 24.3135 82.5914 22.4095 87.4497 20.5056 82.5914 15.7129 84.6704 17.792 79.8778 12.9336 77.9738 17.792 76.0699 15.7129 71.2772 20.5056 73.3562 22.4095 68.4979Z" fill="#122E66" fill-rule="evenodd" fill-opacity="1" transform="matrix(1 0 0 1.00249 275 389.478)"/><path d="M135.924 49.4148C136.099 49.4148 136.317 49.4148 136.558 49.4586 136.536 49.6555 136.624 49.94 136.799 50.2683 137.04 50.6184 137.499 51.0123 138.178 51.5157 138.396 51.7126 138.484 51.8877 138.462 52.019 138.44 52.1066 138.112 52.1941 137.434 52.3035 136.974 52.3692 136.493 52.3692 135.967 52.3254 135.945 51.9753 135.945 51.647 135.924 51.2968 135.967 50.4434 135.967 49.8306 135.924 49.4148ZM140.891 44.6659C140.935 44.7315 141.023 44.8191 141.088 44.8847 142.292 45.9133 143.277 46.8324 144.086 47.6422 144.393 47.9048 144.502 48.1455 144.393 48.3862 144.261 48.7801 143.277 49.5461 141.395 50.7279 141.307 50.7497 141.198 50.7935 141.066 50.8592 141.066 50.7935 141.044 50.706 141.001 50.6184 140.935 50.4434 139.71 49.2616 137.368 47.0294 137.784 46.8324 138.134 46.6136 138.44 46.3948 138.44 46.5479 138.681 46.8981 139.119 47.4014 139.928 48.1674 140.629 48.8458 141.241 49.4804 141.438 49.6774 141.57 49.6993 141.657 49.5461 141.723 49.3273 141.679 49.0865 141.548 48.802 141.416 48.5613 140.475 47.7078 138.681 46.2416 139.009 46.0008 139.337 45.7601 139.666 45.4975 139.644 45.6288 139.797 45.9133 140.125 46.3948 140.979 47.1607 141.723 47.861 142.379 48.4738 142.576 48.6707 142.73 48.6926 142.795 48.4957 142.861 48.2768 142.795 48.0361 142.664 47.7516 142.533 47.5765 141.592 46.7887 139.863 45.41 139.863 45.3881 139.841 45.3881 139.819 45.3881 140.344 44.9942 140.672 44.7534 140.891 44.6659ZM29.2375 44.4033C29.128 44.4033 28.9748 44.4252 28.7998 44.4471 28.5153 44.5346 28.3183 44.644 28.2089 44.7972 28.0995 44.9285 28.1651 45.0379 28.3621 45.1255 28.559 45.1692 28.7122 45.2787 28.7998 45.41 28.9311 45.6945 29.0843 45.979 29.2593 46.3072 28.7341 46.6793 28.3402 46.9856 28.0776 47.2264 28.0338 47.2701 28.0338 47.3358 28.1213 47.4014 28.2089 47.4671 28.3183 47.4671 28.4496 47.4014 28.7779 47.2482 29.128 47.0951 29.5219 46.92 29.5219 46.9419 29.5438 46.9637 29.5657 47.0075 29.7627 47.5546 29.9159 48.1455 30.0691 48.8239 30.0691 48.9552 30.0909 49.0428 30.1347 49.1084 30.2004 49.1959 30.266 49.1741 30.3317 49.0646 30.3973 48.9771 30.4192 48.7583 30.3973 48.4738 30.4192 48.1236 30.3754 47.7297 30.2879 47.2264 30.2441 47.0732 30.2222 46.8762 30.2004 46.6793 30.5724 46.5479 30.9882 46.3948 31.4259 46.2197 31.6447 46.154 31.7979 46.0665 31.8855 45.9352 31.9073 45.8914 31.9073 45.8039 31.8636 45.6945 31.8198 45.5413 31.5791 45.4537 31.1633 45.41 30.9663 45.3662 30.7475 45.3881 30.5505 45.4756 30.3973 45.5194 30.2222 45.6288 30.0034 45.8039 29.9596 45.6945 29.9159 45.585 29.894 45.4537 29.7846 45.1474 29.7408 44.9066 29.7408 44.7097 29.7189 44.5784 29.6314 44.4908 29.5219 44.4689 29.4344 44.4033 29.3688 44.4033 29.2375 44.4033ZM41.6896 42.9589C41.624 42.9589 41.5364 42.9808 41.4489 43.0246 40.8799 43.2653 40.4422 43.506 40.0921 43.7249 39.8076 43.9656 39.6106 44.2501 39.4793 44.5784 38.976 45.9133 38.2757 47.6203 37.3565 49.7431 37.2909 49.7212 37.2252 49.6993 37.1377 49.6774 36.8751 49.6555 36.6125 49.6774 36.3499 49.7431 36.3061 49.1303 36.2623 48.4738 36.2185 47.7735 36.1529 47.0294 36.1967 46.4385 36.3499 46.0227 36.4155 45.6945 36.328 45.5194 36.0872 45.4756 35.8246 45.3881 35.19 45.6069 34.1395 46.154 33.855 46.3291 33.6581 46.5698 33.5705 46.9419 33.3079 47.9704 32.9578 49.2178 32.4982 50.7279 32.3888 51.1437 32.0605 51.7126 31.4915 52.4786 31.2946 52.785 31.3602 52.9601 31.6885 53.0257 31.9292 53.0476 32.1918 52.9819 32.4982 52.8287 33.0016 52.5661 33.2642 52.1284 33.2861 51.5157 33.3736 51.1437 33.6581 50.0057 34.1395 48.0361 34.2052 47.8172 34.3146 47.664 34.5116 47.5546 34.7085 47.4452 34.8836 47.489 35.0149 47.6859 35.2994 48.3643 35.6058 49.1084 35.9559 49.9181 35.7809 50.0057 35.5839 50.1151 35.4088 50.2683 35.1243 50.509 35.0149 50.7279 35.0149 50.9248 34.993 51.1655 35.1462 51.2531 35.4526 51.1655 35.8684 50.9905 36.3061 50.9248 36.8094 50.9467 35.7152 53.2227 34.5553 55.6737 33.3079 58.3436 33.1329 58.65 33.2642 58.8032 33.6581 58.7375 34.0082 58.65 34.2927 58.5187 34.5335 58.2998 34.818 58.0591 34.993 57.7746 35.0806 57.4901 35.6058 55.7831 36.3061 54.0324 37.2033 52.2598 37.3565 51.9315 37.5097 51.5595 37.7067 51.1874 38.3632 51.45 38.976 51.7783 39.545 52.1722 40.1577 52.6099 40.6173 53.0476 40.858 53.4634 41.0988 53.8573 41.0331 54.2731 40.6611 54.7327 40.3328 55.1266 40.0264 55.4986 39.6982 55.8488 39.545 56.002 39.5668 56.0676 39.7857 56.0895 39.917 56.0895 40.1577 56.002 40.486 55.8488 41.3176 55.5424 41.9522 55.3892 42.4118 55.4111 42.7401 55.433 42.9808 55.3017 43.0683 55.0609 43.1559 54.864 43.134 54.4701 42.9808 53.8573 42.8495 53.2883 42.5212 52.7631 42.0398 52.2816 41.4708 51.6908 40.6829 51.1218 39.6982 50.6184 39.1948 50.3777 38.7352 50.1807 38.3413 50.0276 39.0854 48.5613 40.0921 46.8981 41.2957 44.9942 41.5583 44.5784 41.8209 44.1844 42.0398 43.8343 42.2367 43.5498 42.2805 43.331 42.2149 43.1778 42.0835 42.9808 41.9085 42.937 41.6896 42.9589ZM26.1736 41.9522C26.0642 41.9522 25.911 41.9522 25.7141 41.9741 25.4077 42.0835 25.1889 42.193 25.0575 42.3243 24.9481 42.4775 24.9919 42.5869 25.2107 42.6744 25.4077 42.7401 25.539 42.8495 25.6265 43.0027 25.8892 43.4623 26.0861 43.9437 26.2612 44.4471 26.2174 44.4689 26.1736 44.5127 26.108 44.5565 25.5609 45.0379 25.1451 45.4318 24.8606 45.6945 24.7949 45.782 24.7949 45.8476 24.8825 45.8695 24.9919 45.9133 25.1013 45.9133 25.2107 45.8476 25.6047 45.6288 26.0205 45.3881 26.4581 45.1692 26.5676 45.5413 26.677 45.9571 26.7645 46.4166 26.7645 46.5479 26.7864 46.6355 26.8302 46.7011 26.8958 46.8106 26.9615 46.8106 27.049 46.6793 27.1147 46.5917 27.1366 46.3729 27.1366 46.0227 27.1366 45.7163 27.1147 45.3443 27.0709 44.8629 27.3992 44.7097 27.7712 44.5127 28.187 44.3376 28.3621 44.2501 28.5153 44.1626 28.6247 44.0531 28.6685 43.9875 28.6466 43.8999 28.5809 43.7905 28.5153 43.6811 28.2745 43.5936 27.8587 43.5498 27.6399 43.5279 27.4429 43.5717 27.2679 43.6811 27.1584 43.7249 27.0709 43.7905 26.9834 43.8781 26.9177 43.6154 26.8521 43.331 26.7864 43.0246 26.6989 42.7182 26.6551 42.4775 26.6551 42.2805 26.6332 42.1273 26.5457 42.0179 26.4144 41.9741 26.3706 41.9741 26.305 41.9522 26.1736 41.9522ZM142.139 41.7115C142.095 41.7334 142.051 41.8209 142.029 41.9522 142.007 42.4775 142.226 42.8933 142.686 43.2653 143.014 43.4841 143.364 43.7686 143.714 44.1188 143.452 44.3595 142.861 44.6002 141.964 44.8629 141.701 44.5346 141.46 44.2501 141.176 43.9656 141.176 43.7249 141.132 43.4841 141.044 43.2653 141.001 43.1778 140.913 43.1121 140.804 43.134 140.738 43.1559 140.672 43.2434 140.629 43.3528 139.906 44.4252 138.834 45.2568 137.39 45.8476 137.105 45.9352 136.886 46.0884 136.755 46.2416 136.536 46.5479 136.405 46.7887 136.383 46.9856 136.317 47.1607 136.383 47.2482 136.58 47.2482 136.668 47.2701 136.777 47.2482 136.886 47.1826 136.952 47.3796 137.061 47.5765 137.237 47.7735 136.296 48.4738 134.589 48.5613 132.094 48.0142 132.05 47.9923 132.006 47.9704 131.962 47.9704 131.24 47.8172 130.102 47.4452 128.57 46.8762 128.461 46.8324 128.417 46.8543 128.461 46.9856 129.03 47.7516 130.452 48.4081 132.772 48.9771 132.838 48.9552 132.903 48.9552 132.969 48.999 133.604 49.1084 134.435 49.2178 135.464 49.3273 135.442 49.5461 135.333 50.4871 135.201 52.1941 133.385 51.9315 131.744 51.2312 130.234 50.0932 130.146 50.0057 130.08 49.9619 130.015 50.0057 129.971 50.0494 129.971 50.1151 129.993 50.2026 130.934 51.844 132.641 52.8506 135.136 53.2445 134.961 56.0895 134.982 57.7527 135.223 58.2342 135.639 58.9782 136.493 59.8317 137.762 60.8165 137.959 60.9916 138.09 61.0791 138.156 61.0573 138.243 61.0135 138.265 60.8603 138.178 60.6633 137.849 59.8317 137.521 58.9345 137.149 57.9934 136.733 56.8992 136.449 55.8926 136.296 54.9296 136.208 54.4263 136.142 53.9011 136.077 53.3977 136.646 53.4415 137.324 53.4634 138.068 53.4853 138.506 53.4853 138.922 53.5728 139.316 53.7479 139.491 53.9011 139.644 53.923 139.775 53.8354 139.928 53.7479 139.994 53.4634 139.994 53.0257 140.038 52.4567 139.994 52.0847 139.885 51.9096 139.797 51.8002 139.688 51.6689 139.534 51.5813 139.381 51.4719 138.637 50.8154 137.302 49.6336 137.258 49.568 137.193 49.5023 137.171 49.4586 137.412 49.6118 137.609 49.4586 137.74 48.9771 137.827 48.5832 137.827 48.2987 137.718 48.1674 138.812 49.2616 139.775 50.2683 140.585 51.1874 140.585 51.2093 140.585 51.2531 140.563 51.2968 140.366 51.6251 140.3 51.844 140.388 51.9096 140.497 52.0628 140.76 52.0847 141.198 52.019 141.548 51.9971 141.81 51.9315 142.007 51.7564 143.408 50.509 144.437 49.8744 145.115 49.8962 145.356 49.8962 145.509 49.8087 145.574 49.6555 145.618 49.1522 145.574 48.5832 145.421 47.9048 145.378 47.6859 145.224 47.489 144.94 47.3139 144.305 46.9419 143.649 46.4166 142.97 45.782 142.817 45.6069 142.664 45.4537 142.467 45.3224 142.533 45.3005 142.598 45.3005 142.664 45.3224 142.861 45.3443 143.102 45.3443 143.364 45.3443 143.474 45.3443 143.605 45.3443 143.758 45.3881 143.977 45.4537 144.086 45.41 144.108 45.2568 144.174 45.1036 144.218 44.8629 144.24 44.5784 144.765 44.8847 145.815 46.0227 147.413 48.0142 147.807 48.5613 148.069 48.802 148.222 48.802 148.376 48.7583 148.463 48.6051 148.463 48.3643 148.441 47.489 148.026 46.8106 147.281 46.2853 146.756 45.8258 146.1 45.2349 145.312 44.5565 144.393 43.7249 143.408 42.8057 142.336 41.7772 142.27 41.7334 142.182 41.6896 142.139 41.7115ZM29.9377 37.9693C29.6751 37.9255 29.128 38.1444 28.3183 38.6258 28.0995 38.779 27.9463 38.9541 27.8806 39.151 27.618 39.917 27.2679 40.7486 26.8739 41.624 26.6989 41.8866 26.7426 42.0179 26.9615 42.0179 27.1803 41.9741 27.4211 41.8428 27.6618 41.6896 27.9244 41.4927 28.0776 41.2519 28.1432 40.9674 28.2745 40.6173 28.4058 40.2671 28.5372 39.8951 28.5809 39.8076 28.6247 39.7638 28.6685 39.7419 28.8216 39.6763 29.0624 39.7419 29.3688 39.9608 29.6314 40.2015 29.894 40.4641 30.1785 40.7486 30.0253 40.7705 29.8721 40.8799 29.7189 41.0331 29.5001 41.2738 29.2812 41.6459 29.0843 42.2149 28.9967 42.5212 28.9311 42.8495 28.8435 43.1559 28.756 43.3528 28.8654 43.3966 29.1937 43.331 29.2812 43.3091 29.3688 43.2215 29.4563 43.0683 29.894 42.3243 30.266 41.6896 30.5724 41.1425 30.8569 41.4489 31.207 41.799 31.5791 42.1492 31.4697 42.2149 31.3602 42.3024 31.2508 42.4337 31.0538 42.6744 30.8569 43.0683 30.6818 43.6373 30.5943 43.9875 30.5286 44.3157 30.463 44.644 30.3973 44.8629 30.5067 44.8847 30.8131 44.7753 30.9007 44.7534 31.0101 44.644 31.0976 44.4689 31.4478 43.7686 31.7541 43.1559 32.0168 42.6307 32.4107 43.0683 32.8484 43.506 33.3298 43.9875 33.1547 44.2939 33.0016 44.644 32.8702 44.9942 32.1262 46.5479 31.1852 48.5613 30.0909 51.0561 30.0472 51.0999 30.0472 51.1655 30.0253 51.2312 29.3031 50.9905 28.6466 50.7497 28.0557 50.5309 28.0557 50.509 28.0776 50.509 28.0776 50.509 28.384 49.8087 28.6247 49.1741 28.8654 48.627 28.9748 48.3206 28.9092 48.1893 28.6903 48.2112 28.4715 48.2549 28.2308 48.43 27.99 48.6926 27.815 48.9552 27.6618 49.371 27.5524 49.94 27.5305 50.0932 27.5305 50.2464 27.5305 50.3339 27.2241 50.2245 26.9615 50.1151 26.7426 50.0057 26.5238 49.94 26.3706 49.8744 26.1955 49.7868 26.4581 48.9552 26.6989 48.233 26.8958 47.6422 26.9834 47.3577 26.9396 47.2264 26.7208 47.2482 26.5019 47.292 26.305 47.4452 26.0861 47.7078 25.911 47.9704 25.7797 48.3643 25.7141 48.8896 25.6922 49.1084 25.6703 49.3491 25.6484 49.568 25.3639 49.4148 25.1889 49.3273 25.0794 49.2835 24.9044 49.1741 24.7512 49.1522 24.6417 49.1522 24.6417 48.7801 24.6417 48.4738 24.6199 48.2112 24.598 47.9485 24.598 47.6859 24.598 47.4233 24.5323 47.1388 24.5104 46.8324 24.5323 46.5042 24.5761 46.2197 24.4667 46.0665 24.2041 46.0665 23.9414 46.0884 23.6569 46.2197 23.3287 46.4385 23.0223 46.6136 22.8472 46.7887 22.8253 46.9419 22.7597 47.0951 22.8035 47.1826 22.9785 47.2045 23.1974 47.2701 23.3725 47.4671 23.5038 47.7516 23.6788 47.9923 23.8101 48.233 23.9196 48.5175 24.0071 48.7583 24.1165 49.0209 24.2259 49.2835 23.8539 49.4804 23.5475 49.7431 23.3068 50.0494 23.1536 50.2026 23.1098 50.3558 23.1317 50.5309 23.1755 50.6841 23.3068 50.7716 23.5475 50.7497 24.1603 50.706 24.7949 50.7279 25.4296 50.8154 25.9986 50.9467 27.4211 51.3844 29.6751 52.1284 29.3688 52.7631 29.0624 53.3759 28.756 53.9667 28.7122 54.0324 28.7122 54.0762 28.7341 54.1199 28.7122 54.1199 28.6903 54.1199 28.6466 54.098 28.2527 54.0543 27.9463 54.0762 27.7274 54.1637 27.4211 54.2731 27.4211 54.4482 27.7493 54.6889 27.8369 54.7327 27.9463 54.7765 28.0557 54.864 28.3183 55.0391 28.4934 55.236 28.6028 55.4767 28.7998 55.9144 28.9748 56.4178 29.1499 56.9868 29.2156 57.2056 29.4125 57.3807 29.7189 57.4901 30.1347 57.6652 30.463 57.7308 30.7694 57.7308 31.2289 57.7746 31.3602 57.5339 31.1633 57.0524 30.9882 56.6585 30.7037 56.2427 30.3098 55.7831 29.8283 55.236 29.4782 54.7765 29.2156 54.4263 29.7627 54.2293 30.1347 53.8573 30.3098 53.354 30.6818 52.0847 31.1195 50.8373 31.6228 49.5899 32.2137 48.2112 33.0453 46.4385 34.0739 44.3157 34.7085 43.0027 35.1243 42.2149 35.3869 41.9522 35.6496 41.799 35.8246 41.7772 35.9122 41.8428 35.9778 41.8647 36.0654 41.9741 36.1748 42.1711 36.4155 42.5431 36.6781 42.937 36.9407 43.331 37.072 43.5279 37.1596 43.6154 37.269 43.5717 37.3784 43.506 37.4441 43.331 37.4441 43.0027 37.466 41.9741 37.6191 41.1206 37.8599 40.4422 38.0349 39.8732 38.0787 39.545 37.9474 39.4793 37.7942 39.4137 37.0283 39.6325 35.6496 40.1358 35.2556 40.2671 34.9711 40.5079 34.7961 40.8799 34.4897 41.4927 34.2052 42.1711 33.8988 42.8495 32.0386 41.0112 30.8569 39.5668 30.3754 38.5164 30.2441 38.1663 30.1128 38.0349 29.9377 37.9693ZM142.883 37.7723C142.751 37.7723 142.642 37.838 142.533 38.0131 142.336 38.5602 141.854 39.1073 141.066 39.5887 137.981 41.4927 135.508 42.7182 133.691 43.2653L133.494 43.331C131.744 43.8343 129.621 44.1407 127.126 44.272 126.995 44.272 126.863 44.272 126.754 44.3157 126.579 44.3814 126.579 44.4908 126.71 44.6002 127.104 44.9723 128.461 45.0817 130.781 44.9723 131.306 44.9066 131.875 44.841 132.466 44.7534 135.07 44.2063 137.762 43.1121 140.497 41.4927 141.307 41.0112 142.182 40.5735 143.145 40.1796 143.299 40.6392 143.889 41.3832 144.874 42.4118 146.056 43.5498 147.26 44.7534 148.463 45.979 149.164 46.6355 149.623 46.9856 149.798 47.0294 149.951 47.0732 150.061 47.0294 150.126 46.92 150.214 46.7449 150.192 46.4823 150.039 46.1103 149.864 45.7163 149.185 45.0598 147.982 44.1407 146.056 42.4337 144.568 40.9674 143.539 39.6982 143.495 39.6544 143.452 39.6106 143.408 39.5668 143.452 38.6477 143.32 38.0787 142.97 37.8161 142.992 37.7942 142.926 37.7723 142.883 37.7723ZM111.851 17.1573C111.96 17.1792 112.113 17.1792 112.288 17.1792 113.142 17.2667 113.995 17.3105 114.849 17.3324 115.221 17.3762 115.396 17.4856 115.44 17.6825 115.462 18.0983 115.44 18.6017 115.352 19.1925 115.046 20.3962 114.739 21.5561 114.433 22.694 114.367 22.6065 114.28 22.4971 114.17 22.3658 113.974 22.1469 113.623 22.0156 113.098 21.9719 112.179 21.9281 111.326 21.8624 110.56 21.7311 110.603 21.5123 110.647 21.2934 110.691 21.0527 110.8 20.6807 110.91 20.2649 111.041 19.8272 111.063 19.8272 111.107 19.8491 111.172 19.871 112.135 20.0242 112.967 20.1773 113.667 20.2649 114.039 20.3086 114.192 20.1992 114.105 19.9804 114.017 19.7397 113.777 19.5208 113.426 19.3457 113.098 19.1925 112.595 19.1269 111.938 19.1269 111.676 19.1488 111.435 19.1925 111.194 19.2144 111.435 18.4704 111.632 17.7701 111.851 17.1573ZM59.788 16.829C59.4816 16.8509 59.2409 16.9603 59.0439 17.1135 58.7156 17.3762 58.7594 17.595 59.1752 17.8138 59.8755 18.164 60.3351 18.6017 60.532 19.1707 61.2104 21.0746 61.7138 22.7816 62.0858 24.2478 60.5758 25.1013 58.9564 25.9986 57.2494 26.9396 56.8992 27.1366 56.9211 27.3116 57.315 27.4867 57.6214 27.5961 57.9716 27.6618 58.2998 27.6399 58.6937 27.5742 59.0001 27.4648 59.2409 27.2897 60.16 26.5894 61.1886 25.9329 62.3484 25.2983 62.3703 25.4515 62.4141 25.5828 62.436 25.7578 62.7861 27.4211 62.8299 28.9311 62.5892 30.2879 62.4578 31.2727 62.1515 32.2794 61.6262 33.2861 61.1667 34.2708 60.3351 35.5182 59.0658 37.0283 58.8688 37.2252 58.7594 37.3565 58.7375 37.466 58.6719 37.5973 58.8032 37.641 59.1314 37.5535 59.3722 37.466 59.9193 37.0502 60.7509 36.3061 61.3417 35.8027 62.0202 34.9711 62.7423 33.855 63.2895 32.9797 63.6834 32.0824 63.9022 31.1414 64.1648 30.0472 64.2305 28.7779 64.1211 27.3116 64.0773 27.049 64.0554 26.7864 64.0335 26.5019 64.5587 26.9834 65.6967 27.9025 67.4256 29.2375 69.3295 30.6599 70.949 31.7323 72.2401 32.4544 72.8529 32.8265 73.3562 32.9578 73.7939 32.8046 75.0194 32.2794 76.1793 31.7979 77.2735 31.3383 77.755 31.1633 77.9738 31.0101 77.9301 30.8788 77.8863 30.7256 77.5799 30.638 76.989 30.5505 76.2231 30.4849 75.4134 30.4192 74.5818 30.3754 73.5751 30.3535 72.7435 30.2222 72.0869 29.9815 71.2116 29.7189 69.9423 29.1061 68.2791 28.1651 66.397 27.1366 64.9308 26.2393 63.8584 25.4733 63.8147 25.167 63.7709 24.8606 63.7053 24.5323 65.1059 23.7664 67.0098 22.891 69.4171 21.9281 69.7891 21.7968 70.1392 21.6655 70.4675 21.5342 70.7958 21.4029 70.9708 21.2497 70.9927 21.0746 70.9927 20.8558 70.8177 20.6588 70.4456 20.5275 69.811 20.3524 69.2858 20.2868 68.87 20.3086 68.5198 20.3305 68.1915 20.44 67.8852 20.6588 66.8128 21.3591 65.3247 22.2782 63.4645 23.3943 63.2895 22.7597 63.1363 22.125 62.9393 21.5123 62.7642 20.9871 62.6329 20.5056 62.5454 20.046 62.3265 19.3239 62.1952 18.4923 62.1734 17.5731 62.1952 17.3324 62.1077 17.1792 61.8889 17.0917 61.4512 16.9166 60.8603 16.8072 60.1162 16.7634 60.0068 16.829 59.8755 16.8072 59.788 16.829ZM103.272 15.7786C103.885 15.8005 104.432 15.8442 104.848 15.8661 105.461 15.888 105.854 15.9974 106.051 16.1944 106.161 16.3257 106.139 16.6321 105.986 17.0917 105.548 18.4047 105.11 19.6083 104.695 20.6807 104.629 20.8339 104.563 20.9433 104.476 21.0527 104.388 20.9214 104.257 20.7463 104.06 20.5494 103.863 20.3743 103.513 20.2868 103.053 20.2868 102.484 20.2868 101.937 20.3086 101.412 20.3086 101.587 19.674 101.784 19.1269 101.959 18.6454 102.769 18.7111 103.491 18.7986 104.082 18.8862 104.454 18.8862 104.585 18.7767 104.476 18.5579 104.388 18.3172 104.147 18.0983 103.775 17.9451 103.425 17.8357 102.944 17.792 102.287 17.8138 102.265 17.8357 102.244 17.8357 102.222 17.8357 102.572 16.8509 102.834 16.1725 103.031 15.8005 103.097 15.7786 103.185 15.7786 103.272 15.7786ZM110.713 15.2753C110.669 15.2753 110.625 15.2753 110.581 15.2971 110.45 15.319 110.428 15.4722 110.472 15.6911 110.56 16.3038 110.56 16.9385 110.406 17.6606 110.188 18.6673 109.881 19.6959 109.553 20.7244 109.4 21.2059 109.356 21.7092 109.4 22.2564 109.443 22.6503 109.531 22.891 109.64 23.0442 109.859 23.2193 110.056 23.1098 110.253 22.6722 110.275 22.6284 110.275 22.5846 110.297 22.5627 110.406 22.6065 110.56 22.6503 110.735 22.694 111.501 22.7597 112.66 23.0004 114.236 23.4162 113.229 27.1584 112.267 30.2879 111.391 32.7608 111.26 33.1766 111.107 33.4611 110.932 33.6143 110.822 33.68 110.603 33.6143 110.341 33.4611 109.947 33.2423 109.575 33.0234 109.181 32.8046 108.874 32.6076 108.699 32.5639 108.678 32.7389 109.334 33.8113 109.837 34.7085 110.166 35.4526 110.275 35.8465 110.45 36.1091 110.691 36.2404 110.822 36.3499 110.975 36.3499 111.15 36.2185 111.413 36.0435 111.785 35.7371 112.201 35.3213 112.529 34.9493 112.748 34.4897 112.857 33.9645 113.623 30.5067 114.805 26.0423 116.359 20.5275 116.622 19.5646 116.928 18.9081 117.256 18.536 117.541 18.2953 117.606 18.0546 117.475 17.792 117.212 17.398 116.818 16.9822 116.271 16.5445 116.009 16.3476 115.724 16.26 115.462 16.3038 114.739 16.457 114.17 16.5227 113.777 16.5227 113.317 16.5008 112.639 16.4351 111.785 16.3257 111.522 15.9318 111.216 15.6035 110.866 15.3628 110.8 15.319 110.757 15.2971 110.713 15.2753ZM101.631 13.8747C101.565 13.8747 101.478 13.9184 101.39 13.9841 101.303 14.0497 101.303 14.2029 101.368 14.4218 101.456 15.0126 101.456 15.5816 101.368 16.1506 101.346 16.6102 101.259 17.223 101.04 17.9889 100.361 20.615 99.705 22.6065 99.1141 24.029 98.6107 25.4296 97.9542 26.7426 97.1007 27.9682 96.8162 28.3621 96.663 28.7341 96.6412 29.1061 96.6412 29.7189 96.6849 30.1785 96.8162 30.463 96.9475 30.7475 97.1445 30.8131 97.3633 30.6162 97.6697 30.4411 97.9323 30.1128 98.1731 29.6314 98.7202 28.6247 99.1797 27.5305 99.5299 26.4144 99.9457 24.9919 100.383 23.5913 100.821 22.2126 100.93 21.8187 101.04 21.4247 101.149 21.0527 101.215 21.0746 101.281 21.0965 101.368 21.0965 101.937 21.1184 102.834 21.2278 104.06 21.4904 104.06 21.5561 104.104 21.6874 104.169 21.8624 104.366 22.4533 104.695 22.5627 105.132 22.2345 105.461 22.0156 105.679 21.7311 105.789 21.4247 106.073 20.615 106.38 19.7834 106.708 18.9299 106.992 18.1859 107.364 17.595 107.824 17.1792 108.109 16.9603 108.174 16.6758 108.021 16.3914 107.802 16.0631 107.474 15.7129 107.08 15.3409 106.861 15.1658 106.62 15.1221 106.336 15.1658 105.242 15.2534 104.104 15.2534 102.944 15.1221 102.922 15.1002 102.9 15.0783 102.878 15.0345 102.572 14.5968 102.222 14.2467 101.828 13.9841 101.762 13.8965 101.696 13.8747 101.631 13.8747Z" fill="#122E66" fill-rule="evenodd" fill-opacity="1" transform="matrix(1 0 0 1.00249 275 389.478)"/><path d="M27.2241 98.6326 18.1859 99.6393C17.792 99.6831 17.5075 99.7706 17.3543 99.9238 17.2011 100.077 17.1354 100.296 17.1573 100.58 17.1792 100.865 17.3105 101.084 17.5075 101.193 17.7044 101.303 17.9889 101.346 18.3828 101.303L27.4211 100.296 27.7274 103.053 19.1488 104.016C17.9014 104.147 16.9166 103.972 16.2163 103.425 15.516 102.9 15.1002 102.025 14.9689 100.843 14.8376 99.6612 15.0564 98.7421 15.6254 98.0636 16.1944 97.3852 17.0917 96.9913 18.3391 96.8381L26.9177 95.8752M17.1573 109.028 28.7341 105.023 29.7408 107.955 25.5171 110.932C25.0575 111.26 24.5761 111.61 24.0728 111.938 23.5694 112.267 23.0223 112.617 22.4533 112.967 23.0004 112.682 23.5694 112.42 24.1384 112.201 24.7074 111.96 25.3639 111.719 26.1299 111.457L30.4192 109.969 31.2946 112.507 19.7178 116.512 18.733 113.667 23.1974 110.428C23.6569 110.1 24.1603 109.75 24.6636 109.422 25.167 109.093 25.7141 108.765 26.2831 108.437 25.4515 108.809 24.6417 109.159 23.8977 109.465 23.1536 109.772 22.4314 110.034 21.7749 110.275L18.0108 111.566 17.1573 109.028ZM21.5779 120.145 32.5858 114.761 33.7894 117.256 22.7816 122.64 21.5779 120.145ZM26.0861 127.958 35.1462 119.488 36.7875 121.918 32.8921 125.135C32.6952 125.288 32.3013 125.594 31.6885 126.076 31.0757 126.535 30.3973 127.082 29.5876 127.673 30.4849 127.17 31.5572 126.579 32.7827 125.922 33.0016 125.813 33.1547 125.725 33.2423 125.682L37.6848 123.318 39.2824 125.682 28.0338 130.89 26.0861 127.958ZM31.8855 135.88 40.7705 127.432 45.0379 131.941 43.331 133.582 40.9456 131.087 39.1729 132.772 41.2519 134.961 39.5668 136.58 37.4878 134.392 35.4964 136.274 37.9255 138.834 36.2185 140.475 31.8855 135.88ZM39.2824 143.299 46.9856 133.757 50.0713 136.252C50.8592 136.908 51.3406 137.543 51.45 138.221 51.5813 138.878 51.3625 139.556 50.8154 140.235L50.7497 140.322 50.312 140.869C49.9181 141.373 49.5023 141.679 49.0865 141.81 48.6707 141.942 48.1893 141.92 47.6422 141.745 47.9485 142.204 48.0798 142.664 48.0361 143.08 47.9923 143.517 47.7516 143.977 47.3358 144.502L45.5632 146.712C45.3662 146.975 45.213 147.194 45.1255 147.369 45.0379 147.544 44.9723 147.719 44.9504 147.894L42.7838 146.122C42.8057 145.968 42.8714 145.815 42.9808 145.64 43.0902 145.465 43.2653 145.224 43.506 144.918L44.9942 143.08C45.41 142.554 45.6069 142.161 45.5632 141.876 45.5194 141.592 45.2568 141.241 44.7753 140.847L41.4051 145.027 39.2824 143.299ZM46.0008 139.337C46.4823 139.71 46.8762 139.906 47.1388 139.928 47.4014 139.95 47.664 139.797 47.9048 139.491L48.3425 138.944C48.6051 138.615 48.6926 138.331 48.627 138.09 48.5613 137.849 48.3206 137.543 47.8829 137.171L47.7954 137.105 46.0008 139.337ZM50.6403 146.231 52.9601 147.675 52.4348 148.529C52.216 148.879 52.1066 149.185 52.1284 149.426 52.1503 149.667 52.2816 149.886 52.5443 150.039 52.785 150.192 53.0257 150.236 53.2664 150.17 53.5072 150.105 53.7041 149.951 53.8573 149.689 53.9886 149.47 54.0543 149.207 54.0543 148.923 54.0543 148.616 53.9886 148.288 53.8573 147.894 53.7917 147.719 53.7041 147.478 53.5947 147.15 53.2008 146.078 52.9601 145.312 52.8506 144.83 52.7412 144.393 52.7412 143.933 52.8506 143.474 52.9382 143.014 53.1132 142.576 53.3977 142.139 53.9448 141.263 54.6233 140.76 55.4767 140.607 56.3083 140.454 57.2056 140.672 58.1685 141.285 59.1314 141.876 59.7004 142.554 59.9193 143.299 60.1381 144.043 59.963 144.852 59.4159 145.75L58.8907 146.603 56.6804 145.202 57.1181 144.48C57.315 144.152 57.4245 143.868 57.4026 143.627 57.3807 143.386 57.2494 143.211 56.9868 143.036 56.7898 142.905 56.571 142.861 56.3521 142.926 56.1333 142.992 55.9582 143.123 55.805 143.364 55.5643 143.758 55.6956 144.699 56.1989 146.187L56.2208 146.275 56.3083 146.537C56.746 147.872 56.943 148.748 56.9211 149.185 56.8992 149.47 56.8336 149.776 56.746 150.083 56.6366 150.389 56.5053 150.695 56.3083 150.98 55.7394 151.877 55.0391 152.402 54.1637 152.556 53.2883 152.709 52.3692 152.468 51.3625 151.855 50.3777 151.243 49.7649 150.498 49.568 149.689 49.371 148.857 49.568 147.96 50.1589 146.997L50.6403 146.231ZM58.453 155.204 63.1144 143.868 65.6748 144.918 61.0135 156.254 58.453 155.204ZM66.7909 158.202 68.8262 148.529 67.0536 148.157 67.535 145.837 73.772 147.172 73.3125 149.47 71.5398 149.098 69.5046 158.771 66.7909 158.202ZM77.7112 155.882 79.0462 155.991 78.9367 152.227C78.9367 151.965 78.9149 151.702 78.9149 151.418 78.9149 151.133 78.9149 150.695 78.9149 150.105 78.8492 150.433 78.7835 150.761 78.7179 151.111 78.6522 151.461 78.5647 151.812 78.4991 152.184L77.7112 155.882ZM73.9471 159.996 77.2298 147.96 80.9282 148.266 82.1318 160.675 79.1993 160.434 79.1118 158.202 77.2079 158.049 76.7483 160.215 73.9471 159.996ZM85.0862 156.648 87.8218 156.801 87.778 157.786C87.7561 158.202 87.8218 158.508 87.9531 158.727 88.0844 158.946 88.3032 159.055 88.6096 159.055 88.8941 159.077 89.113 158.99 89.288 158.815 89.4631 158.639 89.5506 158.399 89.5725 158.114 89.5944 157.852 89.5287 157.589 89.3756 157.326 89.2224 157.064 89.0035 156.801 88.6971 156.517 88.5658 156.385 88.3689 156.21 88.1063 155.991 87.2528 155.247 86.6619 154.7 86.3336 154.306 86.0273 153.956 85.8084 153.584 85.6771 153.125 85.5458 152.687 85.4801 152.205 85.502 151.702 85.5458 150.674 85.9178 149.886 86.5744 149.36 87.2309 148.813 88.1282 148.573 89.2661 148.638 90.4041 148.704 91.2357 149.01 91.7828 149.557 92.3299 150.105 92.5707 150.892 92.5269 151.943L92.4831 152.95 89.857 152.818 89.9008 151.965C89.9227 151.571 89.8789 151.286 89.7476 151.089 89.6163 150.892 89.3974 150.805 89.113 150.783 88.8722 150.761 88.6753 150.849 88.5221 151.002 88.3689 151.155 88.2813 151.374 88.2595 151.636 88.2376 152.096 88.8066 152.862 89.9664 153.912L90.0321 153.978 90.229 154.153C91.2576 155.094 91.8485 155.773 92.0454 156.167 92.1768 156.429 92.2643 156.736 92.3081 157.042 92.3737 157.348 92.3737 157.698 92.3737 158.049 92.3081 159.099 91.9579 159.909 91.2576 160.456 90.5792 161.003 89.6382 161.266 88.4564 161.2 87.2965 161.134 86.4212 160.784 85.8522 160.171 85.2832 159.537 85.0206 158.661 85.0862 157.523L85.0862 156.648ZM101.915 155.007 103.228 154.81 102.244 151.177C102.178 150.936 102.112 150.674 102.025 150.389 101.959 150.105 101.85 149.689 101.718 149.12 101.74 149.448 101.762 149.798 101.762 150.148 101.784 150.498 101.784 150.87 101.806 151.243L101.915 155.007ZM99.2454 159.909 99.5955 147.435 103.272 146.866 107.364 158.639 104.454 159.099 103.841 156.954 101.959 157.239 102.025 159.471 99.2454 159.909ZM111.282 157.304 106.599 145.968 110.538 144.327 112.551 147.697C112.792 148.113 113.054 148.573 113.295 149.054 113.536 149.536 113.798 150.061 114.083 150.63 113.842 149.951 113.667 149.339 113.492 148.813 113.317 148.288 113.208 147.872 113.142 147.588L112.201 143.649 116.118 142.029 120.801 153.365 118.35 154.394 116.643 150.258C116.293 149.382 115.921 148.507 115.549 147.566 115.177 146.647 114.805 145.684 114.433 144.721 114.696 145.771 114.893 146.647 115.068 147.347 115.243 148.047 115.352 148.507 115.396 148.704L116.862 155.029 115.265 155.685 111.96 150.433C111.501 149.689 111.085 149.01 110.713 148.398 110.363 147.807 110.012 147.216 109.706 146.669 110.1 147.522 110.472 148.376 110.866 149.251 111.238 150.126 111.654 151.089 112.07 152.096L113.798 156.276 111.282 157.304ZM120.101 143.868C119.401 142.817 119.116 141.876 119.27 141.001 119.423 140.125 120.014 139.359 120.998 138.681 122.005 138.003 122.946 137.74 123.8 137.937 124.653 138.112 125.441 138.725 126.141 139.775L128.964 143.955C129.665 145.005 129.949 145.947 129.796 146.822 129.643 147.697 129.074 148.463 128.067 149.142 127.06 149.82 126.141 150.061 125.266 149.886 124.39 149.711 123.625 149.098 122.924 148.047L120.101 143.868ZM122.18 141.92 125.507 146.844C125.725 147.172 125.944 147.369 126.163 147.457 126.382 147.522 126.601 147.478 126.842 147.325 127.082 147.15 127.214 146.975 127.235 146.734 127.235 146.516 127.148 146.231 126.907 145.903L123.581 140.979C123.362 140.651 123.143 140.454 122.924 140.366 122.705 140.3 122.487 140.344 122.224 140.497 121.983 140.651 121.852 140.847 121.852 141.088 121.852 141.307 121.939 141.592 122.18 141.92ZM134.632 144.13 126.448 135.004 128.505 133.144 136.689 142.27 134.632 144.13ZM139.819 139.425 131.021 130.912 135.333 126.448 137.04 128.089 134.654 130.562 136.405 132.247 138.506 130.059 140.191 131.678 138.09 133.866 140.06 135.77 142.511 133.232 144.218 134.873 139.819 139.425ZM149.382 119.663 150.498 117.147 151.396 117.563C151.768 117.738 152.074 117.781 152.337 117.738 152.577 117.694 152.774 117.519 152.884 117.234 152.993 116.972 153.015 116.731 152.906 116.512 152.796 116.293 152.621 116.118 152.359 115.987 152.118 115.877 151.855 115.856 151.571 115.899 151.264 115.943 150.936 116.053 150.586 116.25 150.433 116.337 150.192 116.446 149.886 116.622 148.879 117.169 148.157 117.519 147.697 117.672 147.281 117.825 146.822 117.891 146.362 117.869 145.903 117.847 145.443 117.716 144.962 117.519 144.021 117.103 143.43 116.49 143.167 115.681 142.905 114.871 142.992 113.952 143.452 112.901 143.911 111.873 144.502 111.194 145.202 110.888 145.903 110.581 146.734 110.625 147.697 111.063L148.616 111.479 147.544 113.886 146.778 113.536C146.428 113.383 146.122 113.317 145.903 113.383 145.684 113.426 145.509 113.601 145.378 113.864 145.268 114.083 145.268 114.302 145.356 114.499 145.443 114.696 145.618 114.849 145.859 114.98 146.275 115.177 147.194 114.915 148.595 114.192L148.682 114.149 148.923 114.017C150.17 113.405 151.024 113.076 151.461 113.033 151.746 113.011 152.052 113.033 152.381 113.098 152.687 113.164 153.015 113.273 153.343 113.405 154.306 113.842 154.919 114.477 155.204 115.308 155.466 116.14 155.379 117.103 154.897 118.197 154.416 119.27 153.781 119.97 152.993 120.276 152.205 120.583 151.286 120.517 150.258 120.057L149.382 119.663ZM157.501 111.194 145.859 107.408 146.712 104.76 158.355 108.546 157.501 111.194ZM155.225 103.885 155.707 101.171 156.692 101.346C157.108 101.412 157.414 101.39 157.633 101.281 157.852 101.171 158.005 100.974 158.049 100.668 158.092 100.383 158.049 100.165 157.895 99.9676 157.742 99.7706 157.523 99.6393 157.239 99.5955 156.976 99.5518 156.714 99.5737 156.451 99.6831 156.167 99.7925 155.882 99.9895 155.576 100.252 155.444 100.361 155.247 100.558 154.985 100.777 154.153 101.543 153.518 102.068 153.103 102.331 152.731 102.594 152.315 102.769 151.855 102.856 151.396 102.944 150.914 102.944 150.411 102.856 149.404 102.681 148.682 102.222 148.222 101.499 147.763 100.777 147.632 99.8581 147.829 98.7421 148.026 97.6259 148.419 96.8381 149.032 96.3567 149.645 95.8752 150.455 95.7439 151.483 95.919L152.468 96.094 152.008 98.6764 151.177 98.5232C150.783 98.4576 150.498 98.4794 150.28 98.567 150.083 98.6764 149.951 98.8734 149.886 99.1579 149.842 99.3986 149.886 99.6174 150.017 99.7925 150.148 99.9676 150.345 100.077 150.63 100.121 151.089 100.208 151.899 99.7268 153.103 98.6983L153.19 98.6326 153.387 98.4576C154.46 97.5603 155.182 97.0351 155.619 96.9038 155.904 96.8162 156.188 96.7506 156.517 96.7287 156.845 96.7068 157.173 96.7287 157.523 96.7943 158.574 96.9694 159.318 97.4509 159.777 98.1949 160.237 98.939 160.368 99.9019 160.171 101.062 159.974 102.222 159.515 103.031 158.836 103.535 158.136 104.038 157.239 104.191 156.123 103.994L155.225 103.885ZM146.537 131.612 136.624 124.412 138.44 121.896 143.299 123.668C143.846 123.865 144.393 124.062 144.94 124.281 145.509 124.5 146.078 124.741 146.691 125.025 146.143 124.741 145.618 124.412 145.093 124.084 144.568 123.756 143.999 123.34 143.342 122.88L139.666 120.211 141.241 118.022 151.155 125.222 149.404 127.651 144.218 125.835C143.671 125.638 143.123 125.441 142.554 125.2 142.007 124.981 141.416 124.719 140.826 124.434 141.613 124.916 142.357 125.375 143.036 125.813 143.714 126.251 144.349 126.688 144.896 127.082L148.113 129.424 146.537 131.612Z" fill="#122E66" fill-rule="evenodd" fill-opacity="1" transform="matrix(1 0 0 1.00249 275 389.478)"/><path d="M87.5373 4.00483C133.56 4.00483 171.07 41.5364 171.07 87.5373 171.07 133.538 133.56 171.07 87.5373 171.07 41.5146 171.07 4.00483 133.56 4.00483 87.5373 4.00483 41.5146 41.5146 4.00483 87.5373 4.00483M87.5373 34.818C116.578 34.818 140.257 58.4968 140.257 87.5373 140.257 116.578 116.578 140.257 87.5373 140.257 58.4968 140.257 34.818 116.578 34.818 87.5373 34.818 58.4968 58.4968 34.818 87.5373 34.818ZM87.5373 33.2861C117.409 33.2861 141.789 57.6652 141.789 87.5373 141.789 117.409 117.409 141.789 87.5373 141.789 57.6652 141.789 33.2861 117.409 33.2861 87.5373 33.2861 57.6652 57.6652 33.2861 87.5373 33.2861ZM87.5373 9.32272C130.628 9.32272 165.752 44.4689 165.752 87.5373 165.752 130.628 130.606 165.752 87.5373 165.752 44.4689 165.752 9.32272 130.628 9.32272 87.5373 9.32272 44.4471 44.4471 9.32272 87.5373 9.32272ZM87.5373 7.55009C131.59 7.55009 167.524 43.4841 167.524 87.5373 167.524 131.59 131.59 167.524 87.5373 167.524 43.4841 167.524 7.55009 131.59 7.55009 87.5373 7.55009 43.4841 43.4841 7.55009 87.5373 7.55009ZM87.5373 0C135.748 0 175.075 39.3261 175.075 87.5373 175.075 135.748 135.748 175.075 87.5373 175.075 39.3261 175.075 0 135.748 0 87.5373 0 39.3261 39.3261 0 87.5373 0Z" fill="#122E66" fill-rule="evenodd" fill-opacity="1" transform="matrix(1 0 0 1.00249 275 389.478)"/><path d="M98.1949 77.9301 98.1949 79.834 95.0655 79.834 95.0655 77.9301M96.9257 80.5124 96.9257 82.8759 95.0436 82.8759 95.0436 80.5124 96.9257 80.5124ZM100.143 79.834 100.143 77.9301 98.8734 77.9301 98.8734 79.834 100.143 79.834ZM100.143 82.8759 100.143 80.5124 97.6041 80.5124 97.6041 82.8759 100.143 82.8759ZM92.1986 66.5502 92.1986 63.9241 94.9342 63.9241 94.9342 66.5502 92.1986 66.5502ZM87.9093 66.5502 87.9093 63.9241 91.5202 63.9241 91.5202 66.5502 87.9093 66.5502ZM83.6419 66.5502 83.6419 63.9241 87.2528 63.9241 87.2528 66.5502 83.6419 66.5502ZM79.9653 66.5502 79.9653 63.9241 82.9635 63.9241 82.9635 66.5502 79.9653 66.5502ZM94.9342 59.8098 94.9342 63.2676 79.9653 63.2676 79.9653 59.8098 81.5191 59.8098 81.5191 62.436 84.4297 62.436 84.4297 59.8098 85.9835 59.8098 85.9835 62.436 88.8941 62.436 88.8941 59.8098 90.4479 59.8098 90.4479 62.436 93.3585 62.436 93.3585 59.8098 94.9342 59.8098ZM98.8734 86.2461 100.143 86.2461 100.143 83.5543 98.8734 83.5543 98.8734 86.2461ZM95.0436 86.2461 98.1731 86.2461 98.1731 83.5543 95.0436 83.5543 95.0436 86.2461ZM90.0759 69.3514 90.0759 67.2286 93.9494 67.2286 93.9494 69.3514 90.0759 69.3514ZM85.5239 69.3514 85.5239 67.2286 89.3974 67.2286 89.3974 69.3514 85.5239 69.3514ZM80.972 69.3514 80.972 67.2286 84.8455 67.2286 84.8455 69.3514 80.972 69.3514ZM79.2869 65.4998 77.9301 65.4998 77.9301 68.0165 77.2516 68.0165 75.8948 68.0165 75.2164 68.0165 75.2164 65.4998 73.8596 65.4998 73.8596 68.0165 71.1459 68.0165 71.1459 65.4998 69.7234 65.4998 69.7234 69.3514 80.2936 69.3514 80.2936 67.2286 79.2869 67.2286 79.2869 65.4998ZM100.143 75.8511 97.1007 75.8511 97.1007 77.2516 100.143 77.2516 100.143 75.8511ZM100.821 75.8511 100.821 86.9245 74.1222 86.9245 74.1222 75.8511 69.045 75.8511 69.045 64.8214 71.8243 64.8214 71.8243 67.3599 73.1812 67.3599 73.1812 64.8214 75.8948 64.8214 75.8948 67.3381 77.2516 67.3381 77.2516 64.8214 77.9301 64.8214 79.2869 64.8214 79.2869 59.1314 82.1975 59.1314 82.1975 61.7576 83.7513 61.7576 83.7513 59.1314 86.6619 59.1314 86.6619 61.7576 88.2157 61.7576 88.2157 59.1314 91.1263 59.1314 91.1263 61.7576 92.6801 61.7576 92.6801 59.1314 95.5907 59.1314 95.5907 64.8214 97.1007 64.8214 97.7791 64.8214 97.7791 67.3381 99.136 67.3381 99.136 64.8214 101.85 64.8214 101.85 67.3381 103.206 67.3381 103.206 64.8214 105.986 64.8214 105.986 75.8292 100.821 75.8511ZM103.732 71.9119 105.329 71.9119 105.329 70.0298 103.732 70.0298 103.732 71.9119ZM100.471 71.9119 103.053 71.9119 103.053 70.0298 100.471 70.0298 100.471 71.9119ZM97.6259 71.9119 99.7925 71.9119 99.7925 70.0298 97.6259 70.0298 97.6259 71.9119ZM92.3518 71.9119 96.9475 71.9119 96.9475 70.0298 92.3518 70.0298 92.3518 71.9119ZM87.7999 71.9119 91.6953 71.9119 91.6953 70.0298 87.7999 70.0298 87.7999 71.9119ZM83.2261 71.9119 87.0996 71.9119 87.0996 70.0298 83.2261 70.0298 83.2261 71.9119ZM77.9301 71.9119 82.5477 71.9119 82.5477 70.0298 77.9301 70.0298 77.9301 71.9119ZM75.0851 71.9119 77.2516 71.9119 77.2516 70.0298 75.0851 70.0298 75.0851 71.9119ZM71.8243 71.9119 74.4067 71.9119 74.4067 70.0298 71.8243 70.0298 71.8243 71.9119ZM69.7234 71.9119 71.1459 71.9119 71.1459 70.0298 69.7234 70.0298 69.7234 71.9119ZM98.1293 72.5903 94.2995 72.5903 94.2995 75.1726 98.1293 75.1726 98.1293 72.5903ZM102.353 72.5903 98.8077 72.5903 98.8077 75.1726 102.353 75.1726 102.353 72.5903ZM105.329 72.5903 103.031 72.5903 103.031 75.1726 105.329 75.1726 105.329 72.5903ZM71.8025 75.1726 71.8025 72.5903 69.7234 72.5903 69.7234 75.1726 71.8025 75.1726ZM76.0261 75.1726 76.0261 72.5903 72.4809 72.5903 72.4809 75.1726 76.0261 75.1726ZM80.5343 75.1726 80.5343 72.5903 76.7045 72.5903 76.7045 75.1726 80.5343 75.1726ZM77.7769 77.2516 77.7769 75.8511 74.8006 75.8511 74.8006 77.2516 77.7769 77.2516ZM76.0261 79.834 76.0261 77.9301 74.8006 77.9301 74.8006 79.834 76.0261 79.834ZM76.7045 77.9301 76.7045 79.834 79.834 79.834 79.834 77.9301 76.7045 77.9301ZM76.0261 86.2461 76.0261 83.5543 74.8006 83.5543 74.8006 86.2461 76.0261 86.2461ZM76.7045 83.5543 76.7045 86.2461 79.834 86.2461 79.834 83.5543 76.7045 83.5543ZM77.2954 82.8759 77.2954 80.5124 74.8006 80.5124 74.8006 82.8759 77.2954 82.8759ZM77.952 80.5124 77.952 82.8759 79.8121 82.8759 79.8121 80.5124 77.952 80.5124ZM81.9787 84.9549 80.4905 84.9549 80.4905 86.2461 81.9787 86.2461 81.9787 84.9549ZM81.9787 83.0072 80.4905 83.0072 80.4905 83.5543 80.4905 84.2984 81.9787 84.2984 81.9787 83.0072ZM81.9787 81.0376 80.4905 81.0376 80.4905 82.3288 81.9787 82.3288 81.9787 81.0376ZM81.9787 79.0899 80.4905 79.0899 80.4905 79.834 80.4905 80.3811 81.9787 80.3811 81.9787 79.0899ZM94.3652 84.9549 92.8771 84.9549 92.8771 86.2461 94.3652 86.2461 94.3652 84.9549ZM94.3652 83.0072 92.8771 83.0072 92.8771 84.2984 94.3652 84.2984 94.3652 83.0072ZM94.3652 81.0376 92.8771 81.0376 92.8771 82.3288 94.3652 82.3288 94.3652 81.0376ZM94.3652 79.0899 92.8771 79.0899 92.8771 80.3811 94.3652 80.3811 94.3652 79.0899ZM81.2127 74.9757C82.0224 73.9471 83.0729 73.1155 84.2765 72.5903L81.2127 72.5903 81.2127 74.9757ZM79.9653 77.2516C80.1404 76.7702 80.3592 76.2887 80.6218 75.8511L78.4772 75.8511 78.4772 77.2516 79.9653 77.2516ZM94.2558 75.8511C94.5184 76.2887 94.7372 76.7483 94.9123 77.2516L96.4223 77.2516 96.4223 75.8511 94.2558 75.8511ZM90.6011 72.5903C91.7828 73.1155 92.8333 73.9252 93.6211 74.91L93.6211 72.5903 90.6011 72.5903ZM85.6115 74.5161C86.0929 74.341 86.5963 74.2316 87.1215 74.2097L87.1215 72.5903 86.9464 72.5903C86.2899 72.6341 85.6552 72.7654 85.0425 72.9842L85.6115 74.5161ZM83.8826 75.5228C84.2109 75.2383 84.5829 74.9757 84.9768 74.7787L84.4078 73.2249C83.7732 73.5094 83.2042 73.8815 82.679 74.341L83.8826 75.5228ZM82.8759 76.7264C83.0291 76.4857 83.2042 76.245 83.4011 76.0261L82.1975 74.8225C81.7817 75.2602 81.4097 75.7416 81.1252 76.2669L82.8759 76.7264ZM82.1537 78.4115C82.2413 78.0395 82.3726 77.6674 82.5258 77.3392L80.7969 76.8796C80.6875 77.1203 80.4905 77.5799 80.4905 77.9301L80.4905 78.4115 82.1537 78.4115ZM92.1986 79.5933C92.1986 76.6608 89.7476 74.8225 87.4279 74.8225 85.1081 74.8225 82.6571 76.6608 82.6571 79.5933L82.6571 86.2461 92.1986 86.2461 92.1986 79.5933ZM92.3299 77.3173C92.505 77.6674 92.6144 78.0395 92.702 78.4115L94.3652 78.4115 94.3652 77.9301C94.3652 77.5799 94.1463 77.0985 94.0369 76.8577L92.3299 77.3173ZM91.4327 75.9824C91.6296 76.2012 91.8266 76.4419 91.9798 76.7045L93.7087 76.245C93.4023 75.7197 93.0302 75.2164 92.6144 74.7787L91.4327 75.9824ZM89.8351 74.7568C90.2509 74.9538 90.623 75.2164 90.9512 75.5009L92.133 74.3192C91.6078 73.8815 91.0169 73.4875 90.3822 73.203L89.8351 74.7568ZM87.7999 74.2097C88.2813 74.2316 88.7628 74.341 89.2224 74.4942L89.7695 72.9623C89.1786 72.7654 88.5658 72.6341 87.9312 72.5903L87.7999 72.5903 87.7999 74.2097ZM99.8363 68.0383 99.8363 65.5217 101.193 65.5217 101.193 68.0383 103.907 68.0383 103.907 65.5217 105.351 65.5217 105.351 69.3733 94.6278 69.3733 94.6278 67.2505 95.6345 67.2505 95.6345 65.5217 97.1445 65.5217 97.1445 68.0383 99.8363 68.0383ZM81.1908 86.7494 76.3763 91.564 63.9679 91.564 63.9679 92.6144 111.041 92.6144 111.041 91.564 98.0636 91.564 93.2491 86.7494 91.7828 86.7494 96.5974 91.564 77.8644 91.564 82.679 86.7494 81.1908 86.7494ZM100.777 80.972 100.777 82.0224 113.208 82.0224 113.208 80.972 100.777 80.972ZM82.6133 80.972 82.6133 82.0224 92.2424 82.0224 92.2424 80.972 82.6133 80.972ZM61.7794 80.972 61.7794 82.0224 74.166 82.0224 74.166 80.972 61.7794 80.972ZM105.876 72.262 105.876 73.3125 113.777 73.3125 113.777 72.262 105.876 72.262ZM61.2323 72.262 61.2323 73.3125 69.2858 73.3125 69.2858 72.262 61.2323 72.262ZM95.5688 61.101 95.5688 62.1515 114.521 62.1515 114.521 61.101 95.5688 61.101ZM60.4664 61.101 60.4664 62.1515 79.3307 62.1515 79.3307 61.101 60.4664 61.101ZM106.205 52.1284 107.058 53.923 109.028 54.1856 107.605 55.5643 107.955 57.512 106.205 56.571 104.454 57.512 104.804 55.5643 103.382 54.1856 105.351 53.923M68.8043 52.1284 69.6578 53.923 71.6274 54.1856 70.2049 55.5643 70.555 57.512 68.8043 56.571 67.0536 57.512 67.4037 55.5643 65.9812 54.1856 67.9508 53.923 68.8043 52.1284ZM68.8043 49.9619 70.3143 53.0695 73.7283 53.529 71.2335 55.9144 71.8462 59.3065 68.8043 57.6652 65.7624 59.3065 66.3751 55.9144 63.8803 53.529 67.2943 53.0695 68.8043 49.9619ZM87.3841 95.2187 88.2376 97.0132 90.2072 97.2758 88.7628 98.6545 89.113 100.602 87.3622 99.6612 85.6115 100.602 85.9616 98.6545 84.5172 97.2758 86.4868 97.0132 87.3841 95.2187ZM87.3841 93.0521 88.8941 96.1597 92.3081 96.6193 89.8132 99.0047 90.426 102.397 87.3841 100.755 84.3422 102.397 84.9549 99.0047 82.4601 96.6193 85.8741 96.1597 87.3841 93.0521ZM106.205 49.9619 107.715 53.0695 111.129 53.529 108.634 55.9144 109.247 59.3065 106.205 57.6652 103.163 59.3065 103.775 55.9144 101.281 53.529 104.695 53.0695 106.205 49.9619ZM69.242 121.48C69.2858 121.48 69.4608 121.458 69.7234 121.392 70.4456 121.217 71.124 121.13 71.7587 121.064 71.8681 121.064 71.9119 121.173 71.9119 121.436 71.89 121.742 71.8243 121.983 71.7149 122.136L69.5046 122.596M71.9775 120.604C71.9119 120.604 71.6274 120.67 71.1459 120.801 70.38 120.998 69.7016 121.152 69.1544 121.283 68.9575 121.152 68.7824 121.108 68.6073 121.13 68.476 121.173 68.4979 121.261 68.6292 121.392 68.7168 121.502 68.8043 121.764 68.9356 122.158 69.0013 122.443 69.0888 122.662 69.1544 122.859 69.242 123.077 69.3514 123.187 69.4827 123.209 69.5703 123.165 69.614 123.034 69.5703 122.815 69.6359 122.815 69.9423 122.771 70.4675 122.705 71.6055 122.53 72.3496 122.421 72.6997 122.399 72.8091 122.355 72.8091 122.311 72.7216 122.246 72.6341 122.158 72.5246 122.093 72.3496 122.049 72.5246 121.655 72.7435 121.37 73.0061 121.239 73.1155 121.152 73.0717 121.02 72.831 120.867 72.5027 120.692 72.2183 120.604 71.9775 120.604ZM69.2858 119.291C69.1544 119.16 68.8918 119.073 68.5417 119.051 68.4104 119.073 68.4323 119.182 68.5636 119.423 68.7605 119.729 68.9356 119.904 69.0669 119.904 69.3514 119.795 69.4171 119.598 69.2858 119.291ZM70.555 117.475C71.2116 117.387 71.6493 117.3 71.8681 117.212 72.0869 117.037 71.9338 116.972 71.4304 116.994 71.3648 116.994 71.2116 117.015 70.9708 117.081 70.7958 117.147 70.6645 117.191 70.555 117.191 70.555 117.147 70.5769 117.059 70.6207 116.95 70.6426 116.862 70.6426 116.818 70.6426 116.753 70.6426 116.687 70.555 116.6 70.4237 116.512 71.321 116.337 71.9119 116.206 72.1964 116.14 72.3496 116.074 72.3714 115.987 72.2839 115.856 72.1745 115.79 71.9994 115.768 71.7806 115.79 71.7587 115.79 71.6711 115.812 71.518 115.856 70.5769 116.14 69.5046 116.359 68.2791 116.512 68.0602 116.556 68.0383 116.622 68.2134 116.709 68.3666 116.775 68.6073 116.797 68.9137 116.775 69.1107 116.753 69.3295 116.731 69.5484 116.687 69.6797 116.797 69.7891 117.015 69.8766 117.344 69.5265 117.431 69.1544 117.497 68.7386 117.563 68.5855 117.65 68.673 117.716 68.9794 117.76 69.2201 117.76 69.5265 117.716 69.9204 117.65L69.9861 118.285C69.1326 118.438 68.4979 118.525 68.104 118.569 67.907 118.635 67.907 118.722 68.1259 118.788 68.2791 118.832 68.5417 118.832 68.9356 118.788 69.242 118.766 69.5046 118.722 69.7234 118.679 69.8548 118.635 69.9423 118.613 70.0298 118.613L70.1174 120.014C70.0517 120.014 69.9204 120.035 69.7672 120.079 67.8414 120.342 66.7034 120.473 66.3095 120.495 66.1344 120.517 66.0906 120.561 66.2001 120.648 66.397 120.801 66.6159 120.911 66.8347 120.977 66.8566 120.977 66.966 120.955 67.1411 120.911 67.8195 120.626 69.4827 120.32 72.0651 119.992 72.7216 119.926 73.5313 119.926 74.4723 119.948 74.538 119.948 74.5818 119.948 74.5818 119.948 74.8663 119.904 74.8663 119.751 74.6255 119.532 74.3848 119.357 74.1003 119.27 73.772 119.291 73.6407 119.291 73.3125 119.379 72.7654 119.488 72.3058 119.598 72.0213 119.663 71.8681 119.685 72.2183 119.357 72.459 119.094 72.6122 118.941 72.6997 118.832 72.6778 118.744 72.5027 118.679 72.262 118.569 72.0432 118.547 71.8025 118.591 71.693 118.591 71.6711 118.657 71.7368 118.788 71.8025 118.941 71.8243 119.051 71.8025 119.116 71.693 119.379 71.5836 119.598 71.4304 119.795L70.5988 119.948 70.555 118.569C70.752 118.525 71.0584 118.482 71.4523 118.416 72.0213 118.307 72.4152 118.241 72.5903 118.197 72.7872 118.132 72.831 118.044 72.7216 117.956 72.5903 117.891 72.3714 117.869 72.0651 117.891 72.0213 117.891 71.8462 117.913 71.5836 117.978 71.2116 118.044 70.8614 118.088 70.5332 118.153L70.555 117.475ZM68.476 115.046C68.3447 115.024 68.3228 115.09 68.3885 115.243 68.476 115.418 68.6292 115.593 68.8481 115.768 68.9794 115.899 69.1107 115.943 69.242 115.877 69.3733 115.812 69.4171 115.702 69.3952 115.527 69.2858 115.221 68.9794 115.046 68.476 115.046ZM82.3507 119.051C82.7446 119.007 83.1604 118.919 83.62 118.832 84.0139 118.788 84.2109 118.701 84.2109 118.569 84.1671 118.416 83.9701 118.35 83.5981 118.372 83.5106 118.372 83.4011 118.394 83.2479 118.438 83.0948 118.438 82.7884 118.504 82.3726 118.613 82.3507 118.394 82.3945 118.197 82.4601 117.978 82.482 117.891 82.482 117.825 82.4601 117.781 82.0005 117.541 81.6504 117.431 81.4097 117.431 81.3002 117.431 81.3002 117.541 81.4316 117.76 81.6066 118.088 81.716 118.438 81.716 118.788 81.4753 118.832 81.1689 118.876 80.775 118.963 80.3155 119.051 80.0966 119.073 80.0528 119.073 79.6589 119.182 79.7246 119.27 80.2717 119.335 80.7094 119.357 81.1908 119.335 81.7379 119.226L81.8474 120.583C80.7531 120.736 79.7246 120.889 78.7617 120.977 78.6085 121.02 78.4772 121.02 78.4115 121.042 78.0395 121.086 77.8863 121.152 77.9738 121.217 78.1051 121.261 78.3896 121.305 78.8273 121.37 78.8492 121.37 78.9586 121.349 79.1118 121.327 81.3221 120.867 83.5981 120.67 85.9616 120.78 86.4212 120.78 86.5744 120.648 86.4212 120.386 86.2242 120.123 85.8741 119.992 85.3488 119.97 85.2613 119.97 85.13 119.992 84.9112 120.035 84.2327 120.167 83.4011 120.32 82.4601 120.473L82.3507 119.051ZM94.2339 120.079C94.8029 120.889 95.2843 121.37 95.6782 121.546 96.094 121.37 96.1378 121.064 95.8095 120.583 95.5688 120.408 95.1968 120.211 94.6497 120.014 94.2558 119.904 94.1245 119.926 94.2339 120.079ZM94.5621 118.372C94.584 118.394 94.6278 118.46 94.6716 118.547 95.1311 119.094 95.4156 119.379 95.5469 119.357 95.919 119.182 96.0065 118.919 95.7439 118.569 94.8904 118.175 94.4746 118.132 94.5621 118.372ZM93.0959 115.768C93.0521 115.768 92.8552 115.79 92.5269 115.856 91.3451 116.118 90.2509 116.228 89.2224 116.206 89.0473 116.228 89.0254 116.293 89.1786 116.403 89.3756 116.6 89.5944 116.731 89.8351 116.797 89.9227 116.797 90.3822 116.687 91.2576 116.468 91.3451 117.563 90.5573 118.81 88.9379 120.189 88.719 120.342 88.719 120.386 88.9379 120.342 89.1348 120.298 89.3537 120.189 89.5944 120.014 90.5354 119.401 91.192 118.635 91.5421 117.716 91.564 117.716 91.6296 117.738 91.6953 117.76 92.0236 117.913 92.2205 118.022 92.2424 118.066 92.2862 118.263 92.1986 118.635 91.9798 119.204 91.7609 119.751 91.5859 120.057 91.4546 120.123 91.4327 120.123 91.3014 120.079 91.1044 120.035 90.7105 119.882 90.5573 119.86 90.6667 119.97 90.8856 120.254 91.0388 120.539 91.1044 120.823 91.1044 120.867 91.1044 120.911 91.1482 120.911 91.367 120.998 91.6078 120.911 91.8704 120.67 92.0892 120.408 92.2862 120.035 92.4394 119.532 92.6363 118.898 92.8114 118.438 92.9865 118.153 93.0084 118.066 93.0302 118.022 93.0302 118 92.9427 117.781 92.7676 117.606 92.5269 117.497 92.4831 117.497 92.4175 117.475 92.3299 117.453 92.1111 117.431 91.9141 117.409 91.7391 117.387 91.7609 117.3 91.8266 117.212 91.9141 117.125 92.0017 116.994 92.0236 116.906 92.0017 116.84 92.0236 116.797 91.8485 116.643 91.4765 116.425 92.1986 116.293 92.8114 116.25 93.3147 116.25 93.5773 116.271 93.6868 116.184 93.643 116.031 93.5773 115.877 93.3804 115.79 93.0959 115.768ZM91.6296 114.061C92.0454 114.652 92.4175 114.958 92.7457 115.046 93.1397 114.936 93.2053 114.674 92.8989 114.302 91.9798 113.842 91.564 113.755 91.6296 114.061ZM105.307 118.679C105.548 118.722 105.942 118.744 106.511 118.744 106.883 118.766 107.124 118.766 107.233 118.788 107.561 118.832 107.715 118.766 107.737 118.613 107.737 118.394 107.583 118.263 107.299 118.197 107.124 118.175 106.774 118.197 106.292 118.241 105.876 118.307 105.57 118.329 105.351 118.329 105.461 117.431 105.57 116.775 105.701 116.359 105.745 116.206 105.789 116.053 105.833 115.921 105.876 115.812 105.898 115.746 105.898 115.681 105.789 115.396 105.417 115.199 104.76 115.068 104.585 115.112 104.585 115.243 104.716 115.505 104.804 115.702 104.848 115.877 104.87 116.009 104.935 116.84 104.738 118.766 104.279 121.764L102.769 121.699C102.769 121.458 102.791 121.13 102.791 120.736 102.834 119.685 102.878 119.051 102.922 118.832 102.944 118.722 102.966 118.591 103.009 118.438 103.053 118.329 103.053 118.263 103.031 118.197 102.834 117.956 102.528 117.781 102.047 117.65 101.872 117.628 101.85 117.76 102.003 118.044 102.112 118.241 102.178 118.394 102.2 118.504 102.265 119.051 102.265 120.101 102.156 121.677 101.543 121.721 100.93 121.699 100.318 121.633 99.9895 121.633 99.88 121.655 99.9457 121.742 100.099 121.83 100.361 121.939 100.755 122.027 102.025 121.983 103.338 122.005 104.716 122.093 105.351 122.136 105.986 122.224 106.62 122.311 107.233 122.377 107.802 122.487 108.349 122.596 108.787 122.683 108.984 122.574 108.896 122.29 108.721 121.983 108.415 121.786 107.999 121.699 107.868 121.677 107.474 121.699 106.839 121.721 105.986 121.721 105.329 121.742 104.87 121.742L105.307 118.679ZM95.0436 113.558C94.9123 113.58 94.8904 113.645 94.9998 113.798 95.1311 113.93 95.1093 114.236 94.9561 114.718 94.5184 116.403 93.9713 117.584 93.2928 118.263 93.074 118.525 93.0959 118.569 93.4023 118.394 94.212 117.825 94.8466 116.862 95.3062 115.505 95.4813 115.746 95.7658 116.271 96.1816 117.059 96.3785 117.387 96.5098 117.628 96.5755 117.76 96.663 118.153 97.1007 118.329 97.9104 118.219 97.998 118.219 98.0636 118.219 98.1074 118.241 98.37 118.219 98.5451 118.197 98.6326 118.153 98.7202 118.11 98.6764 118.044 98.5232 117.978 97.2539 117.212 96.4223 116.512 96.0284 115.856 95.7439 115.527 95.5469 115.308 95.4156 115.177 95.5032 114.805 95.6345 114.499 95.7877 114.236 95.8095 114.149 95.8314 114.083 95.8314 114.039 95.7658 113.886 95.4813 113.711 95.0436 113.558ZM83.4668 113.689C83.4449 113.689 83.4011 113.711 83.3574 113.733 82.6571 114.017 81.4316 114.236 79.6808 114.411 79.1993 114.455 79.1775 114.543 79.5714 114.652 80.0091 114.718 80.4249 114.696 80.8407 114.63 80.9939 114.827 80.9501 115.155 80.7313 115.549 80.3155 116.271 79.8559 116.709 79.3744 116.906 79.2869 116.928 79.2431 116.972 79.2212 116.994 79.1556 117.125 79.1337 117.322 79.1775 117.563 79.2212 117.716 79.2869 117.803 79.3963 117.781 79.3963 117.781 79.5057 117.738 79.7465 117.672 80.0966 117.584 81.3002 117.234 83.4011 116.643 83.423 116.665 83.4668 116.687 83.4887 116.709 83.8388 117.059 84.0577 117.212 84.189 117.147 84.4735 116.862 84.4297 116.512 84.1014 116.074 83.8826 115.856 83.4887 115.659 82.9635 115.505 82.4601 115.374 82.285 115.418 82.482 115.615 82.679 115.812 82.9197 116.074 83.2042 116.425 81.8692 116.687 80.7969 116.862 80.031 116.994 80.403 116.665 80.9282 116.14 81.541 115.44 81.5847 115.374 81.6504 115.33 81.7379 115.265 82.1318 115.024 82.0662 114.805 81.541 114.564 82.679 114.389 83.4887 114.258 83.9482 114.149 84.2109 114.083 84.2765 113.974 84.1671 113.82 84.0358 113.711 83.8169 113.667 83.4668 113.689ZM71.3867 114.302C71.2335 114.324 71.1678 114.389 71.2116 114.543 71.2335 114.696 71.2116 114.805 71.1678 114.893 71.1459 114.915 71.1021 114.98 71.0365 115.09 70.7958 115.33 70.6426 115.527 70.555 115.637 70.4456 115.768 70.4019 115.834 70.4237 115.834 70.4456 115.856 70.555 115.812 70.752 115.702 70.8177 115.637 71.0365 115.527 71.3648 115.352 71.5836 115.221 71.7368 115.133 71.8025 115.09 71.8462 115.068 71.9556 115.024 72.0869 114.958 72.2839 114.871 72.3496 114.783 72.2839 114.718 71.9994 114.411 71.693 114.302 71.3867 114.302ZM123.143 85.7428C122.727 85.1519 122.333 84.5391 121.939 83.9482 122.093 82.7008 124.018 81.6942 126.207 81.6942 128.483 81.6942 130.474 82.7665 130.474 84.1014 130.474 84.7361 130.015 85.3051 129.314 85.7209 129.052 85.8303 128.789 85.896 128.527 85.9178L123.515 85.9178C123.384 85.896 123.296 85.8084 123.143 85.7428M128.527 92.2643C127.432 91.0607 126.273 89.9008 125.31 88.6753 124.85 88.0844 124.39 87.4716 123.953 86.8807L128.527 86.8807 128.527 92.2643ZM128.702 103.163C126.491 105.679 123.668 108.109 123.384 111.654 123.384 112.267 123.559 116.359 123.187 116.731 123.012 116.906 122.705 117.081 122.18 116.797 122.18 116.797 121.261 116.14 120.254 115.615 120.276 114.761 120.342 112.814 120.429 110.713 120.517 109.05 121.152 107.036 122.18 105.526 123.099 104.169 123.384 102.331 123.209 100.755 123.209 100.777 125.944 102.681 128.702 103.163ZM122.618 98.567C122.618 98.0636 122.574 95.4375 122.508 94.0807 122.443 92.7239 121.611 91.4765 121.042 90.1634 120.626 89.2005 120.451 88.2157 120.342 87.1434 120.232 85.8741 120.254 84.4954 120.254 83.0072 120.254 83.0072 122.224 86.2899 125.069 89.8789 126.535 91.7172 128.789 93.6868 129.971 95.6126 130.671 96.7506 131.481 98.8515 130.496 100.624 130.212 101.149 129.862 101.631 129.49 102.134L129.511 102.09C129.555 102.112 125.375 102.134 122.618 98.567ZM112.113 125.813C112.792 124.456 112.77 122.53 112.595 120.604 112.42 118.613 112.091 116.622 112.354 115.243 112.529 114.28 112.989 113.93 113.514 113.186 114.783 111.391 115.505 108.984 114.083 107.168 113.142 105.964 111.829 104.935 111.829 103.71 111.829 102.331 112.179 99.4861 115.308 98.8515L121.939 98.8296C122.202 100.033 122.487 103.009 121.852 104.082 120.845 105.789 119.576 107.933 119.445 110.472L119.313 115.243C119.248 115.221 119.182 115.199 119.116 115.177 119.116 115.177 117.234 114.455 116.315 116.403 115.681 117.694 115.659 119.379 115.199 120.801 114.805 122.049 114.149 123.384 113.339 124.412 113.098 124.719 112.398 125.704 112.113 125.813ZM51.9315 85.7428C52.3473 85.1519 52.7412 84.5391 53.1351 83.9482 52.9819 82.7008 51.0561 81.6942 48.8677 81.6942 46.5917 81.6942 44.6002 82.7665 44.6002 84.1014 44.6002 84.7361 45.0598 85.3051 45.7601 85.7209 46.0227 85.8303 46.2853 85.896 46.5479 85.9178L51.5595 85.9178C51.7126 85.896 51.7783 85.8084 51.9315 85.7428ZM46.5479 92.2643C47.6422 91.0607 48.802 89.9008 49.7868 88.6753 50.2464 88.0844 50.706 87.4716 51.1437 86.8807L46.5698 86.8807 46.5698 92.2643ZM46.3729 103.163C48.5832 105.679 51.4063 108.109 51.6908 111.654 51.6908 112.267 51.5157 116.359 51.8877 116.731 52.0628 116.906 52.3692 117.081 52.8944 116.797 52.8944 116.797 53.8135 116.14 54.8202 115.615 54.7983 114.761 54.7327 112.814 54.6233 110.713 54.5357 109.05 53.9011 107.036 52.8725 105.526 51.9534 104.169 51.6689 102.331 51.844 100.755 51.8658 100.777 49.1303 102.681 46.3729 103.163ZM52.4567 98.567C52.4567 98.0636 52.5005 95.4375 52.5661 94.0807 52.6318 92.7239 53.4634 91.4765 54.0324 90.1634 54.4482 89.2005 54.6233 88.2157 54.7327 87.1434 54.8421 85.8741 54.8202 84.4954 54.8202 83.0072 54.8202 83.0072 52.8506 86.2899 50.0057 89.8789 48.5394 91.7172 46.2853 93.6868 45.1036 95.6126 44.4033 96.7506 43.5936 98.8515 44.5784 100.624 44.8629 101.149 45.213 101.631 45.585 102.134L45.5632 102.09C45.5194 102.112 49.6993 102.134 52.4567 98.567ZM62.9612 125.813C62.2828 124.456 62.3047 122.53 62.4797 120.604 62.6548 118.613 62.9831 116.622 62.7205 115.243 62.5454 114.28 62.0858 113.93 61.5606 113.186 60.2913 111.391 59.5691 108.984 60.9916 107.168 61.9326 105.964 63.2457 104.935 63.2457 103.71 63.2457 102.331 62.8955 99.4861 59.7661 98.8515L53.1351 98.8296C52.8725 100.033 52.588 103.009 53.2227 104.082 54.2293 105.789 55.4986 107.933 55.6299 110.472L55.7612 115.243C55.8269 115.221 55.8926 115.199 55.9582 115.177 55.9582 115.177 57.8403 114.455 58.7594 116.403 59.394 117.694 59.4159 119.379 59.8755 120.801 60.2694 122.049 60.9259 123.384 61.7357 124.412 61.9764 124.719 62.6767 125.704 62.9612 125.813ZM109.991 125.944C110.494 126.097 111.019 126.141 111.238 125.331 112.267 122.487 111.041 118.941 111.15 116.096 111.172 115.33 111.304 114.63 111.588 113.995 95.0874 110.275 80.031 110.275 63.4864 113.995 63.7709 114.63 63.9022 115.33 63.9241 116.096 64.0335 118.941 62.8299 122.508 63.8366 125.331 64.0554 126.119 64.5806 126.097 65.084 125.944 79.3744 122.027 95.7001 122.027 109.991 125.944ZM112.157 112.923C113.317 111.654 113.667 110.56 113.667 109.531 113.667 108.327 113.054 107.671 112.464 106.971 111.829 106.226 111.216 105.417 110.844 104.498 110.56 103.797 110.691 102.637 111.041 101.499 111.763 99.2016 114.017 97.6478 116.162 97.6478L121.48 97.6478 121.502 94.8685C121.546 93.2053 120.648 91.7609 120.014 90.229 119.554 89.113 119.27 87.9093 119.291 86.6619L119.401 80.031 119.445 80.031C120.057 80.9939 120.648 81.9568 121.261 82.9197 122.027 81.6723 123.953 80.7969 126.185 80.7969 129.096 80.7969 131.459 82.285 131.459 84.1014 131.459 85.1081 130.737 86.0054 129.621 86.6181L129.621 93.5336C130.08 94.1026 130.518 94.6935 130.89 95.2843 131.7 96.5974 132.116 98.1074 131.831 99.6831 131.109 103.622 124.434 107.518 124.369 111.61 124.347 112.442 124.39 114.324 124.325 115.79 124.281 116.446 124.303 117.015 124.128 117.344 123.821 117.956 123.209 118.088 122.574 117.956 121.261 117.672 119.51 115.812 118.285 116.14 117.234 116.425 116.906 117.453 116.731 118.482 116.468 120.035 116.031 121.567 115.33 123.034 114.652 124.412 113.886 125.463 113.229 126.207 112.77 126.732 112.354 126.995 111.873 127.148 111.391 127.301 110.822 127.323 110.1 127.126 95.8095 123.056 79.1993 123.056 64.9089 127.126 64.1867 127.323 63.6177 127.301 63.1363 127.148 62.6548 126.995 62.239 126.732 61.7794 126.207 61.1448 125.485 60.3569 124.434 59.6785 123.034 58.9782 121.589 58.5406 120.035 58.2779 118.482 58.1029 117.453 57.7746 116.425 56.7242 116.14 55.5205 115.812 53.7479 117.672 52.4348 117.956 51.8002 118.088 51.1874 117.956 50.881 117.344 50.706 117.015 50.7279 116.446 50.6841 115.79 50.5965 114.346 50.6403 112.442 50.6403 111.61 50.5747 107.518 43.8999 103.622 43.1778 99.6831 42.8933 98.1293 43.3091 96.5974 44.1188 95.2843 44.4908 94.6716 44.9285 94.1026 45.3881 93.5336L45.3881 86.6181C44.2501 86.0054 43.5498 85.1081 43.5498 84.1014 43.5498 82.285 45.9133 80.7969 48.8239 80.7969 51.078 80.7969 53.0038 81.6942 53.7479 82.9197 54.3606 81.9787 54.9515 80.9939 55.5643 80.031L55.6081 80.031 55.7175 86.6619C55.7394 87.9093 55.4767 89.0911 54.9953 90.229 54.3606 91.7609 53.4634 93.2053 53.5072 94.8685L53.529 97.6478 58.8469 97.6478C60.9916 97.6478 63.2457 99.2016 63.9679 101.499 64.318 102.659 64.4493 103.797 64.1648 104.498 63.7928 105.417 63.18 106.226 62.5454 106.971 61.9545 107.671 61.3199 108.327 61.3417 109.531 61.3417 110.56 61.7138 111.676 62.8736 112.945 80.5781 109.137 94.3214 109.115 112.157 112.923ZM68.4323 46.92C74.6474 50.7935 79.8778 52.4129 87.5154 52.4129 95.153 52.4129 100.361 50.7716 106.599 46.92L118.088 56.6804C117.825 56.6366 114.893 58.1685 113.514 62.4141 112.967 64.1211 112.923 66.2438 112.945 68.3885 112.967 70.4019 112.901 72.4152 112.923 74.1441 112.814 81.1689 112.77 93.643 105.22 96.9913 103.819 97.5603 96.5536 99.2016 93.0959 100.909 88.916 102.966 88.3032 104.169 87.5154 104.651 86.7494 104.147 86.1148 102.966 81.9349 100.909 78.4772 99.2016 71.1897 97.5603 69.811 96.9913 62.2609 93.643 62.2171 81.1689 62.1077 74.1441 62.1296 72.4371 62.0639 70.4019 62.0858 68.3885 62.1077 66.2438 62.0639 64.1211 61.5168 62.4141 60.1381 58.1685 57.2056 56.6366 56.943 56.6804L68.4323 46.92ZM68.2353 45.0817 54.2512 57.2494C58.1466 57.709 60.729 61.9326 60.7509 65.5873L60.7728 74.0347C60.7946 81.5847 61.0573 94.9561 69.2858 98.2606 70.7739 98.8515 78.3896 100.646 82.0662 102.462 86.4431 104.76 86.9026 106.642 87.5373 106.992 88.1719 106.642 88.6315 104.76 93.0084 102.462 96.6849 100.646 104.301 98.8734 105.789 98.2606 114.017 94.9342 114.28 81.5847 114.302 74.0347L114.324 65.5873C114.324 61.9326 116.928 57.709 120.801 57.2494L106.817 45.0817C100.165 49.2178 95.7001 51.1218 87.5373 51.1218 79.3744 51.1218 74.8663 49.2178 68.2353 45.0817Z" fill="#122E66" fill-rule="evenodd" fill-opacity="1" transform="matrix(1 0 0 1.00249 275 389.478)"/><path d="M593.962 26.5457C593.24 26.2612 593.634 25.1232 594.947 23.0223 596.851 19.9804 595.976 19.4114 593.94 18.4923 591.774 17.5075 590.505 16.8509 590.351 16.3914 590.176 15.8442 591.249 14.8157 591.993 14.8157 592.321 14.8157 593.328 15.4066 594.356 15.8442 596.523 16.7415 598.055 16.3038 598.427 15.1002 599.543 11.0297 598.055 10.9422 599.324 9.38837 601.687 5.97442 602.06 5.93065 604.117 7.55009 605.473 8.60054 605.714 10.1106 605.977 11.358 606.371 13.24 605.495 14.5093 604.445 16.4132 603.219 18.6236 602.979 18.6017 604.489 19.871 605.539 20.9214 605.845 21.3153 606.13 22.8253 606.13 22.8253 604.314 22.9567 603.876 22.8253 602.344 22.3439 602.366 21.8624 601.359 22.5846 600.287 23.3287 599.149 24.1603 596.742 25.6047 595.516 26.3487 594.706 26.8521 593.962 26.5457ZM241.822 27.8806C239.59 27.1366 240.071 25.736 239.371 24.0071 238.627 22.2126 238.67 20.1555 239.502 19.1269 240.115 18.3609 240.552 18.2734 244.317 18.0764 247.971 17.6606 252.304 16.8947 255.521 16.085 259.373 15.7786 262.502 13.8309 266.048 13.3713 270.074 12.2333 274.254 12.1896 278.018 10.8765 282.001 10.1106 285.306 9.71664 289.442 11.2267 290.427 11.5987 291.937 12.0801 292.768 12.2771 295.329 12.9336 296.511 15.0345 296.511 16.7853 296.16 22.4314 295.066 21.381 290.886 22.4314 287.844 23.1974 285.744 23.5256 283.643 23.5256 280.426 23.4819 277.209 24.5104 274.211 24.7512 270.162 25.0575 265.544 26.2393 263.159 27.5524 255.412 30.4849 248.912 30.9444 241.822 27.8806ZM587.747 46.2635C587.813 45.5194 588.141 44.3814 588.732 43.5498 589.213 42.8495 589.695 41.5364 590.089 40.8143 591.161 38.8666 590.417 38.3194 589.651 36.7438 587.944 33.2642 586.259 36.1529 584.749 32.4107 584.333 30.835 584.683 30.1785 586.412 29.1499 588.557 27.8806 589.739 28.1432 590.702 30.0472 591.686 31.973 595.691 34.4897 597.267 34.7742 597.945 34.7742 600.024 32.2794 600.024 31.4697 600.024 30.463 600.9 30.0472 602.869 30.1785 605.014 30.3098 605.364 30.5505 605.649 32.0605 605.889 33.3298 605.67 33.6581 604.204 34.424 603.219 34.9274 602.563 35.2556 602.475 37.1158 602.366 39.1292 602.935 39.0854 605.101 41.6677 607.18 44.1407 607.246 45.3881 607.246 45.3881 605.101 45.3224 603 45.2568 601.206 44.4252 593.853 40.4422 592.868 45.8476 587.747 46.2635ZM628.102 62.6767C627.183 61.9326 625.104 61.9107 623.068 62.0858 620.311 62.3265 618.932 62.7423 620.946 60.9259 621.405 60.5101 622.478 59.3503 622.696 58.5843 623.068 57.2494 622.543 57.0743 621.34 56.0239 618.692 53.7041 616.328 52.5661 614.183 52.5661 605.627 52.5005 597.836 52.6537 589.585 54.2512 584.289 54.9296 579.322 56.3083 577.199 56.9211 574.091 57.7965 572.275 60.0506 569.736 60.3788 566.519 60.7728 564.681 60.4226 562.471 58.9564 560.326 57.5339 559.976 56.7242 561.311 56.3083 563.915 55.4767 563.718 55.5424 565.797 54.7327 569.211 53.1132 568.292 50.2245 568.183 48.4738 567.635 44.272 567.57 40.1577 567.11 36.2185 566.629 32.1699 566.694 28.2527 565.447 25.5171 565.009 24.6636 564.506 23.6788 564.506 23.3506 564.506 22.3877 566.016 20.812 566.673 19.9366 568.161 17.9889 568.708 17.1573 570.437 14.9689 571.115 14.1154 572.538 12.671 573.588 11.2048 574.814 9.4978 575.58 10.8765 579.322 10.6358 579.913 10.5045 581.466 10.2856 582.013 10.4826 582.955 10.8327 582.998 10.9859 582.779 12.2333 582.473 13.9622 582.823 14.006 579.891 15.1658 578.271 15.8005 576.105 17.1573 575.164 17.8576 573.654 18.9956 570.765 20.8558 571.093 22.9567 572.1 25.7797 573.807 25.9986 577.746 26.1518 582.561 26.3487 583.523 27.2679 582.495 29.2593 582.079 30.0472 581.072 30.1785 579.65 30.5067 577.462 31.0757 575.908 31.9949 573.894 32.9797L573.894 35.3651C573.894 37.8161 574.529 38.5383 575.448 39.3918 576.389 40.2453 578.14 40.0921 580.263 39.3699 584.53 37.9255 584.486 37.9255 585.252 38.6915 585.909 39.348 585.668 39.6106 585.23 40.5516 583.699 41.9304 581.204 43.1559 579.672 43.9656 578.599 44.5127 577.68 45.1255 576.367 45.8914 575.251 46.0008 575.558 46.2416 575.47 48.233 575.404 49.3491 575.536 50.706 575.755 51.2531 576.127 52.216 575.908 52.4348 578.118 52.2379 581.094 51.9753 588.907 50.8154 593.218 50.1589 599.368 49.2178 601.994 48.9333 609.128 48.5613 613.702 48.8239 614.205 48.5175 614.555 44.9942 615.19 40.7048 613.724 40.9237 611.645 40.2234 610.923 40.0264 609.719 39.5887 609.456 39.2605 609.041 38.7571 609.084 38.5821 609.828 37.9912 611.951 36.6562 613.877 38.0131 616.262 37.2033 616.81 37.0283 616.985 36.0654 617.203 34.9711 617.597 32.9578 617.751 32.5201 617.291 31.601 616.875 30.7475 616.766 30.1785 614.293 29.2156 611.601 28.1432 611.273 27.7493 611.579 26.9177 611.732 26.5238 612.411 26.48 614.731 26.6551 618.232 26.9177 618.298 26.8739 619.086 23.5256 620.224 18.6892 619.545 16.3476 617.006 16.26 615.803 16.0412 611.667 16.7415 611.382 15.4941 611.295 15.0564 611.579 14.7938 612.279 14.6187 614.49 13.6777 617.006 12.868 618.867 11.5768 621.011 10.023 622.806 10.0887 626.22 11.8613 631.078 14.3561 631.253 14.6625 629.612 17.0917 625.147 25.4733 621.843 37.1815 620.727 46.7449 619.983 50.881 624.863 51.4063 626.964 51.9534 629.021 52.4786 631.45 53.2883 632.391 52.9382 635.521 51.7564 634.448 55.9363 636.877 58.9782 638.869 61.4731 636.462 62.6548 634.864 63.1581 632.282 63.5739 630.334 64.0554 628.102 62.6767ZM552.098 72.5684C550.828 71.518 549.471 69.2858 548.793 68.2134 547.48 66.1563 546.823 60.2038 546.911 58.8469 547.02 57.14 547.655 55.1485 548.99 54.3606 549.909 53.8354 550.194 53.7041 551.244 55.2141 553.301 58.1685 555.949 60.5101 557.766 62.1952 560.348 64.515 560.304 65.9812 559.057 68.4104 558.335 70.0517 558.816 71.7368 557.459 72.3058 555.38 73.1812 553.214 73.2687 552.098 72.5684ZM352.316 47.5327C353.169 47.1388 354.373 46.1321 355.117 45.1692 356.299 43.6592 356.408 43.3091 356.255 41.8209 355.795 40.2671 355.073 37.7942 354.395 37.0283 353.454 35.9778 353.563 35.4526 348.398 36.5687 346.976 36.8751 345.86 37.0283 344.328 37.2252 343.277 37.3565 343.431 37.6629 343.431 39.6106 343.431 40.7486 343.299 42.4993 343.299 43.6373 343.321 45.6288 343.715 46.0227 346.1 47.2701 348.158 48.3425 350.28 48.43 352.316 47.5327ZM349.339 63.0268C351.265 62.2828 354.088 60.16 354.854 58.8688 355.358 58.0153 355.62 56.943 355.62 55.7831 355.62 54.2731 355.467 53.9011 354.701 53.3977 353.848 52.8506 353.235 52.6318 351.703 53.2227 350.806 53.5728 349.033 53.6822 347.479 53.9448 343.671 54.6014 343.277 55.3454 343.277 57.8403 343.277 59.5472 344.722 62.239 345.947 62.8299 347.304 63.5083 347.961 63.5521 349.339 63.0268ZM333.626 105.307C330.453 103.535 330.716 99.3548 330.76 95.5469 330.891 94.1245 331.022 88.6534 331.066 83.3793 331.132 74.166 332.335 63.2676 332.379 61.9764 332.554 56.746 332.773 52.5443 333.079 47.4671 333.692 42.3243 332.095 39.8295 329.25 35.9778 328.287 34.7523 328.571 33.6362 329.644 32.6295 332.685 31.4478 335.596 29.3469 338.288 31.207 339.995 32.4326 340.039 32.4544 341.483 33.4174 342.227 33.8988 343.234 35.0587 343.759 35.0587 346.188 34.7961 348.223 33.2423 350.215 32.2356 351.2 31.7104 352.338 31.0757 353.038 30.5286 355.182 28.8873 356.693 27.9025 357.108 27.9025 357.305 27.9025 358.334 28.4496 359.362 29.128 360.391 29.8064 361.398 30.4192 361.595 30.4849 363.017 31.032 364.702 32.4982 365.227 33.5924 365.753 34.6866 365.775 35.1243 365.424 36.1967 365.184 36.9188 364.593 39.8732 364.111 42.762 363.63 45.6507 363.039 48.8458 362.798 49.8306 362.557 50.881 362.404 54.5795 362.404 58.6937 362.426 66.397 362.142 67.9508 360.588 68.3228 360.085 68.4541 359.034 68.2353 358.071 67.7976 356.167 66.9441 353.694 66.7691 352.184 67.3818 350.237 67.907 348.442 68.5417 346.626 69.3952 343.584 70.8177 343.649 69.6359 343.737 74.0347 343.584 76.9453 343.453 81.2565 343.649 83.7294 344.525 93.9931 344.394 96.1597 344.284 96.9038 343.671 100.515 341.614 106.927 338.113 106.752 336.121 106.642 335.027 106.095 333.626 105.307ZM510.102 109.662C502.179 103.272 495.395 94.584 489.333 86.8589 486.401 83.1166 481.433 75.9605 478.698 73.4438 477.1 72.831 474.277 74.0128 472.636 75.9824 470.053 79.5933 467.668 83.5543 465.129 86.9464 463.182 89.5725 455.741 97.3196 452.721 99.6831 451.145 100.909 446.812 102.9 444.077 103.622 439.962 104.607 432.478 104.782 429.939 102.309 433.375 99.5299 438.584 97.9323 442.173 94.4746 446.878 90.054 452.043 85.5896 455.719 80.6656 457.36 78.1708 461.715 74.4286 461.869 72.2839 462.022 70.0298 458.148 69.0013 453.968 69.0013 452.196 68.9794 449.81 69.0231 449.066 68.8262 446.856 68.2791 444.558 66.4189 443.88 64.6682 440.4 58.1248 440.772 57.5776 447.994 58.2123 453.312 57.709 464.692 56.0239 469.134 53.8135 469.725 53.4415 470.447 51.7783 471.038 49.4586 471.454 44.7753 471.082 41.0988 470.994 36.7875 471.191 30.3098 466.814 26.9396 464.21 26.5894 464.21 26.4144 466.771 25.167 467.296 23.5038 468.324 20.2211 468.587 18.6454 471.913 18.9518 478.566 19.9366 479.223 20.0242 481.214 20.5713 484.081 21.3372 485.11 28.7998 484.957 31.4915 484.628 37.4441 484.322 41.4489 484.147 41.9741 483.884 42.7838 484.497 47.7297 485.022 48.1674 489.508 48.1455 493.798 45.9352 498.59 45.6726 501.414 45.016 505.922 47.8391 508.154 48.999 511.043 50.3996 510.78 50.0932 510.758 53.1132 510.736 55.7175 510.693 55.8488 509.423 57.1181 507.235 59.3065 505.856 59.5035 503.164 59.022 498.875 58.3874 495.045 57.7965 490.515 59.5253 488.283 60.4007 487.014 61.1667 486.642 61.867 483.753 64.9527 485.329 66.3314 486.948 68.4104 490.712 73.1374 492.988 75.2383 497.037 78.8273 503.536 84.6048 506.425 87.0777 512.881 91.1701 517.674 94.212 523.079 97.3852 528.419 100.952 529.294 101.631 529.973 102.331 530.104 102.747 526.996 105.351 522.598 105.833 520.497 106.817 517.083 108.393 514.522 109.093 511.349 110.034 510.868 110.166 510.43 110.034 510.102 109.662ZM388.731 58.3655C391.97 58.2342 393.918 59.7442 393.852 57.6871 393.786 55.7831 393.699 53.3102 393.546 51.2968 393.327 48.4519 392.145 49.568 391.073 49.4586 390.219 49.371 388.293 49.7431 386.783 49.8525 382.625 50.1151 381.072 50.4215 380.503 51.078 379.168 52.6099 379.321 57.2056 380.721 58.2123 381.487 58.6937 384.004 58.9126 388.731 58.3655ZM398.163 110.91C396.522 110.757 394.618 110.385 394.115 110.1 393.611 109.837 392.233 108.546 390.832 107.211 389.497 105.833 387.987 105.067 386.871 104.038 383.829 101.915 380.743 99.5518 378.446 97.0788 376.235 94.3433 377.942 94.7591 380.196 95.4375 380.94 95.9409 382.275 96.5317 383.173 96.7506 384.07 96.9694 385.952 97.5603 387.331 98.0417 388.731 98.3262 392.67 98.8734 394.465 99.0922 394.749 98.8077 394.706 96.1378 394.706 96.1378 394.924 92.2643 395.253 88.5658 395.275 85.3707 395.296 81.3878 395.209 76.5076 395.275 74.9976 395.625 67.2067 395.231 63.3989 390.219 64.3618 385.383 65.2809 383.763 66.6815 380.131 65.4341 378.621 64.9308 377.001 64.2742 376.52 63.9679 375.25 63.1363 373.806 59.9193 373.784 57.8184 373.74 53.8573 374.025 50.6403 373.565 46.5479 373.303 44.3376 373.084 42.565 372.449 40.5735 372.165 40.0702 371.924 38.8447 371.924 37.8161 371.924 36.3499 372.077 35.8027 372.756 35.19 374.003 34.0082 376.498 34.0958 378.183 35.3869 379.759 36.5906 380.262 37.8161 380.262 40.5298 380.262 41.6459 380.415 42.7838 380.59 43.0465 381.553 44.5565 387.09 43.7686 389.388 43.4841 392.058 43.134 391.817 41.9741 391.751 37.072 391.707 34.3803 391.467 31.6447 391.27 31.4259 391.073 31.2289 389.147 31.1633 386.805 31.5134 382.516 32.1262 381.969 31.8855 381.969 31.207 381.969 30.6599 385.383 29.2593 386.586 28.8216 390.219 26.9834 390.526 25.2545 395.296 23.8539 395.603 23.8101 397.419 24.7949 399.061 25.8892 400.702 26.9834 402.847 28.2308 403.831 28.6466 405.385 29.3031 405.735 29.6751 406.589 31.4478 406.589 31.4478 407.092 32.8484 407.092 33.7675 407.092 34.6866 406.436 36.8751 406.436 36.8751 405.67 42.8714 405.626 47.5109 405.626 51.8658 405.648 60.8165 405.867 68.9794 406.129 71.5836 406.436 80.972 406.501 90.3385 406.151 99.6831 406.326 102.659 405.757 105.461 404.663 107.824 403.459 110.406 403.109 110.647 401.774 111.019 401.577 111.019 399.783 111.063 398.163 110.91ZM582.013 118.547C579.278 115.549 578.074 114.543 576.214 112.507 574.814 110.975 572.975 107.737 571.203 104.695 574.573 106.62 580.11 109.115 584.705 109.75 589.498 109.991 590.833 103.382 591.183 99.0703 591.839 91.1482 591.621 90.5354 590.373 89.5287 588.01 87.3184 586.653 87.0121 581.247 88.916 577.462 90.2509 573.369 91.4108 569.78 93.271 568.533 93.9056 565.053 93.84 564.178 92.9865 560.611 89.5506 557.284 87.1652 557.284 86.7713 557.284 85.9835 558.86 85.1956 560.392 85.2175 564.747 85.2613 577.396 84.4297 579.541 83.9701 583.633 83.3793 587.813 83.2917 591.643 81.8911 592.912 81.4097 593.634 79.6152 593.35 77.6893 593.459 75.7635 592.802 75.107 591.292 74.6255 590.789 74.3192 590.745 73.7064 591.03 71.0584 591.249 68.9575 591.227 67.8414 590.964 67.5131 588.36 65.2809 584.902 69.4389 583.961 70.4894 582.779 71.8025 582.692 72.3058 581.094 72.0651 578.862 71.1897 574.551 68.4323 574.091 65.7843 574.201 65.4998 575.273 65.1277 576.564 64.9308 582.823 63.3113 586.587 62.2828 592.649 61.0573 594.181 60.7728 594.225 60.532 595.932 61.0573 598.361 61.8232 599.236 62.1077 600.528 63.3113 601.972 64.6463 601.819 65.6748 600.002 66.9004 597.267 68.7386 593.765 72.2839 594.028 72.9623 594.159 73.2906 595.341 74.0565 596.676 74.6474 599.346 75.8292 600.309 76.3763 600.243 78.1489 600.156 80.6875 600.768 80.1185 604.576 79.7246 609.653 79.0462 614.074 77.2298 619.282 78.4115 621.668 80.3592 622.084 83.1823 623.769 85.5458 624.71 86.8589 624.316 87.9531 622.828 88.1938 617.225 89.0254 612.63 87.8218 607.268 87.2309 605.517 87.0339 604.423 87.0996 602.76 88.347 601.6 89.2005 600.965 90.0321 600.725 90.7762 600.134 92.6801 599.499 97.3414 599.346 101.324 599.236 104.082 598.93 106.095 598.624 108.109 598.142 111.347 595.997 115.484 593.459 118.132 591.796 119.663 589.016 121.721 587.113 121.786 585.34 121.808 585.23 121.742 582.013 118.547ZM278.347 66.2876C281.104 66.4627 281.542 66.0688 281.783 65.828 282.57 65.0402 282.176 63.1363 282.176 60.9259 282.176 59.963 281.739 58.825 281.607 58.081 281.476 57.3588 281.104 55.8926 280.82 55.6518 280.032 54.9953 271.409 54.6233 268.871 54.7327 266.529 54.7765 266.704 55.1266 266.682 56.3959 266.682 57.9278 266.442 58.1685 268.739 58.2561L272.547 58.2779C278.456 58.3217 279.813 58.3655 279.813 59.9193 279.813 61.5825 277.909 62.2828 272.482 63.1581 268.367 63.8147 267.623 63.6615 267.711 65.6967 267.777 67.0098 268.608 67.4037 272.088 66.9879 274.276 66.7909 276.136 66.397 278.347 66.2876ZM274.014 75.6979C280.754 73.8815 280.841 73.9909 280.973 72.5027 281.214 69.9642 280.469 69.7891 277.559 70.3362 276.268 70.5769 274.517 71.1897 273.226 71.5617 272.35 71.8243 271.081 72.4809 270.556 72.5903 268.346 73.0499 266.573 74.7568 268.63 76.42 269.199 76.8577 269.877 76.814 274.014 75.6979ZM276.727 96.9257C279.047 95.3937 279.857 94.5403 280.579 92.8771 282.242 89.0254 280.754 86.6838 276.268 86.0929 274.823 85.896 274.189 86.0054 273.313 86.5087 271.891 87.581 271.037 89.2661 270.009 90.3822 268.805 91.6953 267.842 92.9865 267.842 93.271 267.842 94.1463 273.269 97.8886 274.561 97.9104 274.955 97.8667 275.939 97.4509 276.727 96.9257ZM208.098 119.62C211.096 114.433 213.897 108.634 216.633 103.907 220.638 96.6412 224.117 89.1567 227.094 82.3288 231.821 70.5988 235.585 60.2694 238.605 49.4367 239.217 47.2482 239.239 45.7601 239.13 45.5413 238.495 44.4033 238.736 40.5298 239.633 36.8532L240.399 33.68 241.581 33.68C242.96 33.68 243.135 33.8332 245.433 37.0502 247.774 40.3547 248.409 40.6173 252.654 40.1796 260.905 39.4137 268.105 36.7657 276.071 34.4897 280.185 33.3736 283.665 30.4411 288.151 30.3754 291.937 30.4192 293.053 30.7475 294.65 32.2575 296.489 34.0301 296.795 35.0806 295.898 36.6125 294.65 38.7352 293.009 39.2605 287.254 39.3042 280.951 39.3699 280.404 39.5887 278.369 43.0246 276.355 46.0008 276.508 45.979 278.281 49.0865L282.395 49.0865C286.356 49.0865 286.597 49.1303 289.048 50.3558 292.024 51.844 292.265 52.3254 290.886 55.6518 289.792 58.3436 289.967 65.9812 290.624 68.8262 291.127 70.9927 290.668 73.2468 289.354 75.107 288.479 76.3544 287.888 76.7264 285.503 77.5799 281.673 78.9149 277.427 81.2784 277.427 82.0881 277.427 83.051 280.601 84.1452 284.19 84.4297 287.057 84.6485 287.407 84.758 288.26 85.7428 289.42 87.0558 291.39 90.6886 291.39 91.4983 291.39 92.3299 290.099 94.8685 288.785 96.8162 288.02 97.9323 287.297 99.1141 286.05 100.296 283.971 102.331 285.984 102.747 289.551 104.738 291.105 105.657 292.615 106.423 296.948 107.999 300.034 109.115 303.12 109.991 304.827 110.538 308.372 111.698 311.961 111.916 314.937 113.886L315.725 114.63 314.893 115.527C310.735 118.657 306.512 119.467 302.31 121.152 300.056 121.918 298.283 121.961 295.898 122.158L292.659 119.423C288.063 115.877 283.949 113.033 280.71 110.603 279.047 109.531 277.143 107.43 275.195 107.386 273.598 107.386 268.915 110.385 266.442 112.091 264.844 113.186 264.012 113.58 262.262 114.346 259.329 115.527 256.616 116.665 253.092 117.037 251.232 116.884 250.947 115.746 252.458 114.586 253.026 114.149 254.383 113.098 255.478 112.245 256.572 111.391 258.826 109.772 260.467 108.634 264.647 105.789 266.814 104.126 266.463 102.331 266.223 101.127 266.223 101.062 265.194 99.5518 263.728 97.3852 263.137 96.9913 261.824 97.3196 260.839 97.5603 260.467 97.8886 257.36 101.237 255.521 103.228 251.276 105.789 249.262 106.095 247.949 106.314 247.84 106.27 247.84 105.461 247.84 104.979 248.453 103.819 249.197 102.9 249.941 101.959 251.538 99.8581 252.742 98.2168 253.946 96.5755 255.609 94.4308 256.44 93.446 258.892 90.5573 258.892 88.8503 256.44 88.8503 255.062 88.8503 251.626 86.268 251.32 85.0206 250.904 83.3355 251.385 82.7227 254.558 81.2127 256.222 80.403 257.688 79.462 257.841 79.1337 257.972 78.7835 258.147 73.1593 258.213 66.6159 258.344 53.2227 258.279 53.5728 261.102 52.1284 263.115 51.0999 267.186 47.1826 267.995 45.4756 268.63 44.2939 268.258 42.4775 266.77 42.4118 264.297 42.6307 252.851 47.489 252.654 48.233 250.182 53.7041 246.396 64.9745 243.769 74.2973 241.143 83.62 239.283 90.8199 233.549 100.383 230.661 105.176 229.304 107.649 225.846 112.923 223.767 116.096 218.362 121.173 216.348 122.158 214.335 123.121 211.84 124.084 209.52 124.303 204.531 124.784 205.713 123.471 208.098 119.62Z" fill="#122E66" fill-rule="nonzero" fill-opacity="1" transform="matrix(1 0 0 1.00249 275 389.478)"/><path d="M221.776 154.109 228.56 164.198C229.676 165.861 230.486 166.89 230.967 167.24 231.449 167.59 232.018 167.809 232.674 167.875L232.674 168.553 220.66 168.553 220.66 167.875C221.622 167.809 222.235 167.656 222.52 167.437 222.804 167.218 222.936 166.955 222.936 166.627 222.936 166.408 222.892 166.211 222.804 166.036 222.629 165.664 222.213 164.986 221.535 164.001L217.946 158.683 214.182 163.279C213.066 164.68 212.497 165.621 212.497 166.102 212.497 166.452 212.65 166.78 212.934 167.087 213.219 167.393 213.657 167.612 214.226 167.743 214.488 167.809 214.992 167.853 215.779 167.853L215.779 168.531 206.325 168.531 206.325 167.853C207.398 167.7 208.251 167.415 208.864 166.977 209.674 166.43 210.812 165.248 212.256 163.498L217.136 157.545 210.877 148.332C209.849 146.822 209.258 145.968 209.105 145.815 208.776 145.421 208.448 145.137 208.142 144.962 207.835 144.787 207.398 144.655 206.829 144.59L206.829 143.911 219.062 143.911 219.062 144.59 218.449 144.59C217.749 144.59 217.246 144.699 216.983 144.918 216.699 145.137 216.567 145.421 216.567 145.771 216.567 146.034 216.611 146.275 216.699 146.472L217.946 148.354 220.988 152.993 223.592 149.82C224.927 148.179 225.584 147.041 225.584 146.384 225.584 146.056 225.496 145.75 225.299 145.465 225.102 145.181 224.84 144.962 224.489 144.809 224.139 144.655 223.592 144.568 222.848 144.568L222.848 143.889 231.908 143.889 231.908 144.568C231.186 144.59 230.617 144.677 230.179 144.83 229.742 144.984 229.282 145.29 228.779 145.75 228.472 146.034 227.684 146.953 226.415 148.463L221.776 154.109Z" fill="#122E66" fill-rule="nonzero" fill-opacity="1" transform="matrix(1 0 0 1.00249 275 389.478)"/><path d="M248.409 167.875 248.409 168.553 235.519 168.553 235.519 167.875 236.329 167.875C237.051 167.875 237.62 167.743 238.058 167.503 238.364 167.327 238.605 167.043 238.78 166.627 238.911 166.343 238.977 165.577 238.977 164.329L238.977 148.135C238.977 146.866 238.911 146.078 238.78 145.771 238.648 145.465 238.386 145.181 237.97 144.94 237.554 144.699 237.007 144.59 236.329 144.59L235.519 144.59 235.519 143.911 248.409 143.911 248.409 144.59 247.599 144.59C246.877 144.59 246.308 144.721 245.87 144.962 245.564 145.137 245.301 145.421 245.126 145.837 244.995 146.122 244.929 146.888 244.929 148.135L244.929 164.329C244.929 165.599 244.995 166.386 245.148 166.693 245.279 166.999 245.564 167.284 245.958 167.524 246.374 167.765 246.921 167.875 247.599 167.875L248.409 167.875Z" fill="#122E66" fill-rule="nonzero" fill-opacity="1" transform="matrix(1 0 0 1.00249 275 389.478)"/><path d="M266.595 161.528 257.885 161.528 256.856 163.935C256.528 164.745 256.353 165.402 256.353 165.905 256.353 166.605 256.637 167.109 257.185 167.437 257.513 167.634 258.323 167.765 259.592 167.875L259.592 168.553 251.407 168.553 251.407 167.875C252.282 167.743 253.026 167.371 253.596 166.78 254.164 166.19 254.865 164.942 255.696 163.06L264.516 143.408 264.866 143.408 273.751 163.607C274.604 165.511 275.305 166.715 275.83 167.218 276.246 167.59 276.815 167.809 277.581 167.875L277.581 168.553 265.654 168.553 265.654 167.875 266.135 167.875C267.098 167.875 267.755 167.743 268.149 167.481 268.411 167.284 268.542 166.999 268.542 166.649 268.542 166.43 268.499 166.211 268.433 165.971 268.411 165.861 268.236 165.402 267.886 164.614L266.595 161.528ZM265.982 160.193 262.305 151.702 258.519 160.193 265.982 160.193Z" fill="#122E66" fill-rule="nonzero" fill-opacity="1" transform="matrix(1 0 0 1.00249 275 389.478)"/><path d="M297.583 160.149 304.258 143.911 314.281 143.911 314.281 144.59 313.471 144.59C312.749 144.59 312.158 144.721 311.72 144.962 311.414 145.137 311.173 145.421 310.998 145.815 310.867 146.1 310.801 146.866 310.801 148.091L310.801 164.329C310.801 165.599 310.867 166.386 310.998 166.693 311.129 166.999 311.414 167.284 311.808 167.524 312.224 167.765 312.771 167.875 313.471 167.875L314.281 167.875 314.281 168.553 301.413 168.553 301.413 167.875 302.222 167.875C302.945 167.875 303.535 167.743 303.973 167.503 304.28 167.327 304.52 167.043 304.695 166.627 304.827 166.343 304.892 165.577 304.892 164.329L304.892 146.078 295.438 168.553 295.001 168.553 285.415 146.253 285.415 163.607C285.415 164.811 285.437 165.555 285.503 165.839 285.656 166.452 286.006 166.934 286.531 167.327 287.057 167.7 287.888 167.896 289.004 167.896L289.004 168.575 280.579 168.575 280.579 167.896 280.841 167.896C281.389 167.918 281.892 167.831 282.373 167.634 282.855 167.437 283.205 167.196 283.446 166.89 283.686 166.583 283.883 166.124 284.015 165.555 284.037 165.424 284.058 164.811 284.058 163.695L284.058 148.113C284.058 146.866 283.993 146.078 283.862 145.771 283.73 145.465 283.446 145.181 283.052 144.962 282.636 144.721 282.089 144.612 281.389 144.612L280.601 144.612 280.601 143.933 290.668 143.933 297.583 160.149Z" fill="#122E66" fill-rule="nonzero" fill-opacity="1" transform="matrix(1 0 0 1.00249 275 389.478)"/><path d="M326.974 145.334 326.974 155.357 327.455 155.357C329.009 155.357 330.147 154.875 330.847 153.891 331.547 152.906 332.007 151.461 332.182 149.557L332.882 149.557 332.882 162.447 332.182 162.447C332.029 161.047 331.723 159.887 331.263 158.99 330.803 158.092 330.256 157.501 329.644 157.173 329.031 156.867 328.133 156.714 326.952 156.714L326.952 163.651C326.952 165.008 327.017 165.839 327.127 166.146 327.236 166.452 327.455 166.693 327.761 166.89 328.068 167.087 328.593 167.174 329.293 167.174L330.76 167.174C333.057 167.174 334.896 166.649 336.296 165.577 337.675 164.504 338.682 162.885 339.294 160.718L339.973 160.718 338.857 168.553 317.563 168.553 317.563 167.875 318.373 167.875C319.095 167.875 319.664 167.743 320.102 167.503 320.408 167.327 320.649 167.043 320.824 166.627 320.955 166.343 321.021 165.577 321.021 164.329L321.021 148.135C321.021 147.019 320.999 146.34 320.934 146.078 320.802 145.662 320.583 145.334 320.255 145.093 319.796 144.765 319.161 144.59 318.373 144.59L317.563 144.59 317.563 143.911 338.178 143.911 338.178 151.199 337.478 151.199C337.128 149.426 336.625 148.135 335.99 147.369 335.355 146.603 334.458 146.034 333.298 145.662 332.62 145.443 331.35 145.334 329.49 145.334L326.974 145.334Z" fill="#122E66" fill-rule="nonzero" fill-opacity="1" transform="matrix(1 0 0 1.00249 275 389.478)"/><path d="M352.753 143.911 364.899 159.187 364.899 148.595C364.899 147.106 364.68 146.122 364.264 145.596 363.674 144.896 362.711 144.546 361.332 144.59L361.332 143.911 369.473 143.911 369.473 144.59C368.423 144.721 367.722 144.896 367.372 145.115 367.022 145.334 366.737 145.662 366.54 146.143 366.344 146.625 366.234 147.435 366.234 148.595L366.234 169.1 365.621 169.1 348.967 148.595 348.967 164.264C348.967 165.686 349.296 166.627 349.93 167.131 350.587 167.634 351.309 167.875 352.162 167.875L352.753 167.875 352.753 168.553 344.021 168.553 344.021 167.875C345.378 167.853 346.319 167.59 346.845 167.043 347.37 166.496 347.654 165.577 347.654 164.264L347.654 146.888 347.129 146.231C346.604 145.574 346.144 145.137 345.75 144.94 345.356 144.743 344.766 144.612 344.021 144.59L344.021 143.911 352.753 143.911Z" fill="#122E66" fill-rule="nonzero" fill-opacity="1" transform="matrix(1 0 0 1.00249 275 389.478)"/><path d="M389.388 143.911 402.102 143.911 402.102 144.59 401.468 144.59C400.505 144.59 399.848 144.699 399.498 144.896 399.148 145.093 398.885 145.378 398.732 145.728 398.579 146.078 398.513 146.953 398.513 148.354L398.513 160.412C398.513 162.622 398.689 164.067 399.017 164.789 399.345 165.511 399.892 166.102 400.658 166.562 401.424 167.021 402.387 167.262 403.547 167.262 404.882 167.262 406.02 166.955 406.961 166.365 407.902 165.774 408.602 164.942 409.062 163.892 409.521 162.841 409.762 161.003 409.762 158.377L409.762 148.332C409.762 147.238 409.653 146.45 409.412 145.968 409.171 145.487 408.887 145.159 408.536 144.984 407.989 144.699 407.223 144.568 406.239 144.568L406.239 143.889 414.752 143.889 414.752 144.568 414.248 144.568C413.548 144.568 412.979 144.699 412.519 144.984 412.06 145.268 411.732 145.684 411.513 146.231 411.36 146.625 411.272 147.325 411.272 148.31L411.272 157.655C411.272 160.543 411.075 162.644 410.703 163.914 410.331 165.205 409.39 166.386 407.924 167.459 406.436 168.531 404.422 169.078 401.884 169.078 399.761 169.078 398.098 168.794 396.938 168.225 395.362 167.459 394.224 166.452 393.568 165.248 392.911 164.045 392.583 162.404 392.583 160.368L392.583 148.31C392.583 146.888 392.495 146.012 392.342 145.662 392.189 145.312 391.904 145.049 391.532 144.83 391.138 144.633 390.438 144.524 389.388 144.546L389.388 143.911Z" fill="#122E66" fill-rule="nonzero" fill-opacity="1" transform="matrix(1 0 0 1.00249 275 389.478)"/><path d="M426.504 143.911 438.649 159.187 438.649 148.595C438.649 147.106 438.43 146.122 438.015 145.596 437.424 144.896 436.461 144.546 435.082 144.59L435.082 143.911 443.223 143.911 443.223 144.59C442.173 144.721 441.472 144.896 441.122 145.115 440.772 145.334 440.488 145.662 440.291 146.143 440.094 146.625 439.984 147.435 439.984 148.595L439.984 169.1 439.371 169.1 422.717 148.595 422.717 164.264C422.717 165.686 423.046 166.627 423.68 167.131 424.337 167.634 425.059 167.875 425.913 167.875L426.504 167.875 426.504 168.553 417.772 168.553 417.772 167.875C419.128 167.853 420.07 167.59 420.595 167.043 421.12 166.496 421.404 165.577 421.404 164.264L421.404 146.888 420.879 146.231C420.354 145.574 419.894 145.137 419.501 144.94 419.107 144.743 418.516 144.612 417.772 144.59L417.772 143.911 426.504 143.911Z" fill="#122E66" fill-rule="nonzero" fill-opacity="1" transform="matrix(1 0 0 1.00249 275 389.478)"/><path d="M459.593 167.875 459.593 168.553 446.703 168.553 446.703 167.875 447.512 167.875C448.235 167.875 448.804 167.743 449.241 167.503 449.548 167.327 449.788 167.043 449.964 166.627 450.095 166.343 450.16 165.577 450.16 164.329L450.16 148.135C450.16 146.866 450.095 146.078 449.964 145.771 449.832 145.465 449.57 145.181 449.154 144.94 448.738 144.699 448.191 144.59 447.512 144.59L446.703 144.59 446.703 143.911 459.593 143.911 459.593 144.59 458.783 144.59C458.061 144.59 457.492 144.721 457.054 144.962 456.748 145.137 456.485 145.421 456.31 145.837 456.179 146.122 456.113 146.888 456.113 148.135L456.113 164.329C456.113 165.599 456.179 166.386 456.332 166.693 456.463 166.999 456.748 167.284 457.142 167.524 457.557 167.765 458.104 167.875 458.783 167.875L459.593 167.875Z" fill="#122E66" fill-rule="nonzero" fill-opacity="1" transform="matrix(1 0 0 1.00249 275 389.478)"/><path d="M488.786 143.911 488.786 144.59C487.889 144.743 487.101 145.224 486.379 146.034 485.876 146.647 485.11 148.069 484.103 150.301L475.612 169.122 475.021 169.122 466.574 149.536C465.567 147.172 464.867 145.793 464.538 145.378 464.188 144.962 463.532 144.699 462.591 144.59L462.591 143.911 474.408 143.911 474.408 144.59 474.014 144.59C472.942 144.59 472.22 144.721 471.826 144.984 471.541 145.159 471.41 145.421 471.41 145.793 471.41 146.012 471.454 146.275 471.563 146.559 471.651 146.866 471.979 147.654 472.548 148.945L477.8 161.2 482.659 150.28C483.25 148.967 483.6 148.069 483.731 147.632 483.862 147.194 483.928 146.8 483.928 146.494 483.928 146.122 483.84 145.815 483.643 145.531 483.447 145.246 483.162 145.049 482.79 144.896 482.265 144.699 481.586 144.59 480.711 144.59L480.711 143.911 488.786 143.911Z" fill="#122E66" fill-rule="nonzero" fill-opacity="1" transform="matrix(1 0 0 1.00249 275 389.478)"/><path d="M501.173 145.334 501.173 155.357 501.654 155.357C503.208 155.357 504.346 154.875 505.046 153.891 505.747 152.906 506.206 151.461 506.381 149.557L507.082 149.557 507.082 162.447 506.381 162.447C506.228 161.047 505.922 159.887 505.462 158.99 505.003 158.092 504.455 157.501 503.843 157.173 503.23 156.867 502.333 156.714 501.151 156.714L501.151 163.651C501.151 165.008 501.217 165.839 501.326 166.146 501.435 166.452 501.654 166.693 501.961 166.89 502.267 167.087 502.792 167.174 503.493 167.174L504.959 167.174C507.257 167.174 509.095 166.649 510.496 165.577 511.874 164.504 512.881 162.885 513.494 160.718L514.172 160.718 513.056 168.553 491.763 168.553 491.763 167.875 492.572 167.875C493.294 167.875 493.863 167.743 494.301 167.503 494.608 167.327 494.848 167.043 495.023 166.627 495.155 166.343 495.22 165.577 495.22 164.329L495.22 148.135C495.22 147.019 495.198 146.34 495.133 146.078 495.001 145.662 494.783 145.334 494.454 145.093 493.995 144.765 493.36 144.59 492.572 144.59L491.763 144.59 491.763 143.911 512.378 143.911 512.378 151.199 511.677 151.199C511.327 149.426 510.824 148.135 510.189 147.369 509.554 146.603 508.657 146.034 507.497 145.662 506.819 145.443 505.55 145.334 503.69 145.334L501.173 145.334Z" fill="#122E66" fill-rule="nonzero" fill-opacity="1" transform="matrix(1 0 0 1.00249 275 389.478)"/><path d="M527.587 157.326 527.587 164.22C527.587 165.555 527.675 166.386 527.828 166.737 527.981 167.087 528.287 167.349 528.681 167.568 529.097 167.765 529.863 167.875 530.979 167.875L530.979 168.553 518.374 168.553 518.374 167.875C519.512 167.875 520.278 167.765 520.694 167.546 521.109 167.327 521.394 167.065 521.547 166.715 521.7 166.386 521.788 165.533 521.788 164.198L521.788 148.222C521.788 146.888 521.7 146.056 521.547 145.706 521.394 145.356 521.088 145.093 520.694 144.874 520.278 144.677 519.512 144.568 518.396 144.568L518.396 143.889 529.841 143.889C532.818 143.889 535.006 144.086 536.385 144.502 537.763 144.918 538.901 145.684 539.755 146.778 540.63 147.894 541.068 149.185 541.068 150.674 541.068 152.49 540.411 154 539.098 155.182 538.267 155.926 537.085 156.495 535.597 156.867L541.527 165.205C542.293 166.277 542.862 166.955 543.191 167.218 543.694 167.59 544.263 167.809 544.92 167.831L544.92 168.509 537.173 168.509 529.229 157.283 527.587 157.283ZM527.587 145.246 527.587 156.035 528.616 156.035C530.301 156.035 531.548 155.882 532.402 155.576 533.233 155.269 533.89 154.7 534.371 153.912 534.853 153.103 535.094 152.052 535.094 150.761 535.094 148.879 534.656 147.5 533.78 146.603 532.905 145.706 531.483 145.268 529.535 145.268L527.587 145.268Z" fill="#122E66" fill-rule="nonzero" fill-opacity="1" transform="matrix(1 0 0 1.00249 275 389.478)"/><path d="M563.915 143.342 564.112 151.549 563.368 151.549C563.018 149.492 562.164 147.829 560.786 146.581 559.407 145.334 557.919 144.699 556.321 144.699 555.096 144.699 554.111 145.027 553.389 145.684 552.667 146.34 552.316 147.106 552.316 147.96 552.316 148.507 552.448 148.988 552.688 149.404 553.039 149.973 553.608 150.542 554.374 151.089 554.943 151.483 556.256 152.205 558.313 153.212 561.201 154.635 563.149 155.97 564.134 157.217 565.119 158.486 565.622 159.909 565.622 161.55 565.622 163.607 564.812 165.38 563.215 166.868 561.617 168.356 559.582 169.1 557.109 169.1 556.343 169.1 555.599 169.013 554.921 168.859 554.22 168.706 553.367 168.4 552.316 167.962 551.726 167.721 551.266 167.59 550.872 167.59 550.566 167.59 550.216 167.721 549.865 167.962 549.515 168.203 549.231 168.575 549.012 169.078L548.333 169.078 548.333 159.777 549.012 159.777C549.537 162.404 550.566 164.395 552.098 165.774 553.608 167.152 555.249 167.831 557.022 167.831 558.378 167.831 559.451 167.459 560.26 166.715 561.07 165.971 561.464 165.117 561.464 164.132 561.464 163.542 561.311 162.994 561.005 162.447 560.698 161.9 560.217 161.375 559.604 160.894 558.969 160.412 557.853 159.756 556.256 158.968 554.023 157.873 552.404 156.932 551.419 156.145 550.434 155.379 549.69 154.503 549.165 153.54 548.64 152.577 548.377 151.527 548.377 150.389 548.377 148.419 549.099 146.756 550.544 145.378 551.988 143.999 553.805 143.299 555.993 143.299 556.803 143.299 557.569 143.386 558.313 143.583 558.882 143.736 559.582 143.999 560.392 144.393 561.201 144.787 561.792 144.984 562.099 144.984 562.405 144.984 562.668 144.896 562.843 144.699 563.018 144.502 563.193 144.043 563.346 143.299L563.915 143.299Z" fill="#122E66" fill-rule="nonzero" fill-opacity="1" transform="matrix(1 0 0 1.00249 275 389.478)"/><path d="M582.626 167.875 582.626 168.553 569.736 168.553 569.736 167.875 570.546 167.875C571.268 167.875 571.837 167.743 572.275 167.503 572.581 167.327 572.822 167.043 572.997 166.627 573.128 166.343 573.194 165.577 573.194 164.329L573.194 148.135C573.194 146.866 573.128 146.078 572.997 145.771 572.866 145.465 572.603 145.181 572.187 144.94 571.772 144.699 571.224 144.59 570.546 144.59L569.736 144.59 569.736 143.911 582.626 143.911 582.626 144.59 581.817 144.59C581.094 144.59 580.525 144.721 580.088 144.962 579.781 145.137 579.519 145.421 579.344 145.837 579.212 146.122 579.147 146.888 579.147 148.135L579.147 164.329C579.147 165.599 579.212 166.386 579.365 166.693 579.497 166.999 579.781 167.284 580.175 167.524 580.591 167.765 581.138 167.875 581.817 167.875L582.626 167.875Z" fill="#122E66" fill-rule="nonzero" fill-opacity="1" transform="matrix(1 0 0 1.00249 275 389.478)"/><path d="M608.8 143.911 608.8 150.586 608.143 150.586C607.749 149.054 607.334 147.938 606.852 147.281 606.371 146.603 605.736 146.078 604.904 145.684 604.445 145.465 603.635 145.356 602.497 145.356L600.659 145.356 600.659 164.351C600.659 165.621 600.725 166.408 600.878 166.715 601.009 167.021 601.294 167.306 601.687 167.546 602.103 167.787 602.65 167.896 603.351 167.896L604.16 167.896 604.16 168.575 591.271 168.575 591.271 167.896 592.08 167.896C592.802 167.896 593.371 167.765 593.809 167.524 594.115 167.349 594.378 167.065 594.553 166.649 594.684 166.365 594.75 165.599 594.75 164.351L594.75 145.356 592.978 145.356C591.314 145.356 590.111 145.706 589.367 146.406 588.316 147.391 587.638 148.791 587.375 150.608L586.675 150.608 586.675 143.933 608.8 143.933Z" fill="#122E66" fill-rule="nonzero" fill-opacity="1" transform="matrix(1 0 0 1.00249 275 389.478)"/><path d="M638.453 143.911 638.453 144.59C637.643 144.699 637.009 144.94 636.593 145.29 635.98 145.793 635.039 147.194 633.726 149.448L628.386 158.377 628.386 164.329C628.386 165.599 628.452 166.386 628.583 166.693 628.715 166.999 628.977 167.284 629.371 167.503 629.765 167.743 630.29 167.853 630.947 167.853L632.326 167.853 632.326 168.531 618.495 168.531 618.495 167.853 619.786 167.853C620.508 167.853 621.077 167.721 621.515 167.481 621.821 167.306 622.084 167.021 622.259 166.605 622.39 166.321 622.456 165.555 622.456 164.307L622.456 159.362 616.656 148.813C615.496 146.734 614.687 145.509 614.227 145.137 613.746 144.765 613.133 144.568 612.345 144.568L612.345 143.889 624.163 143.889 624.163 144.568 623.637 144.568C622.915 144.568 622.434 144.677 622.149 144.874 621.865 145.071 621.712 145.29 621.712 145.531 621.712 145.968 622.193 147.063 623.156 148.813L627.599 156.976 632.041 149.536C633.135 147.719 633.704 146.516 633.704 145.925 633.704 145.596 633.551 145.334 633.223 145.115 632.807 144.809 632.063 144.633 630.947 144.568L630.947 143.889 638.453 143.889Z" fill="#122E66" fill-rule="nonzero" fill-opacity="1" transform="matrix(1 0 0 1.00249 275 389.478)"/></g></g></g></g></g></svg>