<svg viewBox="0 0 1024 1024" version="1.1" xmlns="http://www.w3.org/2000/svg" width="1024" height="1024">
<path d="M0 0 C4.10205475 0.07816529 8.20364022 0.05139871 12.30623078 0.03775907 C19.40363721 0.02834642 26.49805208 0.08453018 33.59470582 0.18604016 C43.85456672 0.33270042 54.11298979 0.37924188 64.37378523 0.40182401 C81.0226844 0.44116302 97.66999086 0.56079273 114.31802583 0.73127103 C130.48428623 0.89664313 146.65011314 1.02397931 162.81704926 1.10041165 C163.8145401 1.10514068 164.81203094 1.1098697 165.83974877 1.11474203 C170.84416231 1.1382337 175.8485789 1.16098021 180.85299754 1.18335629 C222.33154297 1.36978096 263.80833561 1.68665889 305.28531098 2.08918118 C307.70964214 11.02262489 310.025772 19.9609232 312.07510591 28.98932767 C312.32457978 30.07818769 312.57405366 31.1670477 312.83108735 32.28890347 C313.64524897 35.84543911 314.45557037 39.40283706 315.26577973 42.96027493 C315.8436317 45.48864996 316.42170535 48.01697432 316.99998689 50.54525113 C318.21106901 55.84264457 319.42048836 61.14041295 320.62832856 66.43854642 C321.84747068 71.78623461 323.06804908 77.13359161 324.29043794 82.48053861 C324.43954145 83.1327455 324.58864497 83.78495239 324.74226677 84.45692313 C325.04251727 85.77024674 325.34276982 87.08356988 325.64302444 88.39689255 C328.94111271 102.82394719 332.22889073 117.25333534 335.51064515 131.68411374 C336.26133405 134.98378983 337.0129692 138.28324898 337.76486421 141.58265042 C338.86547283 146.4135539 339.96278436 151.24519285 341.05703378 156.07754064 C341.44704465 157.79783406 341.83812197 159.5178861 342.23033929 161.23767781 C342.75732605 163.54956203 343.28031823 165.862312 343.80215669 168.17536283 C344.23586328 170.08727162 344.23586328 170.08727162 344.67833161 172.03780484 C345.28531098 175.08918118 345.28531098 175.08918118 345.28531098 178.08918118 C384.22531098 178.08918118 423.16531098 178.08918118 463.28531098 178.08918118 C463.28531098 198.54918118 463.28531098 219.00918118 463.28531098 240.08918118 C486.12673243 234.61599713 508.96659911 229.13754683 531.79560494 223.61288762 C534.6248609 222.9282762 537.4541821 222.24393506 540.28352571 221.55968595 C541.69928124 221.21729115 541.69928124 221.21729115 543.1436379 220.86797929 C545.06028154 220.4044489 546.97692724 219.94092697 548.89357495 219.47741342 C553.59776822 218.33960664 558.30176191 217.20098719 563.0053122 216.06052518 C588.39492787 209.90475488 613.81592963 203.90643992 639.28531098 198.08918118 C638.48531844 201.68515002 637.17116467 204.02120286 635.06656098 207.06964993 C634.39028657 208.05602445 633.71401216 209.04239896 633.01724458 210.05866361 C632.28070649 211.12060941 631.54416841 212.18255521 630.78531098 213.27668118 C630.01597217 214.39515052 629.24726494 215.51405452 628.47915864 216.63337064 C626.8808423 218.96147184 625.27981252 221.28767121 623.67691255 223.61261868 C619.97823191 228.9825993 616.32181252 234.38131862 612.66031098 239.77668118 C604.27005152 252.1190276 595.86156019 264.4489181 587.45132661 276.77765775 C579.50229708 288.43088435 571.56150773 300.08964886 563.63272309 311.75666165 C559.55105642 317.76160481 555.46590952 323.76406905 551.36148286 329.75348783 C550.11390472 331.58534409 548.87668567 333.42430343 547.65054536 335.27057767 C544.25018726 340.36972426 540.72002234 345.11299682 536.61270356 349.66779447 C531.69330086 355.92361783 531.69330086 355.92361783 530.62770295 363.45890164 C531.57058119 366.05223307 532.69435627 368.45002473 533.94546723 370.90949368 C534.3727562 371.82055371 534.80004518 372.73161374 535.2402823 373.67028165 C536.12985266 375.56382767 537.03339335 377.45087014 537.95041108 379.33127713 C539.57711858 382.69205586 541.09858382 386.09319761 542.61355805 389.50541043 C544.07450945 392.7913058 545.56568346 396.06317048 547.05526948 399.33615994 C548.69170323 402.93201116 550.32305669 406.53016074 551.95474458 410.12816739 C552.8028278 411.99823362 553.65113516 413.86819823 554.49966645 415.73806119 C558.90615626 425.45044865 563.28582246 435.17484694 567.66031098 444.90168118 C568.03702943 445.73913877 568.41374787 446.57659635 568.80188203 447.43943143 C573.98587067 458.96422879 579.15907356 470.49382318 584.32510591 482.02668118 C590.78676893 496.44786985 597.27667708 510.8563534 603.76385713 525.26607633 C606.10514779 530.46685707 608.44569176 535.66797285 610.78535676 540.86948514 C611.55757414 542.58622121 612.32988222 544.30291649 613.10228181 546.01957059 C614.99508846 550.22644856 616.88671941 554.43384655 618.7757895 558.64240384 C622.32685932 566.54895083 625.90017398 574.44386274 629.52749848 582.31574368 C630.51079824 584.45869135 631.49335811 586.60197646 632.4756186 588.74540067 C633.3848662 590.7213844 634.30412804 592.69249039 635.22378755 594.66364408 C635.76229341 595.83918851 636.30079926 597.01473294 636.85562348 598.22589993 C637.32758149 599.24385648 637.7995395 600.26181302 638.28579926 601.31061673 C639.75468772 605.39401183 639.90590964 607.76119116 638.05459809 611.72272611 C637.47975678 612.66221097 636.90491548 613.60169583 636.31265473 614.56964993 C635.66788178 615.63804105 635.02310884 616.70643216 634.35879731 617.80719876 C633.83740678 618.65406751 633.83740678 618.65406751 633.3054831 619.51804471 C631.82811538 621.91780426 630.37464268 624.33172709 628.91957307 626.74504972 C628.16425793 627.9973056 627.40770225 629.24881401 626.64995027 630.49959683 C622.87001106 636.74584565 619.22692853 643.06657992 615.59781098 649.40168118 C610.56602162 658.15813187 605.48039134 666.87927396 600.330477 675.56672025 C595.87618112 683.081872 591.45100215 690.61381314 587.03531098 698.15168118 C586.67777741 698.7619415 586.32024384 699.37220181 585.95187593 700.00095487 C584.12594677 703.1176341 582.30027993 706.23446687 580.47476411 709.35138822 C578.32391024 713.02359233 576.17198648 716.69516855 574.01968598 720.36652493 C573.49516091 721.26125768 573.49516091 721.26125768 572.96003938 722.17406583 C571.54838847 724.58199191 570.1366874 726.98988857 568.7249167 729.39774442 C565.17235016 735.45685138 561.62017313 741.51618173 558.07217622 747.57796597 C556.28950061 750.62363234 554.50627338 753.66897549 552.72281098 756.71418118 C552.1954535 757.61470716 552.1954535 757.61470716 551.65744233 758.53342557 C546.52246287 767.29962593 541.35074716 776.04317516 536.16031098 784.77668118 C530.26502012 794.69885354 524.46610622 804.6727726 518.71402192 814.67853665 C514.30588162 822.33997271 509.83778672 829.96329065 505.330477 837.56672025 C500.87617988 845.08187409 496.45128986 852.61398027 492.03531098 860.15168118 C491.31298939 861.38418979 490.59065863 862.61669303 489.8683188 863.84919095 C485.86511277 870.68071739 481.86665405 877.51500169 477.87167573 884.35134244 C475.05988367 889.16090901 472.23569876 893.96311183 469.40793061 898.76329923 C467.28724239 902.36836338 465.18942967 905.98572473 463.10663056 909.61280179 C462.07901327 911.39773206 461.04426485 913.17829722 460.00650239 914.95734525 C458.72251017 917.16020136 457.45068878 919.37021117 456.19302583 921.58820462 C455.62019868 922.56305814 455.04737153 923.53791165 454.45718598 924.54230618 C453.71613618 925.82862943 453.71613618 925.82862943 452.96011567 927.140939 C450.80146189 929.65202605 449.53213162 929.72180948 446.28531098 930.08918118 C444.07519746 929.66498685 444.07519746 929.66498685 441.81021333 928.88019681 C440.94658174 928.58756955 440.08295014 928.29494229 439.1931479 927.99344754 C438.26192109 927.66410214 437.33069428 927.33475675 436.37124848 926.99543118 C434.89392243 926.48896558 434.89392243 926.48896558 433.38675141 925.97226834 C430.14050197 924.85608913 426.90053393 923.72272394 423.66031098 922.58918118 C421.38218343 921.80218125 419.10369551 921.01622377 416.82486176 920.23127103 C409.9726949 917.86668761 403.12834311 915.48004838 396.28531098 913.08918118 C394.39732576 912.43055046 392.50930715 911.77201542 390.62124848 911.11359525 C383.73875369 908.7125207 376.85707551 906.30914937 369.97818208 903.89777493 C353.90757595 898.27110561 337.78053179 892.81412503 321.65063691 887.3602078 C305.54893455 881.91415741 289.47707241 876.39341455 273.43930268 870.76209378 C255.86782622 864.59662657 238.23299323 858.61974535 220.58566499 852.67557645 C208.16961423 848.49304876 195.76119847 844.30383223 183.43765473 839.85480618 C182.5551706 839.53758603 181.67268647 839.22036588 180.7634604 838.89353299 C176.76523572 837.454793 172.77366812 836.00140853 168.79165864 834.5183804 C167.42645945 834.02320542 166.06107537 833.52853974 164.69546723 833.03449368 C163.54183686 832.60668607 162.38820649 832.17887845 161.19961762 831.73810697 C158.37163973 830.84884279 158.37163973 830.84884279 156.02481294 831.82599759 C153.44627677 833.69846722 151.51858259 835.94938963 149.41031098 838.33918118 C142.60563899 845.92520843 135.36654217 853.06627796 128.11587739 860.22101712 C122.3406502 865.94240961 122.3406502 865.94240961 116.89859223 871.97589993 C111.37145378 878.43254679 105.15280534 884.27515076 99.11001801 890.24396634 C93.58930589 895.70313929 88.11449111 901.14212211 83.06949067 907.05158353 C79.10462668 911.57960144 74.87179167 915.85467323 70.66031098 920.15168118 C70.19495942 920.64015531 69.72960786 921.12862943 69.25015473 921.63190579 C67.88850733 923.06016582 66.50515282 924.46763238 65.12124848 925.87433743 C64.31220063 926.70844144 63.50315278 927.54254544 62.66958833 928.40192533 C60.28531098 930.08918118 60.28531098 930.08918118 57.79995942 930.00080228 C55.16844806 929.04681554 52.71391896 927.98115171 50.21499848 926.71808743 C49.24715425 926.23194974 48.27931001 925.74581204 47.28213716 925.2449429 C45.7368332 924.45627835 45.7368332 924.45627835 44.16031098 923.65168118 C42.53863008 922.83207913 42.53863008 922.83207913 40.88418794 921.99591947 C33.97706697 918.49364544 27.10758964 914.92419487 20.26724458 911.29352689 C11.97779061 906.90183651 3.63054567 902.62355862 -4.71468902 898.33918118 C-18.62118324 891.19809811 -32.50816236 884.02080311 -46.38265777 876.81769681 C-52.28233134 873.75719792 -58.18597885 870.70438369 -64.08968902 867.65168118 C-64.69323211 867.33959714 -65.2967752 867.02751309 -65.91860747 866.70597196 C-68.36035537 865.44339632 -70.80210822 864.18083024 -73.24389434 862.91832852 C-77.44042313 860.74844695 -81.63629039 858.57729118 -85.83187652 856.40558743 C-98.66082302 849.76565868 -111.49631436 843.13866276 -124.33968902 836.52668118 C-136.58775152 830.22109209 -148.82333069 823.89200123 -161.05062652 817.54621243 C-168.0604563 813.90852775 -175.07462174 810.27925073 -182.08968902 806.65168118 C-182.69172149 806.34035245 -183.29375396 806.02902371 -183.91402984 805.70826077 C-186.96179864 804.13219064 -190.00961702 802.55621641 -193.05746245 800.98029447 C-198.50667156 798.16265907 -203.95542029 795.34413362 -209.40420318 792.5256741 C-212.42434621 790.96347323 -215.44451913 789.40133013 -218.46468902 787.83918118 C-219.67302249 787.21418146 -220.88135583 786.58918146 -222.08968902 785.96418118 C-222.68781402 785.65480618 -223.28593902 785.34543118 -223.90218902 785.02668118 C-229.33968903 782.21418118 -229.33968903 782.21418118 -231.15182281 781.27686429 C-232.36136997 780.65124066 -233.57092402 780.02563033 -234.78048491 779.40003324 C-237.78280287 777.84718327 -240.78500477 776.29410981 -243.78695464 774.74054837 C-249.44507382 771.81267723 -255.10438639 768.88717766 -260.76754546 765.969064 C-263.44021723 764.59172445 -266.11226678 763.21318024 -268.78426909 761.83454251 C-270.05723318 761.17817795 -271.33050131 760.52240269 -272.60409331 759.86725736 C-274.37089614 758.958354 -276.13656592 758.04724915 -277.90218902 757.13605618 C-279.40845855 756.36020169 -279.40845855 756.36020169 -280.94515777 755.56867337 C-283.59044581 754.15555229 -286.15807151 752.65610261 -288.71468902 751.08918118 C-288.13986052 746.33949681 -286.71130891 742.39915127 -284.67953277 738.11261868 C-284.36969451 737.44299603 -284.05985625 736.77337338 -283.74062896 736.08345914 C-283.06956517 734.63470707 -282.39530765 733.18743093 -281.71819854 731.74149442 C-279.87351956 727.80071174 -278.05363513 723.84847265 -276.23031402 719.89777493 C-275.85267409 719.08113873 -275.47503417 718.26450253 -275.08595061 717.42311978 C-271.27183992 709.1622096 -267.57983856 700.84900886 -263.90218902 692.52668118 C-258.10922318 679.43618579 -252.2481643 666.37794283 -246.33968902 653.33918118 C-245.9464746 652.47134 -245.55326018 651.60349881 -245.14813018 650.70935941 C-244.35321397 648.95496461 -243.55829718 647.20057008 -242.76337981 645.44617581 C-242.36832747 644.57426602 -241.97327514 643.70235623 -241.56625152 642.80402493 C-241.17051436 641.93066495 -240.77477721 641.05730496 -240.36704803 640.15747952 C-236.20105081 630.96056671 -232.05109111 621.75644926 -227.90676665 612.54975247 C-227.12027642 610.80264966 -226.33353859 609.05565828 -225.54653716 607.30878568 C-224.45609346 604.88822484 -223.36650462 602.46728112 -222.27718902 600.04621243 C-221.80036178 598.98812123 -221.80036178 598.98812123 -221.31390166 597.90865445 C-220.72210265 596.5921916 -220.13554306 595.27335704 -219.55502105 593.9518826 C-218.72918538 592.1213142 -217.82975722 590.32452165 -216.92953277 588.52936673 C-214.41465303 581.40774889 -217.61228249 575.2880539 -220.40609527 568.71418118 C-220.78274825 567.80947583 -221.15940124 566.90477048 -221.54746795 565.97264981 C-222.78336063 563.00836324 -224.03033799 560.04887296 -225.27718902 557.08918118 C-226.14576338 555.01053625 -227.01342802 552.93151097 -227.88021636 550.85212064 C-229.64495218 546.61956186 -231.41294079 542.38838447 -233.18295074 538.15802884 C-236.4523162 530.33352315 -239.66679656 522.48684176 -242.87481475 514.63703275 C-248.6116507 500.60313201 -254.40015373 486.59104465 -260.21468902 472.58918118 C-266.0146574 458.62191037 -271.78738362 444.64379044 -277.52718902 430.65168118 C-278.03258208 429.42022367 -278.03258208 429.42022367 -278.54818511 428.16388822 C-278.87512359 427.36708646 -279.20206206 426.5702847 -279.53890777 425.74933743 C-279.85532226 424.97830686 -280.17173675 424.20727628 -280.49773955 423.41288114 C-281.10340972 421.93322315 -281.70702097 420.45272033 -282.30834746 418.97129178 C-283.53106798 415.95922202 -284.7695398 412.96501842 -286.08334136 409.99103665 C-286.64915923 408.69190335 -286.64915923 408.69190335 -287.22640777 407.36652493 C-287.54440337 406.66648343 -287.86239898 405.96644193 -288.19003081 405.24518704 C-289.13732218 401.35243224 -288.2711603 398.16773751 -286.46224761 394.66169095 C-285.67068267 393.48304471 -285.67068267 393.48304471 -284.86312652 392.28058743 C-283.96883941 390.930939 -283.96883941 390.930939 -283.05648589 389.55402493 C-282.40744292 388.5962515 -281.75839995 387.63847806 -281.08968902 386.65168118 C-279.71181484 384.58024618 -278.3342183 382.50862648 -276.95687652 380.43683743 C-276.250148 379.38125638 -275.54341949 378.32567533 -274.81527495 377.23810697 C-271.57521006 372.38102223 -268.39635257 367.48463122 -265.21468902 362.58918118 C-263.96241292 360.66839434 -262.70980786 358.74782192 -261.45687652 356.82746243 C-258.98250124 353.03346328 -256.50857488 349.23917196 -254.03500152 345.44464993 C-246.71726907 334.21999254 -239.38985009 323.00172393 -232.05550933 311.78791165 C-225.54744535 301.83623166 -219.05096212 291.87702863 -212.55746245 281.91584134 C-209.44387129 277.13985319 -206.32922178 272.36455533 -203.21468902 267.58918118 C-201.96468405 265.67251776 -200.71468405 263.75585109 -199.46468902 261.83918118 C-196.96468902 258.00584785 -194.46468902 254.17251452 -191.96468902 250.33918118 C-191.34610015 249.39067288 -190.72751128 248.44216458 -190.0901773 247.46491361 C-188.83856955 245.54579259 -187.5869419 243.62668454 -186.33529449 241.70758939 C-183.23473084 236.95357986 -180.1344989 232.19935472 -177.03500152 227.44464993 C-169.71726907 216.21999254 -162.38985009 205.00172393 -155.05550933 193.78791165 C-148.54744535 183.83623166 -142.05096212 173.87702863 -135.55746245 163.91584134 C-131.81743562 158.17895334 -128.07597885 152.44299778 -124.3348062 146.70685697 C-121.23441512 141.95308519 -118.13433867 137.19910893 -115.03500152 132.44464993 C-107.71726907 121.21999254 -100.38985009 110.00172393 -93.05550933 98.78791165 C-86.54744535 88.83623166 -80.05096212 78.87702863 -73.55746245 68.91584134 C-71.69610168 66.06066977 -69.83437357 63.20573811 -67.97250152 60.35089993 C-67.04232207 58.92463284 -67.04232207 58.92463284 -66.09335113 57.46955228 C-64.84426442 55.55444832 -63.59507875 53.6394089 -62.34579253 51.72443509 C-59.18079903 46.87257486 -56.01799679 42.01931037 -52.85922027 37.16339993 C-52.21726714 36.17726712 -51.57531402 35.19113431 -50.91390777 34.17511868 C-49.72169901 32.34360957 -48.53019902 30.51163872 -47.33968902 28.67902493 C-46.2014633 26.9311289 -45.03303432 25.20255481 -43.83626723 23.49420857 C-42.1562129 20.97216164 -40.99070529 18.43778933 -39.83532882 15.63949132 C-31.72160525 -1.98995366 -17.09002744 -0.40867337 0 0 Z " fill="currentColor" transform="translate(336.71468901634216,45.91081881523132)"/>
<path d="M0 0 C4.10205475 0.07816529 8.20364022 0.05139871 12.30623078 0.03775907 C19.40363721 0.02834642 26.49805208 0.08453018 33.59470582 0.18604016 C43.85456672 0.33270042 54.11298979 0.37924188 64.37378523 0.40182401 C81.0226844 0.44116302 97.66999086 0.56079273 114.31802583 0.73127103 C130.48428623 0.89664313 146.65011314 1.02397931 162.81704926 1.10041165 C163.8145401 1.10514068 164.81203094 1.1098697 165.83974877 1.11474203 C170.84416231 1.1382337 175.8485789 1.16098021 180.85299754 1.18335629 C222.33154297 1.36978096 263.80833561 1.68665889 305.28531098 2.08918118 C307.70964214 11.02262489 310.025772 19.9609232 312.07510591 28.98932767 C312.32457978 30.07818769 312.57405366 31.1670477 312.83108735 32.28890347 C313.64524897 35.84543911 314.45557037 39.40283706 315.26577973 42.96027493 C315.8436317 45.48864996 316.42170535 48.01697432 316.99998689 50.54525113 C318.21106901 55.84264457 319.42048836 61.14041295 320.62832856 66.43854642 C321.84747068 71.78623461 323.06804908 77.13359161 324.29043794 82.48053861 C324.43954145 83.1327455 324.58864497 83.78495239 324.74226677 84.45692313 C325.04251727 85.77024674 325.34276982 87.08356988 325.64302444 88.39689255 C328.94111271 102.82394719 332.22889073 117.25333534 335.51064515 131.68411374 C336.26133405 134.98378983 337.0129692 138.28324898 337.76486421 141.58265042 C338.86547283 146.4135539 339.96278436 151.24519285 341.05703378 156.07754064 C341.44704465 157.79783406 341.83812197 159.5178861 342.23033929 161.23767781 C342.75732605 163.54956203 343.28031823 165.862312 343.80215669 168.17536283 C344.23586328 170.08727162 344.23586328 170.08727162 344.67833161 172.03780484 C345.28531098 175.08918118 345.28531098 175.08918118 345.28531098 178.08918118 C194.14531098 178.08918118 43.00531098 178.08918118 -112.71468902 178.08918118 C-112.71468902 368.16918118 -112.71468902 558.24918118 -112.71468902 754.08918118 C77.36531098 754.08918118 267.44531098 754.08918118 463.28531098 754.08918118 C463.28531098 584.46918118 463.28531098 414.84918118 463.28531098 240.08918118 C479.78531098 236.12918118 496.28531098 232.16918118 513.28531098 228.08918118 C538.10377624 222.09114002 538.10377624 222.09114002 562.91934419 216.08112454 C588.33758367 209.91834334 613.78720118 203.91300156 639.28531098 198.08918118 C638.48531844 201.68515002 637.17116467 204.02120286 635.06656098 207.06964993 C634.39028657 208.05602445 633.71401216 209.04239896 633.01724458 210.05866361 C632.28070649 211.12060941 631.54416841 212.18255521 630.78531098 213.27668118 C630.01597217 214.39515052 629.24726494 215.51405452 628.47915864 216.63337064 C626.8808423 218.96147184 625.27981252 221.28767121 623.67691255 223.61261868 C619.97823191 228.9825993 616.32181252 234.38131862 612.66031098 239.77668118 C604.27005152 252.1190276 595.86156019 264.4489181 587.45132661 276.77765775 C579.50229708 288.43088435 571.56150773 300.08964886 563.63272309 311.75666165 C559.55105642 317.76160481 555.46590952 323.76406905 551.36148286 329.75348783 C550.11390472 331.58534409 548.87668567 333.42430343 547.65054536 335.27057767 C544.25018726 340.36972426 540.72002234 345.11299682 536.61270356 349.66779447 C531.69330086 355.92361783 531.69330086 355.92361783 530.62770295 363.45890164 C531.57058119 366.05223307 532.69435627 368.45002473 533.94546723 370.90949368 C534.3727562 371.82055371 534.80004518 372.73161374 535.2402823 373.67028165 C536.12985266 375.56382767 537.03339335 377.45087014 537.95041108 379.33127713 C539.57711858 382.69205586 541.09858382 386.09319761 542.61355805 389.50541043 C544.07450945 392.7913058 545.56568346 396.06317048 547.05526948 399.33615994 C548.69170323 402.93201116 550.32305669 406.53016074 551.95474458 410.12816739 C552.8028278 411.99823362 553.65113516 413.86819823 554.49966645 415.73806119 C558.90615626 425.45044865 563.28582246 435.17484694 567.66031098 444.90168118 C568.03702943 445.73913877 568.41374787 446.57659635 568.80188203 447.43943143 C573.98587067 458.96422879 579.15907356 470.49382318 584.32510591 482.02668118 C590.78676893 496.44786985 597.27667708 510.8563534 603.76385713 525.26607633 C606.10514779 530.46685707 608.44569176 535.66797285 610.78535676 540.86948514 C611.55757414 542.58622121 612.32988222 544.30291649 613.10228181 546.01957059 C614.99508846 550.22644856 616.88671941 554.43384655 618.7757895 558.64240384 C622.32685932 566.54895083 625.90017398 574.44386274 629.52749848 582.31574368 C630.51079824 584.45869135 631.49335811 586.60197646 632.4756186 588.74540067 C633.3848662 590.7213844 634.30412804 592.69249039 635.22378755 594.66364408 C635.76229341 595.83918851 636.30079926 597.01473294 636.85562348 598.22589993 C637.32758149 599.24385648 637.7995395 600.26181302 638.28579926 601.31061673 C639.75468772 605.39401183 639.90590964 607.76119116 638.05459809 611.72272611 C637.47975678 612.66221097 636.90491548 613.60169583 636.31265473 614.56964993 C635.66788178 615.63804105 635.02310884 616.70643216 634.35879731 617.80719876 C633.83740678 618.65406751 633.83740678 618.65406751 633.3054831 619.51804471 C631.82811538 621.91780426 630.37464268 624.33172709 628.91957307 626.74504972 C628.16425793 627.9973056 627.40770225 629.24881401 626.64995027 630.49959683 C622.87001106 636.74584565 619.22692853 643.06657992 615.59781098 649.40168118 C610.56602162 658.15813187 605.48039134 666.87927396 600.330477 675.56672025 C595.87618112 683.081872 591.45100215 690.61381314 587.03531098 698.15168118 C586.67777741 698.7619415 586.32024384 699.37220181 585.95187593 700.00095487 C584.12594677 703.1176341 582.30027993 706.23446687 580.47476411 709.35138822 C578.32391024 713.02359233 576.17198648 716.69516855 574.01968598 720.36652493 C573.49516091 721.26125768 573.49516091 721.26125768 572.96003938 722.17406583 C571.54838847 724.58199191 570.1366874 726.98988857 568.7249167 729.39774442 C565.17235016 735.45685138 561.62017313 741.51618173 558.07217622 747.57796597 C556.28950061 750.62363234 554.50627338 753.66897549 552.72281098 756.71418118 C552.1954535 757.61470716 552.1954535 757.61470716 551.65744233 758.53342557 C546.52246287 767.29962593 541.35074716 776.04317516 536.16031098 784.77668118 C530.26502012 794.69885354 524.46610622 804.6727726 518.71402192 814.67853665 C514.30588162 822.33997271 509.83778672 829.96329065 505.330477 837.56672025 C500.87617988 845.08187409 496.45128986 852.61398027 492.03531098 860.15168118 C491.31298939 861.38418979 490.59065863 862.61669303 489.8683188 863.84919095 C485.86511277 870.68071739 481.86665405 877.51500169 477.87167573 884.35134244 C475.05988367 889.16090901 472.23569876 893.96311183 469.40793061 898.76329923 C467.28724239 902.36836338 465.18942967 905.98572473 463.10663056 909.61280179 C462.07901327 911.39773206 461.04426485 913.17829722 460.00650239 914.95734525 C458.72251017 917.16020136 457.45068878 919.37021117 456.19302583 921.58820462 C455.62019868 922.56305814 455.04737153 923.53791165 454.45718598 924.54230618 C453.71613618 925.82862943 453.71613618 925.82862943 452.96011567 927.140939 C450.80146189 929.65202605 449.53213162 929.72180948 446.28531098 930.08918118 C444.07519746 929.66498685 444.07519746 929.66498685 441.81021333 928.88019681 C440.94658174 928.58756955 440.08295014 928.29494229 439.1931479 927.99344754 C438.26192109 927.66410214 437.33069428 927.33475675 436.37124848 926.99543118 C434.89392243 926.48896558 434.89392243 926.48896558 433.38675141 925.97226834 C430.14050197 924.85608913 426.90053393 923.72272394 423.66031098 922.58918118 C421.38218343 921.80218125 419.10369551 921.01622377 416.82486176 920.23127103 C409.9726949 917.86668761 403.12834311 915.48004838 396.28531098 913.08918118 C394.39732576 912.43055046 392.50930715 911.77201542 390.62124848 911.11359525 C383.73875369 908.7125207 376.85707551 906.30914937 369.97818208 903.89777493 C353.90757595 898.27110561 337.78053179 892.81412503 321.65063691 887.3602078 C305.54893455 881.91415741 289.47707241 876.39341455 273.43930268 870.76209378 C255.86782622 864.59662657 238.23299323 858.61974535 220.58566499 852.67557645 C208.16961423 848.49304876 195.76119847 844.30383223 183.43765473 839.85480618 C182.5551706 839.53758603 181.67268647 839.22036588 180.7634604 838.89353299 C176.76523572 837.454793 172.77366812 836.00140853 168.79165864 834.5183804 C167.42645945 834.02320542 166.06107537 833.52853974 164.69546723 833.03449368 C163.54183686 832.60668607 162.38820649 832.17887845 161.19961762 831.73810697 C158.37163973 830.84884279 158.37163973 830.84884279 156.02481294 831.82599759 C153.44627677 833.69846722 151.51858259 835.94938963 149.41031098 838.33918118 C142.60563899 845.92520843 135.36654217 853.06627796 128.11587739 860.22101712 C122.3406502 865.94240961 122.3406502 865.94240961 116.89859223 871.97589993 C111.37145378 878.43254679 105.15280534 884.27515076 99.11001801 890.24396634 C93.58930589 895.70313929 88.11449111 901.14212211 83.06949067 907.05158353 C79.10462668 911.57960144 74.87179167 915.85467323 70.66031098 920.15168118 C70.19495942 920.64015531 69.72960786 921.12862943 69.25015473 921.63190579 C67.88850733 923.06016582 66.50515282 924.46763238 65.12124848 925.87433743 C64.31220063 926.70844144 63.50315278 927.54254544 62.66958833 928.40192533 C60.28531098 930.08918118 60.28531098 930.08918118 57.79995942 930.00080228 C55.16844806 929.04681554 52.71391896 927.98115171 50.21499848 926.71808743 C49.24715425 926.23194974 48.27931001 925.74581204 47.28213716 925.2449429 C45.7368332 924.45627835 45.7368332 924.45627835 44.16031098 923.65168118 C42.53863008 922.83207913 42.53863008 922.83207913 40.88418794 921.99591947 C33.97706697 918.49364544 27.10758964 914.92419487 20.26724458 911.29352689 C11.97779061 906.90183651 3.63054567 902.62355862 -4.71468902 898.33918118 C-18.62118324 891.19809811 -32.50816236 884.02080311 -46.38265777 876.81769681 C-52.28233134 873.75719792 -58.18597885 870.70438369 -64.08968902 867.65168118 C-64.69323211 867.33959714 -65.2967752 867.02751309 -65.91860747 866.70597196 C-68.36035537 865.44339632 -70.80210822 864.18083024 -73.24389434 862.91832852 C-77.44042313 860.74844695 -81.63629039 858.57729118 -85.83187652 856.40558743 C-98.66082302 849.76565868 -111.49631436 843.13866276 -124.33968902 836.52668118 C-136.58775152 830.22109209 -148.82333069 823.89200123 -161.05062652 817.54621243 C-168.0604563 813.90852775 -175.07462174 810.27925073 -182.08968902 806.65168118 C-182.69172149 806.34035245 -183.29375396 806.02902371 -183.91402984 805.70826077 C-186.96179864 804.13219064 -190.00961702 802.55621641 -193.05746245 800.98029447 C-198.50667156 798.16265907 -203.95542029 795.34413362 -209.40420318 792.5256741 C-212.42434621 790.96347323 -215.44451913 789.40133013 -218.46468902 787.83918118 C-219.67302249 787.21418146 -220.88135583 786.58918146 -222.08968902 785.96418118 C-222.68781402 785.65480618 -223.28593902 785.34543118 -223.90218902 785.02668118 C-229.33968903 782.21418118 -229.33968903 782.21418118 -231.15182281 781.27686429 C-232.36136997 780.65124066 -233.57092402 780.02563033 -234.78048491 779.40003324 C-237.78280287 777.84718327 -240.78500477 776.29410981 -243.78695464 774.74054837 C-249.44507382 771.81267723 -255.10438639 768.88717766 -260.76754546 765.969064 C-263.44021723 764.59172445 -266.11226678 763.21318024 -268.78426909 761.83454251 C-270.05723318 761.17817795 -271.33050131 760.52240269 -272.60409331 759.86725736 C-274.37089614 758.958354 -276.13656592 758.04724915 -277.90218902 757.13605618 C-279.40845855 756.36020169 -279.40845855 756.36020169 -280.94515777 755.56867337 C-283.59044581 754.15555229 -286.15807151 752.65610261 -288.71468902 751.08918118 C-288.13986052 746.33949681 -286.71130891 742.39915127 -284.67953277 738.11261868 C-284.36969451 737.44299603 -284.05985625 736.77337338 -283.74062896 736.08345914 C-283.06956517 734.63470707 -282.39530765 733.18743093 -281.71819854 731.74149442 C-279.87351956 727.80071174 -278.05363513 723.84847265 -276.23031402 719.89777493 C-275.85267409 719.08113873 -275.47503417 718.26450253 -275.08595061 717.42311978 C-271.27183992 709.1622096 -267.57983856 700.84900886 -263.90218902 692.52668118 C-258.10922318 679.43618579 -252.2481643 666.37794283 -246.33968902 653.33918118 C-245.9464746 652.47134 -245.55326018 651.60349881 -245.14813018 650.70935941 C-244.35321397 648.95496461 -243.55829718 647.20057008 -242.76337981 645.44617581 C-242.36832747 644.57426602 -241.97327514 643.70235623 -241.56625152 642.80402493 C-241.17051436 641.93066495 -240.77477721 641.05730496 -240.36704803 640.15747952 C-236.20105081 630.96056671 -232.05109111 621.75644926 -227.90676665 612.54975247 C-227.12027642 610.80264966 -226.33353859 609.05565828 -225.54653716 607.30878568 C-224.45609346 604.88822484 -223.36650462 602.46728112 -222.27718902 600.04621243 C-221.80036178 598.98812123 -221.80036178 598.98812123 -221.31390166 597.90865445 C-220.72210265 596.5921916 -220.13554306 595.27335704 -219.55502105 593.9518826 C-218.72918538 592.1213142 -217.82975722 590.32452165 -216.92953277 588.52936673 C-214.41465303 581.40774889 -217.61228249 575.2880539 -220.40609527 568.71418118 C-220.78274825 567.80947583 -221.15940124 566.90477048 -221.54746795 565.97264981 C-222.78336063 563.00836324 -224.03033799 560.04887296 -225.27718902 557.08918118 C-226.14576338 555.01053625 -227.01342802 552.93151097 -227.88021636 550.85212064 C-229.64495218 546.61956186 -231.41294079 542.38838447 -233.18295074 538.15802884 C-236.4523162 530.33352315 -239.66679656 522.48684176 -242.87481475 514.63703275 C-248.6116507 500.60313201 -254.40015373 486.59104465 -260.21468902 472.58918118 C-266.0146574 458.62191037 -271.78738362 444.64379044 -277.52718902 430.65168118 C-278.03258208 429.42022367 -278.03258208 429.42022367 -278.54818511 428.16388822 C-278.87512359 427.36708646 -279.20206206 426.5702847 -279.53890777 425.74933743 C-279.85532226 424.97830686 -280.17173675 424.20727628 -280.49773955 423.41288114 C-281.10340972 421.93322315 -281.70702097 420.45272033 -282.30834746 418.97129178 C-283.53106798 415.95922202 -284.7695398 412.96501842 -286.08334136 409.99103665 C-286.64915923 408.69190335 -286.64915923 408.69190335 -287.22640777 407.36652493 C-287.54440337 406.66648343 -287.86239898 405.96644193 -288.19003081 405.24518704 C-289.13732218 401.35243224 -288.2711603 398.16773751 -286.46224761 394.66169095 C-285.67068267 393.48304471 -285.67068267 393.48304471 -284.86312652 392.28058743 C-283.96883941 390.930939 -283.96883941 390.930939 -283.05648589 389.55402493 C-282.40744292 388.5962515 -281.75839995 387.63847806 -281.08968902 386.65168118 C-279.71181484 384.58024618 -278.3342183 382.50862648 -276.95687652 380.43683743 C-276.250148 379.38125638 -275.54341949 378.32567533 -274.81527495 377.23810697 C-271.57521006 372.38102223 -268.39635257 367.48463122 -265.21468902 362.58918118 C-263.96241292 360.66839434 -262.70980786 358.74782192 -261.45687652 356.82746243 C-258.98250124 353.03346328 -256.50857488 349.23917196 -254.03500152 345.44464993 C-246.71726907 334.21999254 -239.38985009 323.00172393 -232.05550933 311.78791165 C-225.54744535 301.83623166 -219.05096212 291.87702863 -212.55746245 281.91584134 C-209.44387129 277.13985319 -206.32922178 272.36455533 -203.21468902 267.58918118 C-201.96468405 265.67251776 -200.71468405 263.75585109 -199.46468902 261.83918118 C-196.96468902 258.00584785 -194.46468902 254.17251452 -191.96468902 250.33918118 C-191.34610015 249.39067288 -190.72751128 248.44216458 -190.0901773 247.46491361 C-188.83856955 245.54579259 -187.5869419 243.62668454 -186.33529449 241.70758939 C-183.23473084 236.95357986 -180.1344989 232.19935472 -177.03500152 227.44464993 C-169.71726907 216.21999254 -162.38985009 205.00172393 -155.05550933 193.78791165 C-148.54744535 183.83623166 -142.05096212 173.87702863 -135.55746245 163.91584134 C-131.81743562 158.17895334 -128.07597885 152.44299778 -124.3348062 146.70685697 C-121.23441512 141.95308519 -118.13433867 137.19910893 -115.03500152 132.44464993 C-107.71726907 121.21999254 -100.38985009 110.00172393 -93.05550933 98.78791165 C-86.54744535 88.83623166 -80.05096212 78.87702863 -73.55746245 68.91584134 C-71.69610168 66.06066977 -69.83437357 63.20573811 -67.97250152 60.35089993 C-67.04232207 58.92463284 -67.04232207 58.92463284 -66.09335113 57.46955228 C-64.84426442 55.55444832 -63.59507875 53.6394089 -62.34579253 51.72443509 C-59.18079903 46.87257486 -56.01799679 42.01931037 -52.85922027 37.16339993 C-52.21726714 36.17726712 -51.57531402 35.19113431 -50.91390777 34.17511868 C-49.72169901 32.34360957 -48.53019902 30.51163872 -47.33968902 28.67902493 C-46.2014633 26.9311289 -45.03303432 25.20255481 -43.83626723 23.49420857 C-42.1562129 20.97216164 -40.99070529 18.43778933 -39.83532882 15.63949132 C-31.72160525 -1.98995366 -17.09002744 -0.40867337 0 0 Z " fill="#6552F8" transform="translate(336.71468901634216,45.91081881523132)"/>
<path d="M0 0 C4.10205475 0.07816529 8.20364022 0.05139871 12.30623078 0.03775907 C19.40363721 0.02834642 26.49805208 0.08453018 33.59470582 0.18604016 C43.85456672 0.33270042 54.11298979 0.37924188 64.37378523 0.40182401 C81.0226844 0.44116302 97.66999086 0.56079273 114.31802583 0.73127103 C130.48428623 0.89664313 146.65011314 1.02397931 162.81704926 1.10041165 C163.8145401 1.10514068 164.81203094 1.1098697 165.83974877 1.11474203 C170.84416231 1.1382337 175.8485789 1.16098021 180.85299754 1.18335629 C222.33154297 1.36978096 263.80833561 1.68665889 305.28531098 2.08918118 C307.70964214 11.02262489 310.025772 19.9609232 312.07510591 28.98932767 C312.32457978 30.07818769 312.57405366 31.1670477 312.83108735 32.28890347 C313.64524897 35.84543911 314.45557037 39.40283706 315.26577973 42.96027493 C315.8436317 45.48864996 316.42170535 48.01697432 316.99998689 50.54525113 C318.21106901 55.84264457 319.42048836 61.14041295 320.62832856 66.43854642 C321.84747068 71.78623461 323.06804908 77.13359161 324.29043794 82.48053861 C324.43954145 83.1327455 324.58864497 83.78495239 324.74226677 84.45692313 C325.04251727 85.77024674 325.34276982 87.08356988 325.64302444 88.39689255 C328.94111271 102.82394719 332.22889073 117.25333534 335.51064515 131.68411374 C336.26133405 134.98378983 337.0129692 138.28324898 337.76486421 141.58265042 C338.86547283 146.4135539 339.96278436 151.24519285 341.05703378 156.07754064 C341.44704465 157.79783406 341.83812197 159.5178861 342.23033929 161.23767781 C342.75732605 163.54956203 343.28031823 165.862312 343.80215669 168.17536283 C344.23586328 170.08727162 344.23586328 170.08727162 344.67833161 172.03780484 C345.28531098 175.08918118 345.28531098 175.08918118 345.28531098 178.08918118 C194.14531098 178.08918118 43.00531098 178.08918118 -112.71468902 178.08918118 C-112.27900229 316.56487914 -112.27900229 316.56487914 -111.72372222 455.04010892 C-111.6740396 481.78656888 -111.6740396 481.78656888 -111.66480803 494.29683805 C-111.65453511 503.05843805 -111.61412424 511.81926966 -111.55335784 520.58065152 C-111.48340247 530.68182055 -111.45147803 540.78225066 -111.46679456 550.88366384 C-111.4734301 556.05281909 -111.46281681 561.22032239 -111.40332258 566.38917553 C-111.34984374 571.0637712 -111.3470851 575.73554543 -111.38477683 580.41026998 C-111.389442 582.09980902 -111.37548091 583.78952401 -111.34098065 585.47871721 C-111.09809404 598.1135929 -111.09809404 598.1135929 -115.11745656 603.02552545 C-117.8819547 605.30854755 -120.6672348 607.20917228 -123.71468902 609.08918118 C-125.01305386 610.15099756 -126.29533704 611.23364317 -127.54281402 612.35480618 C-128.10677886 612.84529447 -128.6707437 613.33578275 -129.25179839 613.84113431 C-130.09967925 614.58266751 -130.09967925 614.58266751 -130.96468902 615.33918118 C-132.25111024 616.45901549 -133.53756968 617.57880588 -134.82406402 618.69855618 C-135.78989409 619.54063626 -135.78989409 619.54063626 -136.77523589 620.39972806 C-139.9162507 623.13585879 -143.06579979 625.86212118 -146.21468902 628.58918118 C-147.464732 629.67246492 -148.71473196 630.75579831 -149.96468902 631.83918118 C-157.46468902 638.33918118 -164.96468902 644.83918118 -172.46468902 651.33918118 C-173.08360015 651.87559232 -173.70251128 652.41200345 -174.3401773 652.96466947 C-175.58846375 654.04647437 -176.83683596 655.12818033 -178.08529449 656.20978665 C-181.2372273 658.94069427 -184.38758671 661.67337964 -187.53500152 664.40949368 C-193.94683879 669.98054195 -200.38057978 675.52187541 -206.87362456 680.99811673 C-212.59346703 685.82360606 -218.27107092 690.69790437 -223.94857574 695.5730679 C-227.45119847 698.57988117 -230.95702275 701.58296089 -234.46224761 704.58673978 C-237.39250706 707.09804004 -240.32198488 709.61024037 -243.24984527 712.12433743 C-248.88890992 716.96495046 -254.53720894 721.79365651 -260.21468902 726.58918118 C-261.82077005 727.94756675 -263.4265463 729.30631098 -265.03207183 730.66535306 C-266.19759273 731.65161509 -267.36364443 732.63725004 -268.5301187 733.62238431 C-275.16325566 739.23049486 -281.70953634 744.79806886 -287.71468902 751.08918118 C-288.66886284 748.53645161 -288.79515563 747.3342249 -287.93295074 744.70856595 C-287.50772124 743.82483304 -287.08249175 742.94110013 -286.64437652 742.03058743 C-285.92870513 740.51634183 -285.92870513 740.51634183 -285.19857574 738.9715054 C-284.66764312 737.87596341 -284.1367105 736.78042142 -283.58968902 735.65168118 C-282.75202403 733.88147006 -281.91440489 732.11123585 -281.07922149 730.33985257 C-280.49773938 729.10718192 -279.91493197 727.87513567 -279.33086944 726.64368558 C-276.32200001 720.2929526 -273.44941327 713.88330619 -270.58968902 707.46418118 C-269.49751905 705.02004599 -268.40507682 702.57603395 -267.31234527 700.13214993 C-267.02875655 699.49752835 -266.74516784 698.86290677 -266.45298553 698.20905423 C-263.03862315 690.57080232 -259.60356775 682.94186541 -256.16891265 675.31272244 C-255.02349965 672.76848623 -253.87834276 670.22413488 -252.7332437 667.67975736 C-249.60524961 660.72981021 -246.47668495 653.7801207 -243.34603667 646.83136868 C-242.95574279 645.96505826 -242.5654489 645.09874784 -242.16332793 644.20618558 C-241.37921787 642.46586997 -240.59501829 640.7255947 -239.81072783 638.98536038 C-237.89875004 634.74197933 -235.98935897 630.49747133 -234.08578277 626.250314 C-233.35410223 624.61843757 -232.62233273 622.98660103 -231.89047027 621.35480618 C-231.5365924 620.56575894 -231.18271453 619.7767117 -230.81811309 618.96375394 C-228.8397808 614.56217794 -226.8363573 610.17359954 -224.80050445 605.79833341 C-223.91094628 603.88441984 -223.02819383 601.9675275 -222.14779449 600.04938626 C-221.10483579 597.78231019 -220.04886717 595.52115074 -218.97689605 593.26764798 C-218.52556304 592.27933988 -218.07423003 591.29103177 -217.60922027 590.27277493 C-217.01911162 589.01291776 -217.01911162 589.01291776 -216.41708159 587.72760892 C-214.63082394 581.01781175 -217.81995157 574.79940624 -220.40609527 568.71418118 C-220.78274825 567.80947583 -221.15940124 566.90477048 -221.54746795 565.97264981 C-222.78336063 563.00836324 -224.03033799 560.04887296 -225.27718902 557.08918118 C-226.14576338 555.01053625 -227.01342802 552.93151097 -227.88021636 550.85212064 C-229.64495218 546.61956186 -231.41294079 542.38838447 -233.18295074 538.15802884 C-236.4523162 530.33352315 -239.66679656 522.48684176 -242.87481475 514.63703275 C-248.6116507 500.60313201 -254.40015373 486.59104465 -260.21468902 472.58918118 C-266.0146574 458.62191037 -271.78738362 444.64379044 -277.52718902 430.65168118 C-278.03258208 429.42022367 -278.03258208 429.42022367 -278.54818511 428.16388822 C-278.87512359 427.36708646 -279.20206206 426.5702847 -279.53890777 425.74933743 C-279.85532226 424.97830686 -280.17173675 424.20727628 -280.49773955 423.41288114 C-281.10340972 421.93322315 -281.70702097 420.45272033 -282.30834746 418.97129178 C-283.53106798 415.95922202 -284.7695398 412.96501842 -286.08334136 409.99103665 C-286.64915923 408.69190335 -286.64915923 408.69190335 -287.22640777 407.36652493 C-287.54440337 406.66648343 -287.86239898 405.96644193 -288.19003081 405.24518704 C-289.13732218 401.35243224 -288.2711603 398.16773751 -286.46224761 394.66169095 C-285.67068267 393.48304471 -285.67068267 393.48304471 -284.86312652 392.28058743 C-283.96883941 390.930939 -283.96883941 390.930939 -283.05648589 389.55402493 C-282.40744292 388.5962515 -281.75839995 387.63847806 -281.08968902 386.65168118 C-279.71181484 384.58024618 -278.3342183 382.50862648 -276.95687652 380.43683743 C-276.250148 379.38125638 -275.54341949 378.32567533 -274.81527495 377.23810697 C-271.57521006 372.38102223 -268.39635257 367.48463122 -265.21468902 362.58918118 C-263.96241292 360.66839434 -262.70980786 358.74782192 -261.45687652 356.82746243 C-258.98250124 353.03346328 -256.50857488 349.23917196 -254.03500152 345.44464993 C-246.71726907 334.21999254 -239.38985009 323.00172393 -232.05550933 311.78791165 C-225.54744535 301.83623166 -219.05096212 291.87702863 -212.55746245 281.91584134 C-209.44387129 277.13985319 -206.32922178 272.36455533 -203.21468902 267.58918118 C-201.96468405 265.67251776 -200.71468405 263.75585109 -199.46468902 261.83918118 C-196.96468902 258.00584785 -194.46468902 254.17251452 -191.96468902 250.33918118 C-191.34610015 249.39067288 -190.72751128 248.44216458 -190.0901773 247.46491361 C-188.83856955 245.54579259 -187.5869419 243.62668454 -186.33529449 241.70758939 C-183.23473084 236.95357986 -180.1344989 232.19935472 -177.03500152 227.44464993 C-169.71726907 216.21999254 -162.38985009 205.00172393 -155.05550933 193.78791165 C-148.54744535 183.83623166 -142.05096212 173.87702863 -135.55746245 163.91584134 C-131.81743562 158.17895334 -128.07597885 152.44299778 -124.3348062 146.70685697 C-121.23441512 141.95308519 -118.13433867 137.19910893 -115.03500152 132.44464993 C-107.71726907 121.21999254 -100.38985009 110.00172393 -93.05550933 98.78791165 C-86.54744535 88.83623166 -80.05096212 78.87702863 -73.55746245 68.91584134 C-71.69610168 66.06066977 -69.83437357 63.20573811 -67.97250152 60.35089993 C-67.04232207 58.92463284 -67.04232207 58.92463284 -66.09335113 57.46955228 C-64.84426442 55.55444832 -63.59507875 53.6394089 -62.34579253 51.72443509 C-59.18079903 46.87257486 -56.01799679 42.01931037 -52.85922027 37.16339993 C-52.21726714 36.17726712 -51.57531402 35.19113431 -50.91390777 34.17511868 C-49.72169901 32.34360957 -48.53019902 30.51163872 -47.33968902 28.67902493 C-46.2014633 26.9311289 -45.03303432 25.20255481 -43.83626723 23.49420857 C-42.1562129 20.97216164 -40.99070529 18.43778933 -39.83532882 15.63949132 C-31.72160525 -1.98995366 -17.09002744 -0.40867337 0 0 Z " fill="#9F54F8" transform="translate(336.71468901634216,45.91081881523132)"/>
<path d="M0 0 C0 50.82 0 101.64 0 154 C112.86 154 225.72 154 342 154 C337.50060636 160.74909046 337.50060636 160.74909046 334.8112793 163.39990234 C334.21353195 163.99427094 333.61578461 164.58863953 332.99992371 165.20101929 C332.36444107 165.8230423 331.72895844 166.44506531 331.07421875 167.0859375 C330.07549492 168.07685898 330.07549492 168.07685898 329.05659485 169.08779907 C326.93829893 171.18838326 324.81342422 173.28213874 322.6875 175.375 C320.57314013 177.46154889 318.46033622 179.54961383 316.35054016 181.64077759 C315.04217668 182.93709164 313.73115268 184.23072848 312.41691589 185.52108765 C308.64929474 189.24818532 305.116846 193.10871842 301.65412903 197.11978149 C299.31184231 199.78221638 296.83628327 202.25789602 294.3125 204.75 C293.80630127 205.25241211 293.30010254 205.75482422 292.77856445 206.27246094 C290.65540351 208.3795795 288.52619158 210.48054213 286.39746094 212.58203125 C280.94020028 217.97571867 275.53120648 223.35823924 270.54394531 229.19775391 C267.90801896 232.27466857 265.14329434 235.22989405 262.375 238.1875 C261.75109375 238.85458984 261.1271875 239.52167969 260.484375 240.20898438 C253.91859427 247.17403556 247.13637507 253.92056136 240.32177734 260.64135742 C236.64457689 264.28190456 233.01447971 267.90468154 229.65625 271.84375 C224.11035269 278.31179886 217.88236291 284.17128304 211.82470703 290.15478516 C206.3039949 295.6139581 200.82918013 301.05294092 195.78417969 306.96240234 C191.81931569 311.49042025 187.58648068 315.76549205 183.375 320.0625 C182.90964844 320.55097412 182.44429688 321.03944824 181.96484375 321.54272461 C180.60319635 322.97098463 179.21984184 324.37845119 177.8359375 325.78515625 C177.02688965 326.61926025 176.2178418 327.45336426 175.38427734 328.31274414 C173 330 173 330 170.51464844 329.91162109 C167.88313708 328.95763435 165.42860798 327.89197052 162.9296875 326.62890625 C161.96184326 326.14276855 160.99399902 325.65663086 159.99682617 325.15576172 C158.96662354 324.62998535 157.9364209 324.10420898 156.875 323.5625 C155.25331909 322.74289795 155.25331909 322.74289795 153.59887695 321.90673828 C146.69175599 318.40446426 139.82227865 314.83501369 132.98193359 311.2043457 C124.69247962 306.81265533 116.34523468 302.53437744 108 298.25 C94.09350578 291.10891692 80.20652666 283.93162192 66.33203125 276.72851562 C60.43235768 273.66801673 54.52871017 270.6152025 48.625 267.5625 C48.02145691 267.25041595 47.41791382 266.93833191 46.79608154 266.61679077 C44.35433364 265.35421513 41.9125808 264.09164906 39.47079468 262.82914734 C35.27426588 260.65926576 31.07839863 258.48811 26.8828125 256.31640625 C14.053866 249.6764775 1.21837466 243.04948157 -11.625 236.4375 C-23.87306251 230.1319109 -36.10864168 223.80282005 -48.3359375 217.45703125 C-55.34576729 213.81934657 -62.35993272 210.19006955 -69.375 206.5625 C-70.27804871 206.0955069 -70.27804871 206.0955069 -71.19934082 205.61907959 C-74.24710963 204.04300946 -77.29492801 202.46703523 -80.34277344 200.89111328 C-85.79198254 198.07347788 -91.24073128 195.25495243 -96.68951416 192.43649292 C-99.70965719 190.87429204 -102.72983011 189.31214895 -105.75 187.75 C-106.95833348 187.12500028 -108.16666681 186.50000028 -109.375 185.875 C-109.973125 185.565625 -110.57125 185.25625 -111.1875 184.9375 C-113 184 -114.8125 183.0625 -116.625 182.125 C-117.52199867 181.66103569 -117.52199867 181.66103569 -118.43711853 181.18769836 C-119.64672457 180.56203936 -120.85632947 179.93637815 -122.06593323 179.31071472 C-125.06728474 177.75827935 -128.06865549 176.20588119 -131.07006836 174.65356445 C-136.73994209 171.72108132 -142.40960858 168.78819933 -148.0786438 165.85409546 C-150.76052826 164.46606866 -153.44251592 163.07824133 -156.12451172 161.69042969 C-157.40467411 161.02793194 -158.68478576 160.36533615 -159.96484375 159.70263672 C-161.73815328 158.7845835 -163.51165067 157.86689318 -165.28515625 156.94921875 C-166.29457275 156.42674561 -167.30398926 155.90427246 -168.34399414 155.3659668 C-170.55545295 154.2286277 -172.77268801 153.10587745 -175 152 C-171.42290387 143.75229131 -162.90578742 137.98250037 -156.07421875 132.50390625 C-152.54980768 129.63332493 -149.11474214 126.67277244 -145.6875 123.6875 C-144.40104624 122.56770307 -143.11458789 121.44791143 -141.828125 120.328125 C-141.19068359 119.77318359 -140.55324219 119.21824219 -139.89648438 118.64648438 C-136.92144811 116.06362591 -133.9305594 113.49943086 -130.9375 110.9375 C-130.36410889 110.44660889 -129.79071777 109.95571777 -129.19995117 109.44995117 C-128.04469482 108.46114797 -126.88934024 107.47245951 -125.73388672 106.48388672 C-123.40547278 104.49119453 -121.07865711 102.49664138 -118.75195312 100.50195312 C-117.0027877 99.0023899 -115.25334729 97.50314791 -113.50390625 96.00390625 C-111.15658474 93.99200998 -108.81033583 91.97887242 -106.46484375 89.96484375 C-100.82578269 85.12423382 -95.17780006 80.29514221 -89.5 75.5 C-78.21910443 65.97067942 -67.04290893 56.3209524 -55.89111328 46.64111328 C-52.76214706 43.92578783 -49.63096844 41.2130162 -46.5 38.5 C-45.24998926 37.41667906 -43.99998926 36.33334572 -42.75 35.25 C-40.25 33.08333333 -37.75 30.91666667 -35.25 28.75 C-34.63060547 28.21318604 -34.01121094 27.67637207 -33.37304688 27.12329102 C-32.12957879 26.04562948 -30.88608939 24.96799256 -29.64257812 23.89038086 C-26.41745979 21.09547571 -23.19277125 18.30007689 -19.96875 15.50390625 C-19.30423828 14.92769531 -18.63972656 14.35148438 -17.95507812 13.7578125 C-16.69842799 12.66812986 -15.44190675 11.57829854 -14.18554688 10.48828125 C-13.03654336 9.49205027 -11.88619047 8.49737307 -10.734375 7.50439453 C-9.50827116 6.44087372 -8.29026539 5.36798277 -7.078125 4.28857422 C-6.14226562 3.46317139 -6.14226562 3.46317139 -5.1875 2.62109375 C-4.34251953 1.86783813 -4.34251953 1.86783813 -3.48046875 1.09936523 C-2 0 -2 0 0 0 Z " fill="#189ECA" transform="translate(224,646)"/>
<path d="M0 0 C0.95060303 0.11762695 1.90120605 0.23525391 2.88061523 0.35644531 C8.8618902 1.17811541 14.2800717 2.60679646 19.9375 4.6875 C21.22075165 5.11898357 22.50458721 5.54873533 23.7890625 5.9765625 C46.09403363 13.74026795 66.38157403 28.43866534 78.9375 48.6875 C79.29730957 49.26773926 79.65711914 49.84797852 80.02783203 50.44580078 C85.77554787 59.84040975 90.07959313 69.00685536 92.9375 79.6875 C93.22947266 80.72003906 93.22947266 80.72003906 93.52734375 81.7734375 C102.04198476 112.60422914 96.50825399 143.65371844 81.07421875 171.1796875 C77.94331259 176.49861261 74.02480137 181.08474855 69.9375 185.6875 C69.32519531 186.44289063 68.71289062 187.19828125 68.08203125 187.9765625 C54.72962545 204.0905533 35.5902565 214.37818684 15.9375 220.6875 C14.74125 221.10128906 13.545 221.51507812 12.3125 221.94140625 C-9.12467402 228.24516541 -35.02719366 226.37690668 -56.0625 219.6875 C-57.28324219 219.30335938 -58.50398437 218.91921875 -59.76171875 218.5234375 C-89.12151359 208.11115803 -111.7757952 186.75909051 -125.14697266 158.74560547 C-126.77518512 155.08538385 -128.14336986 151.35219346 -129.4375 147.5625 C-129.67621826 146.8713208 -129.91493652 146.1801416 -130.16088867 145.46801758 C-133.67910753 134.51891331 -134.43040916 123.30828355 -134.375 111.875 C-134.36936035 110.64813477 -134.3637207 109.42126953 -134.35791016 108.15722656 C-134.00893544 82.02904049 -124.5014748 57.2288018 -107.0625 37.6875 C-106.27875 36.65625 -105.495 35.625 -104.6875 34.5625 C-100.582548 30.06660019 -95.86751393 26.40877438 -91.0625 22.6875 C-90.27875 22.07648438 -89.495 21.46546875 -88.6875 20.8359375 C-73.16889296 9.3542654 -54.93481402 2.92025749 -36.0625 -0.3125 C-35.09183594 -0.498125 -34.12117187 -0.68375 -33.12109375 -0.875 C-22.15945834 -2.44294785 -10.9208983 -1.38638877 0 0 Z " fill="#FDFDFD" transform="translate(647.0625,292.3125)"/>
<path d="M0 0 C0.33 0.99 0.66 1.98 1 3 C-0.40007346 5.27096149 -1.82496171 7.32523679 -3.4375 9.4375 C-7.44853358 14.79594144 -11.21801145 20.27527567 -14.91381836 25.85668945 C-18.25508907 30.8910792 -21.66087128 35.88128112 -25.0625 40.875 C-25.79710449 41.95434814 -26.53170898 43.03369629 -27.28857422 44.14575195 C-35.12935887 55.66523054 -42.98132247 67.17709305 -50.83398438 78.68847656 C-58.7830139 90.34170317 -66.72380326 102.00046767 -74.65258789 113.66748047 C-78.73425456 119.67242363 -82.81940146 125.67488787 -86.92382812 131.66430664 C-88.17140627 133.49616291 -89.40862532 135.33512225 -90.63476562 137.18139648 C-94.03512372 142.28054308 -97.56528864 147.02381564 -101.67260742 151.57861328 C-106.59201012 157.83443664 -106.59201012 157.83443664 -107.65760803 165.36972046 C-106.71472979 167.96305189 -105.59095472 170.36084355 -104.33984375 172.8203125 C-103.91255478 173.73137253 -103.48526581 174.64243256 -103.04502869 175.58110046 C-102.15545832 177.47464649 -101.25191764 179.36168895 -100.3348999 181.24209595 C-98.70819241 184.60287467 -97.18672716 188.00401642 -95.67175293 191.41622925 C-94.21080153 194.70212462 -92.71962753 197.97398929 -91.2300415 201.24697876 C-89.59360776 204.84282998 -87.96225429 208.44097955 -86.33056641 212.03898621 C-85.48248318 213.90905244 -84.63417583 215.77901704 -83.78564453 217.64888 C-79.37915472 227.36126746 -74.99948852 237.08566575 -70.625 246.8125 C-70.24828156 247.64995758 -69.87156311 248.48741516 -69.48342896 249.35025024 C-64.29944031 260.87504761 -59.12623742 272.40464199 -53.96020508 283.9375 C-47.49854206 298.35868866 -41.00863391 312.76717222 -34.52145386 327.17689514 C-32.18016319 332.37767588 -29.83961923 337.57879167 -27.49995422 342.78030396 C-26.72773684 344.49704003 -25.95542877 346.21373531 -25.18302917 347.9303894 C-23.29022252 352.13726737 -21.39859158 356.34466537 -19.50952148 360.55322266 C-15.95845166 368.45976965 -12.385137 376.35468156 -8.7578125 384.2265625 C-7.77451274 386.36951017 -6.79195287 388.51279527 -5.80969238 390.65621948 C-4.90044478 392.63220321 -3.98118294 394.60330921 -3.06152344 396.57446289 C-2.25376465 398.33777954 -2.25376465 398.33777954 -1.4296875 400.13671875 C-0.72175049 401.66365356 -0.72175049 401.66365356 0.00048828 403.22143555 C1.01009178 406.02805435 1.21025793 408.04590982 1 411 C0.67 410.01 0.34 409.02 0 408 C-1.00111816 407.86102295 -1.00111816 407.86102295 -2.02246094 407.71923828 C-5.81494821 406.80314551 -9.15124226 405.19023272 -12.640625 403.4921875 C-13.76079514 402.95606087 -13.76079514 402.95606087 -14.90359497 402.40910339 C-16.51387571 401.63807396 -18.12302109 400.86466977 -19.73114014 400.08914185 C-24.02028268 398.02168763 -28.31872044 395.97376149 -32.6171875 393.92578125 C-33.92697067 393.30125313 -33.92697067 393.30125313 -35.26321411 392.66410828 C-43.59103426 388.70174863 -51.97154539 384.86129458 -60.375 381.0625 C-61.39211563 380.60213852 -61.39211563 380.60213852 -62.42977905 380.13247681 C-65.721491 378.64267065 -69.01397062 377.15457491 -72.30712891 375.66796875 C-87.00503519 369.03166028 -101.63851305 362.33957249 -116 355 C-117.8529214 354.0600412 -119.70692991 353.12221916 -121.5625 352.1875 C-122.61630859 351.65189453 -122.61630859 351.65189453 -123.69140625 351.10546875 C-125.51225158 350.23355804 -127.36081594 349.41953663 -129.21777344 348.62744141 C-134.76729173 346.25753379 -140.21960357 343.67535239 -145.6862793 341.12182617 C-147.66427084 340.19834519 -149.64360046 339.27777945 -151.62304688 338.35742188 C-152.91935385 337.75278212 -154.21558027 337.14796962 -155.51171875 336.54296875 C-156.66115967 336.00696045 -157.81060059 335.47095215 -158.99487305 334.91870117 C-164.36298182 332.34704821 -169.67609235 329.66195382 -175 327 C-175 232.95 -175 138.9 -175 42 C-150.25 36.06 -150.25 36.06 -125 30 C-108.42935852 26.00068428 -91.85911863 21.99973975 -75.29052734 17.99194336 C-50.20981963 11.92561345 -25.11525348 5.92175419 0 0 Z " fill="#1B77F9" transform="translate(975,244)"/>
<path d="M0 0 C0.33 0 0.66 0 1 0 C1.25104023 32.58692935 1.44565754 65.17357965 1.56171862 97.7612555 C1.57547609 101.6101257 1.58971366 105.45899399 1.60424805 109.30786133 C1.60713346 110.07408853 1.61001888 110.84031573 1.61299173 111.62976194 C1.66083235 124.03001127 1.74754834 136.42969857 1.84868076 148.82961469 C1.9516164 161.55695274 2.01266071 174.28399685 2.03497344 187.01173407 C2.05005357 194.86327531 2.09764311 202.71322801 2.18708114 210.5642801 C2.25220763 216.58879616 2.25899097 222.61195143 2.24418449 228.63685989 C2.24720925 231.10522929 2.26907271 233.57365914 2.31126022 236.04166985 C2.63061126 255.68874559 2.63061126 255.68874559 -1.39824486 260.39669991 C-4.17196963 262.69595852 -6.81383061 264.34374886 -10 266 C-11.30708644 267.05106153 -12.59162166 268.13237093 -13.828125 269.265625 C-14.39208984 269.75611328 -14.95605469 270.24660156 -15.53710938 270.75195312 C-16.10236328 271.24630859 -16.66761719 271.74066406 -17.25 272.25 C-18.53642122 273.3698343 -19.82288066 274.4896247 -21.109375 275.609375 C-22.07520508 276.45145508 -22.07520508 276.45145508 -23.06054688 277.31054688 C-26.20156169 280.0466776 -29.35111078 282.77294 -32.5 285.5 C-33.75004299 286.58328373 -35.00004294 287.66661712 -36.25 288.75 C-47.5 298.5 -47.5 298.5 -58.75 308.25 C-59.36891113 308.78641113 -59.98782227 309.32282227 -60.62548828 309.87548828 C-61.87377473 310.95729319 -63.12214695 312.03899914 -64.37060547 313.12060547 C-67.52253829 315.85151308 -70.67289769 318.58419845 -73.8203125 321.3203125 C-80.23214977 326.89136076 -86.66589076 332.43269423 -93.15893555 337.90893555 C-98.87877801 342.73442488 -104.5563819 347.60872318 -110.23388672 352.48388672 C-113.73650945 355.49069999 -117.24233373 358.49377971 -120.74755859 361.49755859 C-123.67781804 364.00885886 -126.60729587 366.52105919 -129.53515625 369.03515625 C-135.1742209 373.87576927 -140.82251992 378.70447533 -146.5 383.5 C-148.10608103 384.85838556 -149.71185728 386.21712979 -151.31738281 387.57617188 C-152.48290371 388.5624339 -153.64895542 389.54806886 -154.81542969 390.53320312 C-161.44856664 396.14131367 -167.99484732 401.70888767 -174 408 C-174.95417382 405.44727042 -175.08046662 404.24504372 -174.21826172 401.61938477 C-173.79303223 400.73565186 -173.36780273 399.85191895 -172.9296875 398.94140625 C-172.45257324 397.93190918 -171.97545898 396.92241211 -171.48388672 395.88232422 C-170.9529541 394.78678223 -170.42202148 393.69124023 -169.875 392.5625 C-169.03733501 390.79228888 -168.19971587 389.02205467 -167.36453247 387.25067139 C-166.78305036 386.01800074 -166.20024295 384.78595449 -165.61618042 383.55450439 C-162.607311 377.20377142 -159.73472426 370.794125 -156.875 364.375 C-155.78283003 361.93086481 -154.6903878 359.48685277 -153.59765625 357.04296875 C-153.31406754 356.40834717 -153.03047882 355.77372559 -152.73829651 355.11987305 C-149.32393414 347.48162114 -145.88887873 339.85268423 -142.45422363 332.22354126 C-141.30881064 329.67930505 -140.16365374 327.1349537 -139.01855469 324.59057617 C-135.89056059 317.64062903 -132.76199593 310.69093951 -129.63134766 303.7421875 C-129.24105377 302.87587708 -128.85075989 302.00956665 -128.44863892 301.11700439 C-127.66452886 299.37668879 -126.88032927 297.63641352 -126.09603882 295.8961792 C-124.18406102 291.65279814 -122.27466996 287.40829014 -120.37109375 283.16113281 C-119.63941321 281.52925639 -118.90764372 279.89741984 -118.17578125 278.265625 C-117.82190338 277.47657776 -117.46802551 276.68753052 -117.10342407 275.87457275 C-115.12509178 271.47299675 -113.12166828 267.08441836 -111.08581543 262.70915222 C-110.19625726 260.79523866 -109.31350482 258.87834631 -108.43310547 256.96020508 C-107.39014677 254.693129 -106.33417815 252.43196956 -105.26220703 250.1784668 C-104.81087402 249.19015869 -104.35954102 248.20185059 -103.89453125 247.18359375 C-103.30442261 245.92373657 -103.30442261 245.92373657 -102.70239258 244.63842773 C-100.91613492 237.92863056 -104.10526255 231.71022505 -106.69140625 225.625 C-107.06805923 224.72029465 -107.44471222 223.81558929 -107.83277893 222.88346863 C-109.06867162 219.91918206 -110.31564898 216.95969178 -111.5625 214 C-112.43107437 211.92135507 -113.298739 209.84232979 -114.16552734 207.76293945 C-115.93026317 203.53038068 -117.69825177 199.29920328 -119.46826172 195.06884766 C-122.73762718 187.24434197 -125.95210755 179.39766057 -129.16012573 171.54785156 C-134.89696168 157.51395083 -140.68546472 143.50186346 -146.5 129.5 C-152.29996839 115.53272919 -158.0726946 101.55460925 -163.8125 87.5625 C-164.14942871 86.74152832 -164.48635742 85.92055664 -164.83349609 85.07470703 C-166.64246389 80.66596097 -168.44774773 76.25574531 -170.24713135 71.84307861 C-170.93958509 70.1479002 -171.63633623 68.45447888 -172.33349609 66.76123047 C-172.70168457 65.85904785 -173.06987305 64.95686523 -173.44921875 64.02734375 C-173.75561279 63.280896 -174.06200684 62.53444824 -174.37768555 61.76538086 C-175 60 -175 60 -175 58 C-164.40020047 58.55691484 -153.91022044 59.48330625 -143.375 60.8125 C-141.9508818 60.98832443 -140.52672734 61.16385542 -139.10253906 61.33911133 C-131.94577209 62.22514575 -124.79499074 63.15232141 -117.6484375 64.1171875 C-116.97843719 64.20749741 -116.30843689 64.29780731 -115.61813354 64.39085388 C-112.4558837 64.81813209 -109.29457544 65.25112413 -106.13427734 65.69262695 C-102.75912898 66.15598994 -99.38073836 66.57967187 -96 67 C-94.84491943 67.17128418 -93.68983887 67.34256836 -92.49975586 67.51904297 C-85.45308832 68.53975643 -85.45308832 68.53975643 -79.16015625 65.859375 C-78.09561669 64.8557988 -77.06323233 63.81721343 -76.0625 62.75 C-74.89217402 61.62982614 -73.7189141 60.51271077 -72.54296875 59.3984375 C-71.66777588 58.54330566 -71.66777588 58.54330566 -70.77490234 57.67089844 C-67.96887335 55.02929425 -64.93525738 52.71184712 -61.875 50.375 C-57.51329767 46.99469577 -53.2245312 43.55219201 -49 40 C-44.77523797 36.44761389 -40.48353154 33.00961188 -36.125 29.625 C-30.70020349 25.40704148 -25.46615856 21.01082265 -20.27905273 16.50512695 C-14.88527362 11.84433491 -9.30084364 7.44865153 -3.66796875 3.08203125 C-1.76910737 1.61438729 -1.76910737 1.61438729 0 0 Z " fill="#286CF9" transform="translate(223,389)"/>
<path d="M0 0 C0.94811015 3.11521905 1.89622019 6.23043814 2.84432983 9.34565735 C3.69574779 12.14317387 4.54716818 14.94068964 5.39859009 17.73820496 C7.53604402 24.76124051 9.673483 31.78428061 11.81085968 38.80733967 C13.02754359 42.80515617 14.24423781 46.80296955 15.4609375 50.80078125 C15.70272736 51.59525099 15.94451721 52.38972073 16.19363403 53.2082653 C19.0998797 62.75750485 22.00655403 72.30661361 24.9140625 81.85546875 C25.75704273 84.62428381 26.60000592 87.39310406 27.44296265 90.16192627 C27.9804995 91.92737253 28.51811736 93.69279413 29.05581665 95.45819092 C32.37955883 106.37102915 35.69384418 117.28669239 38.99874496 128.20525169 C40.18520992 132.12441898 41.37255727 136.04331908 42.55985069 139.96223545 C43.90212064 144.3932866 45.241769 148.82512583 46.58105469 153.25708008 C47.27919928 155.56204128 47.97743672 157.86697437 48.67578125 160.171875 C48.99797134 161.24026108 49.32016144 162.30864716 49.65211487 163.40940857 C50.09562538 164.87109215 50.09562538 164.87109215 50.5480957 166.36230469 C50.8056514 167.21395203 51.06320709 168.06559937 51.3285675 168.9430542 C51.95436818 171.03172712 51.95436818 171.03172712 53 173 C7.46 173 -38.08 173 -85 173 C-84.9071875 184.82972656 -84.814375 196.65945312 -84.71875 208.84765625 C-84.67788099 216.33530039 -84.63903918 223.82286384 -84.609375 231.31054688 C-84.56189645 243.19941802 -84.50606813 255.08783576 -84.39648438 266.97631836 C-84.31671418 275.63453001 -84.26512668 284.29237402 -84.24729204 292.95094293 C-84.23686743 297.53527906 -84.21239324 302.11856351 -84.15415955 306.70256233 C-84.09976482 311.01943498 -84.08312521 315.33482525 -84.09513855 319.65200806 C-84.09294168 321.23429363 -84.07707986 322.81662991 -84.0463562 324.3986187 C-83.82572492 336.34749902 -83.82572492 336.34749902 -86.74359131 340.45367241 C-88.74661696 342.23048677 -90.7110721 343.62206152 -93 345 C-94.38638672 346.15628906 -94.38638672 346.15628906 -95.80078125 347.3359375 C-96.62964844 348.00882812 -97.45851562 348.68171875 -98.3125 349.375 C-99.71435547 350.51582031 -99.71435547 350.51582031 -101.14453125 351.6796875 C-102.08683594 352.44539063 -103.02914062 353.21109375 -104 354 C-105.83391105 355.49929362 -107.66724924 356.99928825 -109.5 358.5 C-110.41136719 359.24507813 -111.32273438 359.99015625 -112.26171875 360.7578125 C-114.05832268 362.22892613 -115.85267457 363.70279528 -117.64453125 365.1796875 C-122.66963599 369.31454675 -127.74283374 373.37470122 -132.875 377.375 C-138.66882291 381.89662171 -144.29731899 386.58480523 -149.88671875 391.35546875 C-154.52844852 395.31318465 -159.25844008 399.16267987 -164 403 C-164.75249023 403.70350586 -165.50498047 404.40701172 -166.28027344 405.13183594 C-169.61055734 407.41938822 -170.99589185 407.33786292 -174.953125 406.86328125 C-176.10103516 406.73518066 -177.24894531 406.60708008 -178.43164062 406.47509766 C-179.60919922 406.31831543 -180.78675781 406.1615332 -182 406 C-183.10021484 405.86513184 -184.20042969 405.73026367 -185.33398438 405.59130859 C-188.81015232 405.15043124 -192.27973083 404.672541 -195.75 404.1875 C-198.38259887 403.82773917 -201.01531671 403.46917149 -203.6484375 403.11328125 C-204.32480255 403.02175781 -205.0011676 402.93023437 -205.69802856 402.8359375 C-217.47202811 401.25348425 -229.27388201 399.8866706 -241.06933594 398.47558594 C-247.71551866 397.67143911 -254.35781747 396.83645555 -261 396 C-259.82696339 392.14317166 -258.54595722 388.95405285 -256.26953125 385.62890625 C-255.72176025 384.81953613 -255.17398926 384.01016602 -254.60961914 383.17626953 C-253.72004517 381.88245361 -253.72004517 381.88245361 -252.8125 380.5625 C-251.53535145 378.67653034 -250.25934866 376.78978438 -248.984375 374.90234375 C-248.32501953 373.92894043 -247.66566406 372.95553711 -246.98632812 371.95263672 C-243.79524077 367.20914969 -240.67768821 362.41854353 -237.5625 357.625 C-236.93947998 356.66770996 -236.31645996 355.71041992 -235.67456055 354.72412109 C-234.41011602 352.78099967 -233.14603699 350.83764037 -231.88232422 348.89404297 C-228.80057505 344.15590359 -225.71279013 339.42170391 -222.625 334.6875 C-222.01148682 333.74664551 -221.39797363 332.80579102 -220.76586914 331.83642578 C-215.29787778 323.45259772 -209.81960962 315.07550444 -204.34082031 306.69873047 C-197.83275633 296.74705047 -191.3362731 286.78784744 -184.84277344 276.82666016 C-181.72918227 272.05067201 -178.61453276 267.27537414 -175.5 262.5 C-174.24999504 260.58333657 -172.99999503 258.66666991 -171.75 256.75 C-169.25 252.91666667 -166.75 249.08333333 -164.25 245.25 C-163.63141113 244.3014917 -163.01282227 243.3529834 -162.37548828 242.37573242 C-161.12388053 240.4566114 -159.87225289 238.53750335 -158.62060547 236.6184082 C-155.52004182 231.86439867 -152.41980988 227.11017353 -149.3203125 222.35546875 C-142.00258005 211.13081135 -134.67516108 199.91254275 -127.34082031 188.69873047 C-120.83275633 178.74705047 -114.3362731 168.78784744 -107.84277344 158.82666016 C-104.10274661 153.08977216 -100.36128984 147.3538166 -96.62011719 141.61767578 C-93.5197261 136.86390401 -90.41964966 132.10992774 -87.3203125 127.35546875 C-80.00258005 116.13081135 -72.67516108 104.91254275 -65.34082031 93.69873047 C-58.83275633 83.74705047 -52.3362731 73.78784744 -45.84277344 63.82666016 C-42.10940368 58.09998355 -38.37481143 52.37410389 -34.63989258 46.6484375 C-31.42602655 41.72126787 -28.21371084 36.79309784 -25.00390625 31.86328125 C-21.87168892 27.05277422 -18.73303941 22.24651156 -15.59179688 17.44189453 C-14.19427573 15.2980285 -12.80599942 13.14861897 -11.421875 10.99609375 C-10.72578125 9.92488281 -10.0296875 8.85367188 -9.3125 7.75 C-8.75175781 6.87859375 -8.19101562 6.0071875 -7.61328125 5.109375 C-5.53623355 2.39362256 -3.57433859 0 0 0 Z " fill="#6E61F8" transform="translate(309,51)"/>
<path d="M0 0 C1.1033862 0.00368717 2.2067724 0.00737434 3.34359455 0.01117325 C4.60984165 0.00567459 5.87608875 0.00017593 7.18070698 -0.00548935 C8.58659454 0.00866729 9.99247829 0.02320653 11.39835835 0.03808975 C12.87661426 0.03921786 14.35487241 0.03858508 15.83312702 0.03631973 C19.84954584 0.03517022 23.8654886 0.05871742 27.8817966 0.08661556 C32.07782925 0.11158999 36.27387234 0.11396808 40.46996784 0.11871719 C48.41731647 0.13115865 56.36444547 0.16399599 64.3116973 0.20411515 C73.35872213 0.24879655 82.40575734 0.27081074 91.452865 0.29089689 C110.06478491 0.33272768 128.67650027 0.40310237 147.28825092 0.49219131 C147.48856954 1.17157729 147.68888815 1.85096327 147.89527702 2.5509367 C148.16108039 3.44601468 148.42688375 4.34109266 148.70074177 5.26329422 C148.96293538 6.1489302 149.22512899 7.03456617 149.49526787 7.9470396 C150.52765351 11.26057584 151.80399221 14.42696484 153.15934467 17.62109756 C153.57042973 18.59763039 153.57042973 18.59763039 153.98981953 19.59389114 C154.58476339 21.00637403 155.18187395 22.41794593 155.78095722 23.82867813 C157.45935496 27.78312395 159.11917253 31.74536862 160.78043842 35.70703506 C161.13854099 36.56015274 161.49664356 37.41327042 161.86559772 38.29224014 C166.43706402 49.20254483 170.89011168 60.16123528 175.35075092 71.11719131 C177.06785207 75.33217641 178.78537521 79.54698942 180.50309467 83.76172256 C181.12463177 85.28695038 181.12463177 85.28695038 181.75872517 86.84299088 C185.82473818 96.81650187 189.92230924 106.77685314 194.03556538 116.73096085 C196.98743705 123.87901356 199.91891584 131.03489254 202.82618427 138.20122147 C204.48528008 142.29076698 206.14779994 146.37891791 207.81016254 150.46713638 C208.62438817 152.47275526 209.43678733 154.47911667 210.24729633 156.48624039 C211.37625535 159.28173429 212.51131858 162.07467794 213.64762592 164.86719131 C213.98653858 165.71126038 214.32545124 166.55532944 214.67463398 167.42497635 C214.99024281 168.19739166 215.30585163 168.96980698 215.63102436 169.76562881 C215.90412434 170.4402919 216.17722431 171.11495499 216.45860004 171.81006241 C217.27572973 173.69392787 217.27572973 173.69392787 219.28825092 175.49219131 C215.63205243 176.43997365 213.37680373 176.5179694 209.81315327 175.28320694 C208.94952168 174.99057968 208.08589008 174.69795242 207.19608784 174.39645767 C206.26486103 174.06711227 205.33363422 173.73776688 204.37418842 173.39844131 C202.89686237 172.89197571 202.89686237 172.89197571 201.38969135 172.37527847 C198.14344191 171.25909926 194.90347387 170.12573407 191.66325092 168.99219131 C189.38512337 168.20519138 187.10663545 167.4192339 184.8278017 166.63428116 C177.97563484 164.26969774 171.13128305 161.88305851 164.28825092 159.49219131 C162.4002657 158.83356059 160.51224709 158.17502555 158.62418842 157.51660538 C151.74169363 155.11553083 144.86001545 152.7121595 137.98112202 150.30078506 C121.91051589 144.67411574 105.78347173 139.21713516 89.65357685 133.76321793 C73.55187449 128.31716754 57.48001235 122.79642468 41.44224262 117.16510391 C24.50413011 111.22187099 7.50409737 105.4647468 -9.50213146 99.72019196 C-30.96282585 92.47041957 -52.37192908 85.09041243 -73.71174908 77.49219131 C-73.71174908 73.44856539 -71.73798063 71.95376662 -69.08674908 69.17969131 C-68.31874981 68.36045181 -68.31874981 68.36045181 -67.5352354 67.52466202 C-61.02704133 60.65392537 -54.27957142 54.00655226 -47.54329205 47.36011124 C-41.80411049 41.68008562 -41.80411049 41.68008562 -36.40315533 35.68359756 C-30.97819168 29.34522667 -24.8894551 23.60422505 -18.96174908 17.74219131 C-16.52654026 15.33365232 -14.09472408 12.92176006 -11.66487408 10.50781631 C-11.11172527 9.96296585 -10.55857647 9.41811539 -9.98866558 8.8567543 C-6.92269866 5.831216 -6.92269866 5.831216 -4.42095757 2.34690094 C-2.71174908 0.49219131 -2.71174908 0.49219131 0 0 Z " fill="#B851F6" transform="translate(568.7117490768433,799.5078086853027)"/>
<path d="M0 0 C-0.50761836 4.24368948 -3.1480273 6.81057893 -5.875 9.875 C-9.99102833 14.60989313 -13.96456263 19.41955544 -17.8125 24.375 C-21.42875856 29.02274811 -25.10667091 33.58054536 -29 38 C-32.32384104 36.04662327 -35.54889212 33.98018326 -38.75537109 31.84033203 C-57.32652525 19.56871295 -77.26412328 13.92928434 -99.5 17.75 C-115.48336331 21.63784513 -129.25524733 31.73338114 -137.89111328 45.57958984 C-148.74374952 63.72527491 -150.54926401 84.29560134 -146.16796875 104.7890625 C-142.24615411 120.35342549 -132.24194633 134.10187132 -119 143 C-107.27294201 149.84078383 -97.03313894 152.50066934 -83.5 152.3125 C-82.34113281 152.31572266 -81.18226563 152.31894531 -79.98828125 152.32226562 C-65.3325851 152.23118503 -52.59813277 148.55887966 -40 141 C-39.34 141 -38.68 141 -38 141 C-38 130.44 -38 119.88 -38 109 C-54.17 109 -70.34 109 -87 109 C-87 95.14 -87 81.28 -87 67 C-55.65 67 -24.3 67 8 67 C8.268125 82.46875 8.53625 97.9375 8.8125 113.875 C8.93085205 118.74362793 9.0492041 123.61225586 9.17114258 128.62841797 C9.2298584 134.61352539 9.2298584 134.61352539 9.24076843 137.42312622 C9.26062126 139.36891419 9.30612273 141.31455045 9.3724823 143.25930786 C9.89012607 159.24048769 9.89012607 159.24048769 6.73386383 163.84851074 C3.29845782 167.4127918 -0.6530169 169.70073911 -5 172 C-6.49523926 172.97178225 -7.98476615 173.95261546 -9.4609375 174.953125 C-10.75821778 175.73123488 -12.06290636 176.49713787 -13.375 177.25 C-14.09139648 177.6634668 -14.80779297 178.07693359 -15.54589844 178.50292969 C-25.75843568 184.26072662 -36.46771395 187.97307209 -47.6875 191.25 C-48.53022461 191.4965332 -49.37294922 191.74306641 -50.24121094 191.99707031 C-61.74751845 195.220263 -72.80955661 196.36487369 -84.75 196.3125 C-85.41019135 196.31067719 -86.07038269 196.30885437 -86.75057983 196.30697632 C-96.87758992 196.25995374 -106.19313219 195.6580363 -116 193 C-116.67208496 192.83371094 -117.34416992 192.66742187 -118.03662109 192.49609375 C-146.24049465 185.51781576 -169.73145828 168.28329951 -184.96484375 143.46875 C-195.4413044 125.88480505 -200.57043094 104.77317512 -200.375 84.4375 C-200.38660156 83.22642578 -200.39820313 82.01535156 -200.41015625 80.76757812 C-200.38342989 72.45122655 -199.10117475 65.02305129 -197 57 C-196.69638966 55.48150593 -196.40193293 53.96108512 -196.125 52.4375 C-192.61733433 36.94764842 -183.32943664 21.85733248 -173 10 C-172.484375 9.34128906 -171.96875 8.68257813 -171.4375 8.00390625 C-157.04951162 -9.87316931 -133.23450267 -22.39080383 -111 -27 C-110.06542969 -27.20367187 -109.13085938 -27.40734375 -108.16796875 -27.6171875 C-68.83679525 -34.69776867 -31.06307854 -24.28868375 0 0 Z " fill="#FDFDFD" transform="translate(484,320)"/>
<path d="M0 0 C0.33 0.99 0.66 1.98 1 3 C-0.40007346 5.27096149 -1.82496171 7.32523679 -3.4375 9.4375 C-7.44853358 14.79594144 -11.21801145 20.27527567 -14.91381836 25.85668945 C-18.25508907 30.8910792 -21.66087128 35.88128112 -25.0625 40.875 C-25.79710449 41.95434814 -26.53170898 43.03369629 -27.28857422 44.14575195 C-35.12935887 55.66523054 -42.98132247 67.17709305 -50.83398438 78.68847656 C-58.06365023 89.2871206 -65.28731107 99.88979361 -72.5 110.5 C-79.73413332 121.14137241 -86.97588358 131.77749898 -94.22998047 142.40527344 C-95.97923133 144.96955457 -97.72609472 147.53544913 -99.47265625 150.1015625 C-104.55929883 157.56614602 -109.68507094 164.98545977 -114.98168945 172.30273438 C-119.87622097 179.12913817 -124.46003198 186.16655984 -129.09887695 193.16772461 C-133.19231251 199.33143694 -137.36193121 205.41738705 -141.7019043 211.40942383 C-144.83107399 215.73463171 -147.79808845 220.15045045 -150.73828125 224.60546875 C-154.16041645 229.76949447 -157.68840959 234.86230349 -161.19555664 239.96875 C-165.06930378 245.61651986 -168.87216974 251.30368925 -172.609375 257.04296875 C-173.06828125 257.68878906 -173.5271875 258.33460938 -174 259 C-174.33 259 -174.66 259 -175 259 C-175 187.39 -175 115.78 -175 42 C-150.25 36.06 -150.25 36.06 -125 30 C-108.42935852 26.00068428 -91.85911863 21.99973975 -75.29052734 17.99194336 C-50.20981963 11.92561345 -25.11525348 5.92175419 0 0 Z " fill="#7BFD59" transform="translate(975,244)"/>
<path d="M0 0 C67.32 0 134.64 0 204 0 C196.09579997 7.90420003 187.78499067 15.09848933 179 22 C171.95115337 27.60779875 164.96297292 33.28603494 158 39 C152.47387221 43.52975021 146.94057706 48.05033167 141.39135742 52.55175781 C135.07385443 57.6767451 128.77496158 62.82299491 122.5 68 C112.04058314 76.62474598 101.57613901 85.23839145 90.875 93.5625 C85.52602698 97.72600451 80.36992018 102.07479069 75.25170898 106.51757812 C70.67625796 110.46988839 65.96500491 114.21411295 61.18847656 117.91918945 C56.56066788 121.52256603 52.07694574 125.27316067 47.61743164 129.08178711 C43.62694343 132.4855287 39.56583325 135.78380593 35.45703125 139.04296875 C31.87208167 141.89838964 28.33105768 144.80641672 24.7890625 147.71484375 C22.93478363 149.23410585 21.07541548 150.74717824 19.2109375 152.25390625 C13.61115201 156.78894379 8.19477909 161.46065336 2.8984375 166.34765625 C1 168 1 168 0 168 C0 112.56 0 57.12 0 0 Z " fill="#06436E" transform="translate(224,224)"/>
<path d="M0 0 C1.66162202 1.14406762 3.30952953 2.30853426 4.9375 3.5 C5.56785156 3.93570312 6.19820312 4.37140625 6.84765625 4.8203125 C19.95512118 14.79273457 26.92134663 32.21979311 29.49609375 47.90234375 C31.98960994 68.22560401 27.54513748 87.39009026 15.125 103.875 C4.69195675 116.09027136 -10.08935594 124.3677536 -26.0625 126.5 C-45.68545026 127.81224822 -62.26677414 124.28532838 -77.8125 111.515625 C-90.86309359 99.82446824 -100.09991983 84.86798598 -101.21777344 67.02099609 C-102.09510006 46.76635208 -99.34652156 27.6531924 -85.5625 11.9375 C-84.08292793 10.43789988 -82.58431625 8.95671182 -81.0625 7.5 C-80.47339844 6.87996094 -79.88429688 6.25992187 -79.27734375 5.62109375 C-58.2540273 -15.03258198 -23.92851551 -14.44073046 0 0 Z " fill="#051109" transform="translate(664.0625,345.5)"/>
<path d="M0 0 C85.8 0 171.6 0 260 0 C258.02 2.31 256.04 4.62 254 7 C246.40189176 16.04546555 238.97754681 25.2259333 231.7109375 34.5390625 C228.34657115 38.84712255 224.92174695 43.1063383 221.49975586 47.36865234 C218.94932594 50.54971737 216.41316388 53.74067057 213.90234375 56.953125 C213.15500977 57.90928711 213.15500977 57.90928711 212.39257812 58.88476562 C211.44802514 60.09556844 210.50521208 61.30773135 209.56445312 62.52148438 C207.50309932 65.16464669 205.45652911 67.71260896 203 70 C203 69.34 203 68.68 203 68 C201.8032666 67.75499756 200.6065332 67.50999512 199.37353516 67.25756836 C192.82744365 65.7990175 186.43893211 63.8203454 180.0234375 61.87890625 C178.63958903 61.4627264 177.25565524 61.04683018 175.87164307 60.63119507 C172.14711174 59.5117937 168.42379306 58.38840835 164.70069122 57.26426315 C160.78082083 56.08146615 156.85982533 54.90241027 152.93896484 53.72290039 C144.8607132 51.29199922 136.78379906 48.85667917 128.70727539 46.42004395 C124.20022991 45.0602988 119.69293076 43.70139633 115.18554688 42.34277344 C104.38613485 39.08749601 93.58690268 35.83162414 82.78857422 32.57275391 C67.69534702 28.01777331 52.60025071 23.46914715 37.5 18.9375 C36.6784845 18.69079559 35.85696899 18.44409119 35.01055908 18.18991089 C32.74677967 17.51019728 30.48280571 16.83113638 28.21875 16.15234375 C26.98060547 15.78101318 25.74246094 15.40968262 24.46679688 15.02709961 C22.04505561 14.30961612 19.61903554 13.60648796 17.18994141 12.91430664 C14.69330825 12.19871723 12.29530024 11.43166369 9.875 10.5 C9.21242188 10.24605469 8.54984375 9.99210938 7.8671875 9.73046875 C5.57293082 8.83292482 3.28243006 7.92723721 1 7 C0.67 4.69 0.34 2.38 0 0 Z " fill="#27C09B" transform="translate(277,800)"/>
<path d="M0 0 C71.61 0 143.22 0 217 0 C217 11.88 217 23.76 217 36 C145.39 36 73.78 36 0 36 C0 24.12 0 12.24 0 0 Z " fill="#FDFDFD" transform="translate(295,691)"/>
<path d="M0 0 C0 36.3 0 72.6 0 110 C-31.45141196 101.84593023 -31.45141196 101.84593023 -40.875 99.1875 C-41.90367187 98.90197266 -42.93234375 98.61644531 -43.9921875 98.32226562 C-44.9821875 98.04447266 -45.9721875 97.76667969 -46.9921875 97.48046875 C-48.26618408 97.12311646 -48.26618408 97.12311646 -49.56591797 96.75854492 C-52.10623563 95.96689327 -54.54318365 95.01942246 -57 94 C-57 95.65 -57 97.3 -57 99 C-57.33 99 -57.66 99 -58 99 C-58.23783203 97.63681641 -58.23783203 97.63681641 -58.48046875 96.24609375 C-63.83783831 67.38733507 -77.45857051 42.05194692 -102 25 C-98.92370717 23.31918559 -95.97123468 22.36713703 -92.57421875 21.51953125 C-90.93900269 21.10973022 -90.93900269 21.10973022 -89.27075195 20.69165039 C-88.08827881 20.40153076 -86.90580566 20.11141113 -85.6875 19.8125 C-83.82581177 19.35121704 -83.82581177 19.35121704 -81.92651367 18.88061523 C-71.6437739 16.34683415 -61.31884757 14.01088902 -50.98168945 11.7097168 C-39.48509448 9.14009332 -28.03798955 6.3820282 -16.59692383 3.57641602 C-15.92447128 3.41177353 -15.25201874 3.24713104 -14.55918884 3.07749939 C-12.74081145 2.6318597 -10.92287933 2.18440418 -9.10498047 1.73681641 C-1.78595096 0 -1.78595096 0 0 0 Z " fill="#042510" transform="translate(800,288)"/>
<path d="M0 0 C0 3.52788898 -0.70248524 4.38238163 -2.68359375 7.2265625 C-3.27269531 8.08056641 -3.86179687 8.93457031 -4.46875 9.81445312 C-5.1184375 10.74193359 -5.768125 11.66941406 -6.4375 12.625 C-7.82199749 14.62733946 -9.20609709 16.62995409 -10.58984375 18.6328125 C-11.67821533 20.20144043 -11.67821533 20.20144043 -12.78857422 21.80175781 C-16.39151191 27.01245374 -19.94378956 32.25735609 -23.5 37.5 C-24.93460288 39.61087621 -26.36949776 41.721554 -27.8046875 43.83203125 C-28.50561523 44.86279785 -29.20654297 45.89356445 -29.92871094 46.95556641 C-36.22201593 56.2056269 -42.52923689 65.44621361 -48.83398438 74.68847656 C-56.06365023 85.2871206 -63.28731107 95.88979361 -70.5 106.5 C-77.73413332 117.14137241 -84.97588358 127.77749898 -92.22998047 138.40527344 C-93.97923133 140.96955457 -95.72609472 143.53544913 -97.47265625 146.1015625 C-102.55929883 153.56614602 -107.68507094 160.98545977 -112.98168945 168.30273438 C-117.87622097 175.12913817 -122.46003198 182.16655984 -127.09887695 189.16772461 C-131.19231251 195.33143694 -135.36193121 201.41738705 -139.7019043 207.40942383 C-142.83107399 211.73463171 -145.79808845 216.15045045 -148.73828125 220.60546875 C-152.16041645 225.76949447 -155.68840959 230.86230349 -159.19555664 235.96875 C-163.06930378 241.61651986 -166.87216974 247.30368925 -170.609375 253.04296875 C-171.06828125 253.68878906 -171.5271875 254.33460938 -172 255 C-172.33 255 -172.66 255 -173 255 C-173 219.69 -173 184.38 -173 148 C-161.77433138 150.24513372 -161.77433138 150.24513372 -157.37890625 151.65625 C-156.42306641 151.95660156 -155.46722656 152.25695312 -154.48242188 152.56640625 C-152.53935092 153.18766907 -150.59664059 153.81006098 -148.65429688 154.43359375 C-138.99992809 157.57980633 -138.99992809 157.57980633 -129 159 C-126.32254142 157.74289154 -126.32254142 157.74289154 -124.8125 155.25 C-124.173125 154.40050781 -123.53375 153.55101562 -122.875 152.67578125 C-122.25625 151.79277344 -121.6375 150.90976562 -121 150 C-119.77972338 148.47202432 -118.5503435 146.95127944 -117.3125 145.4375 C-116.6525 144.60347656 -115.9925 143.76945313 -115.3125 142.91015625 C-112.50504854 139.37713034 -109.66066887 135.87522526 -106.8125 132.375 C-106.26094238 131.69671143 -105.70938477 131.01842285 -105.14111328 130.31958008 C-102.85209496 127.50493777 -100.56224769 124.6909703 -98.27246094 121.87695312 C-90.48054429 112.30699988 -90.48054429 112.30699988 -82.75 102.6875 C-76.66972252 95.07448591 -70.49835803 87.55666337 -64.125 80.1875 C-59.6731385 75.03108302 -55.39497951 69.77005926 -51.21533203 64.39135742 C-47.70424962 59.87684 -44.11778942 55.42936052 -40.5 51 C-35.99346471 45.47841971 -31.55273002 39.91246477 -27.16845703 34.29345703 C-23.63026497 29.77108116 -20.01105598 25.31889276 -16.375 20.875 C-11.63321036 15.07660071 -7.05527693 9.18808533 -2.609375 3.16015625 C-1 1 -1 1 0 0 Z " fill="#56E05E" transform="translate(973,248)"/>
<path d="M0 0 C0 3.405574 -0.36206422 3.80467302 -2.45703125 6.30078125 C-2.98683594 6.94080078 -3.51664063 7.58082031 -4.0625 8.24023438 C-4.92875 9.26600586 -4.92875 9.26600586 -5.8125 10.3125 C-7.0179247 11.76610037 -8.22233573 13.22054188 -9.42578125 14.67578125 C-10.03115723 15.40490723 -10.6365332 16.1340332 -11.26025391 16.88525391 C-13.72635543 19.88292039 -16.1171919 22.93600947 -18.5 26 C-22.44086114 31.04929599 -26.45039576 36.03754103 -30.5 41 C-35.96647599 47.70161973 -41.33844062 54.47085113 -46.66162109 61.28662109 C-52.90632398 69.28102549 -59.17990715 77.25253932 -65.5 85.1875 C-66.0045874 85.82357178 -66.5091748 86.45964355 -67.02905273 87.11499023 C-69.24990044 89.89622821 -71.47904319 92.47904319 -74 95 C-74 71.9 -74 48.8 -74 25 C-62.77433138 27.24513372 -62.77433138 27.24513372 -58.37890625 28.65625 C-57.42306641 28.95660156 -56.46722656 29.25695312 -55.48242188 29.56640625 C-53.53935092 30.18766907 -51.59664059 30.81006098 -49.65429688 31.43359375 C-39.99992809 34.57980633 -39.99992809 34.57980633 -30 36 C-27.32254142 34.74289154 -27.32254142 34.74289154 -25.8125 32.25 C-25.173125 31.40050781 -24.53375 30.55101562 -23.875 29.67578125 C-23.25625 28.79277344 -22.6375 27.90976562 -22 27 C-20.77972338 25.47202432 -19.5503435 23.95127944 -18.3125 22.4375 C-17.66796875 21.6228125 -17.0234375 20.808125 -16.359375 19.96875 C-13.28720585 16.1031067 -10.17610731 12.26979525 -7.0625 8.4375 C-6.48218018 7.72198975 -5.90186035 7.00647949 -5.30395508 6.26928711 C-4.49027466 5.2678064 -4.49027466 5.2678064 -3.66015625 4.24609375 C-3.17168213 3.64466553 -2.68320801 3.0432373 -2.17993164 2.42358398 C-1 1 -1 1 0 0 Z " fill="#39E568" transform="translate(874,371)"/>
<path d="M0 0 C7.16963226 4.90497297 13.33287595 10.01116089 17.9375 17.5 C17.9375 18.16 17.9375 18.82 17.9375 19.5 C9.95272218 17.54945931 2.02991138 15.43833187 -5.875 13.1875 C-14.18451674 10.83727705 -22.51016956 8.58216384 -30.875 6.4375 C-38.41128622 4.49418501 -45.91015484 2.45286316 -53.375 0.25 C-54.22360596 0.0037085 -55.07221191 -0.24258301 -55.9465332 -0.49633789 C-61.82308242 -2.26058242 -61.82308242 -2.26058242 -64.0625 -4.5 C-42.96212087 -13.97363961 -19.57287503 -11.81212485 0 0 Z " fill="#062612" transform="translate(664.0625,345.5)"/>
<path d="M0 0 C0 3.72462258 -1.03269411 4.86078946 -3.140625 7.89453125 C-3.79933594 8.85037109 -4.45804688 9.80621094 -5.13671875 10.79101562 C-5.83410156 11.78810547 -6.53148437 12.78519531 -7.25 13.8125 C-8.60951667 15.77724573 -9.96889549 17.74208685 -11.328125 19.70703125 C-12.29032959 21.08652954 -12.29032959 21.08652954 -13.27197266 22.49389648 C-14.67185557 24.5241025 -16.02302975 26.57156185 -17.3515625 28.6484375 C-19 31 -19 31 -21.125 31.8125 C-21.74375 31.874375 -22.3625 31.93625 -23 32 C-23.99 32.495 -23.99 32.495 -25 33 C-23.69582416 30.19749916 -22.25272543 27.90477838 -20.27734375 25.53125 C-19.74270508 24.88293213 -19.20806641 24.23461426 -18.65722656 23.56665039 C-17.80596191 22.54365845 -17.80596191 22.54365845 -16.9375 21.5 C-11.99577094 15.49883792 -7.22340625 9.41604169 -2.609375 3.16015625 C-1 1 -1 1 0 0 Z " fill="#44C665" transform="translate(973,248)"/>
<path d="M0 0 C0 3.405574 -0.36206422 3.80467302 -2.45703125 6.30078125 C-2.9876416 6.94176758 -3.51825195 7.58275391 -4.06494141 8.24316406 C-4.64163574 8.92604492 -5.21833008 9.60892578 -5.8125 10.3125 C-7.00489876 11.75047965 -8.19628622 13.18929843 -9.38671875 14.62890625 C-9.9904834 15.35609863 -10.59424805 16.08329102 -11.21630859 16.83251953 C-13.90386908 20.09835062 -16.51948764 23.41857375 -19.125 26.75 C-19.57335205 27.32145752 -20.0217041 27.89291504 -20.48364258 28.48168945 C-22.26368304 30.75559821 -24.01919788 33.0273235 -25.6796875 35.390625 C-26.11539063 35.92171875 -26.55109375 36.4528125 -27 37 C-27.66 37 -28.32 37 -29 37 C-27.72217784 34.26951538 -26.33406328 31.99594754 -24.41796875 29.671875 C-23.90395508 29.04418213 -23.38994141 28.41648926 -22.86035156 27.76977539 C-22.03229004 26.76998657 -22.03229004 26.76998657 -21.1875 25.75 C-20.01939711 24.32693301 -18.85143265 22.90375239 -17.68359375 21.48046875 C-17.08015137 20.74747559 -16.47670898 20.01448242 -15.85498047 19.25927734 C-12.80235835 15.54132985 -9.77793053 11.80055992 -6.75 8.0625 C-1.15155579 1.15155579 -1.15155579 1.15155579 0 0 Z " fill="#16F84A" transform="translate(874,371)"/>
<path d="M0 0 C1 3 1 3 -0.1875 5.625 C-2 8 -2 8 -4.0625 8.75 C-5.0215625 8.87375 -5.0215625 8.87375 -6 9 C-6.99 9.495 -6.99 9.495 -8 10 C-6.23915938 6.0381086 -3.9706445 1.98532225 0 0 Z " fill="#38BF63" transform="translate(956,271)"/>
</svg>
