<svg t="1767950354225" class="icon" viewBox="0 0 1050 1024" version="1.1" xmlns="http://www.w3.org/2000/svg" p-id="9205" xmlns:xlink="http://www.w3.org/1999/xlink" width="205.078125" height="200"><path d="M62 62m163.46153848 0l596.1538459 0q163.46153848 0 163.46153848 163.46153848l0 573.07692305q0 163.46153848-163.46153848 163.46153847l-596.1538459 0q-163.46153848 0-163.46153848-163.46153847l0-573.07692305q0-163.46153848 163.46153848-163.46153848Z" fill="#001E36" p-id="9206"></path><path d="M385.81538487 698.08846133h-219.57692344q-5.57692295 0-5.57692296-6.80769229V298.06153877q0-5.57307685 5.01923057-5.57307685h67.99230791c2.59230761 0 3.89999971 1.45384629 3.89999971 4.33461532v323.23846114h159.9461543q5.01538448 0 3.8999997 5.57692295l-10.03076894 66.87307705q-0.56153847 3.71538457-2.23076953 4.6461542a6.84230801 6.84230801 0 0 1-3.34230732 0.92692265zM440.98461582 390.33076924h60.74615303q5.01538448 0 7.246154 6.19230761a32.12307685 32.12307685 0 0 1 2.78461582 8.66923067 110.46153867 110.46153867 0 0 1 1.67307715 12.07692334q0.55000019 6.50000039 0.5576915 13.93076953a133.85384648 133.85384648 0 0 1 37.06153857-33.12692315 96.11538487 96.11538487 0 0 1 51.55000049-13.93461562q5.01538448 0 5.01538448 5.57692295v74.92307695q0 4.34230752-5.57307685 4.33461533a123.98461523 123.98461523 0 0 0-36.5000001 2.78846192 127.53461513 127.53461513 0 0 0-28.98461514 10.21538408 59.22307705 59.22307705 0 0 0-18.66923086 14.24230752v196.2961541q0 5.57692295-4.46153906 5.57692295H446.00000029q-5.57692295 0-5.57307685-6.19230762v-213.01923076q0-13.61538457-0.27692315-28.79230781-0.28846143-15.16923106-0.83846162-30.03461543a217.48461504 217.48461504 0 0 0-2.23076953-25.38461514 5.19230742 5.19230742 0 0 1 0.83846162-3.4076918 4.02307734 4.02307734 0 0 1 3.06538506-0.93076962zM879.77307675 333.54230732a99.36153809 99.36153809 0 0 0-25.68076874-6.55769179 290.00000039 290.00000039 0 0 0-39.21923145-2.25769219c-37.72307724 0-70.72307666 8.08846172-98.07692255 24.03461514a163.73076943 163.73076943 0 0 0-63.67692305 67.34615361c-14.82692344 28.64615362-22.34615362 62.31538477-22.34615362 100.07692294a244.59999961 244.59999961 0 0 0 8.61923057 67.56538536 177.50000039 177.50000039 0 0 0 24.43461504 52.57692246 156.13846172 156.13846172 0 0 0 37.73076944 38.23846172 158.93461583 158.93461583 0 0 0 48.68076884 23.22692314 204.3500001 204.3500001 0 0 0 56.10769278 7.61923037 293.88461573 293.88461573 0 0 0 39.71153847-2.53461532 126.44230781 126.44230781 0 0 0 30.98461553-7.69230703 9.84615381 9.84615381 0 0 0 5.62692305-10.22692325v-57.37307695a6.93461513 6.93461513 0 0 0-1.9500003-5.64230743c-0.96153838-0.79615372-3.0038458-1.74615381-6.00000029 0.54999932a110.54615362 110.54615362 0 0 1-26.79999961 6.38461582 303.18846152 303.18846152 0 0 1-33.54615352 1.6538458 118.31538427 118.31538427 0 0 1-30.15769306-4.08846094 113.91538447 113.91538447 0 0 1-29.15769199-12.25000019 85.98846182 85.98846182 0 0 1-24.31923047-22.17307676 109.83461573 109.83461573 0 0 1-16.88461524-33.19230849 147.55384599 147.55384599 0 0 1-6.1423084-44.87307628 138.43461533 138.43461533 0 0 1 12.75769249-61.50000058 97.73846192 97.73846192 0 0 1 36.13846201-40.43461465 104.51538457 104.51538457 0 0 1 56.26153828-14.63846221 205.46923096 205.46923096 0 0 1 36.12692285 3.02307715 89.8538458 89.8538458 0 0 1 27.62307686 9.23076914 4.84615371 4.84615371 0 0 0 4.92307734 0.03846182 6.63076934 6.63076934 0 0 0 2.33846103-5.74999981V342.64615362a9.86153818 9.86153818 0 0 0-4.10769228-9.1038463z" fill="#31A8FF" p-id="9207"></path></svg>