<svg t="1767950503192" class="icon" viewBox="0 0 1024 1024" version="1.1" xmlns="http://www.w3.org/2000/svg" p-id="11875" xmlns:xlink="http://www.w3.org/1999/xlink" width="200" height="200"><path d="M15.488 509.888a494.976 494.976 0 1 0 989.952 0 494.976 494.976 0 0 0-989.952 0z" fill="#009CF5" p-id="11876"></path><path d="M822.272 192.832L469.76 469.312l81.28 81.28 276.352-352.512c2.944-3.456-1.664-7.936-5.12-5.248z" fill="#FF4C3A" p-id="11877"></path><path d="M198.656 826.944l352.512-276.352-81.28-81.28-276.48 352.384c-2.816 3.456 1.664 7.872 5.248 5.248z" fill="#FFFFFF" p-id="11878"></path><path d="M512 44.224a7.552 7.552 0 0 0-7.68 7.616v68.928c0 4.096 3.328 7.552 7.68 7.552a7.488 7.488 0 0 0 7.552-7.552V51.84a7.808 7.808 0 0 0-7.616-7.616zM430.912 51.2a7.424 7.424 0 0 0-6.08 8.704l12.032 67.968c0.64 4.096 4.608 6.912 8.768 6.08a7.424 7.424 0 0 0 6.08-8.768L439.68 57.28A7.424 7.424 0 0 0 430.976 51.2z m-59.328 95.104c1.472 3.968 5.76 5.952 9.728 4.48a7.488 7.488 0 0 0 4.48-9.728L362.24 76.16a7.488 7.488 0 0 0-9.728-4.48 7.488 7.488 0 0 0-4.48 9.792l23.616 64.768z m-60.992 29.696a7.616 7.616 0 0 0 10.24 2.816 7.68 7.68 0 0 0 2.752-10.24l-34.432-59.712a7.616 7.616 0 0 0-10.24-2.752 7.616 7.616 0 0 0-2.816 10.24l34.496 59.648z m-54.912 39.68a7.552 7.552 0 0 0 10.56 1.024 7.552 7.552 0 0 0 0.96-10.56l-44.352-52.736a7.552 7.552 0 0 0-10.56-0.96 7.552 7.552 0 0 0-0.96 10.496l44.352 52.8z m-47.168 48.832a7.424 7.424 0 0 0 10.56-0.96 7.424 7.424 0 0 0-1.024-10.56l-52.736-44.352a7.424 7.424 0 0 0-10.56 0.96 7.424 7.424 0 0 0 0.96 10.56l52.8 44.352z m-97.792 21.632l59.712 34.432a7.36 7.36 0 0 0 10.24-2.752 7.616 7.616 0 0 0-2.816-10.432l-59.712-34.304a7.36 7.36 0 0 0-10.24 2.816c-2.112 3.456-0.832 8.064 2.816 10.24zM77.952 359.04l64.832 23.552a7.68 7.68 0 0 0 9.728-4.48 7.68 7.68 0 0 0-4.48-9.728l-64.768-23.552a7.68 7.68 0 0 0-9.728 4.48 7.488 7.488 0 0 0 4.48 9.728z m51.008 74.496L60.992 421.504a7.552 7.552 0 1 0-2.624 14.848l67.904 12.032a7.552 7.552 0 1 0 2.624-14.848z m-7.616 67.264H52.416a7.552 7.552 0 0 0-7.552 7.616c0 4.096 3.264 7.552 7.552 7.552h68.928a7.552 7.552 0 0 0 7.616-7.552 7.552 7.552 0 0 0-7.616-7.616z m4.48 67.84l-67.968 11.968a7.424 7.424 0 0 0-6.08 8.768c0.64 4.096 4.608 6.912 8.704 6.08l67.968-12.032a7.424 7.424 0 0 0 6.08-8.768 7.616 7.616 0 0 0-8.704-6.08z m16 65.92l-64.832 23.552a7.488 7.488 0 0 0-4.48 9.728c1.536 3.968 5.76 5.952 9.728 4.48l64.832-23.616a7.488 7.488 0 0 0 4.48-9.728 7.488 7.488 0 0 0-9.792-4.48z m27.2 61.952l-59.712 34.496a7.744 7.744 0 0 0-2.816 10.368 7.744 7.744 0 0 0 10.368 2.816l59.712-34.496a7.744 7.744 0 0 0 2.816-10.368 7.744 7.744 0 0 0-10.368-2.816z m37.568 56.576l-52.736 44.352a7.552 7.552 0 0 0-1.024 10.56 7.552 7.552 0 0 0 10.56 0.96l52.736-44.352a7.552 7.552 0 0 0 1.024-10.56c-2.496-3.264-7.232-3.584-10.56-0.96z m46.848 48.96l-44.352 52.736a7.424 7.424 0 0 0 0.96 10.56 7.424 7.424 0 0 0 10.56-0.96l44.352-52.736a7.424 7.424 0 0 0-0.96-10.56 7.68 7.68 0 0 0-10.56 0.96z m54.72 40.256l-34.432 59.648a7.36 7.36 0 0 0 2.752 10.24 7.616 7.616 0 0 0 10.432-2.816l34.432-59.648a7.36 7.36 0 0 0-2.816-10.24 7.744 7.744 0 0 0-10.368 2.816z m60.8 30.144l-23.552 64.832a7.68 7.68 0 0 0 4.48 9.728 7.68 7.68 0 0 0 9.728-4.48l23.552-64.768a7.68 7.68 0 0 0-4.48-9.728 7.424 7.424 0 0 0-9.664 4.48z m59.264 95.616c4.096 0.64 8.064-1.92 8.704-6.08l12.032-67.904a7.552 7.552 0 1 0-14.848-2.624l-12.032 67.84a7.424 7.424 0 0 0 6.144 8.768z m80.768 7.424a7.552 7.552 0 0 0 7.552-7.552v-68.928a7.552 7.552 0 0 0-7.552-7.616 7.552 7.552 0 0 0-7.616 7.616v68.928a7.68 7.68 0 0 0 7.616 7.552z m60.16-80.96l12.032 67.968c0.64 4.096 4.608 6.912 8.768 6.08a7.424 7.424 0 0 0 6.08-8.704l-12.032-67.968a7.424 7.424 0 0 0-8.704-6.08 7.552 7.552 0 0 0-6.144 8.704z m65.92-16l23.68 64.832c1.408 3.968 5.76 5.952 9.664 4.48a7.488 7.488 0 0 0 4.48-9.728l-23.616-64.832a7.488 7.488 0 0 0-9.728-4.48 7.488 7.488 0 0 0-4.48 9.728z m62.208-27.2l34.432 59.712a7.744 7.744 0 0 0 10.432 2.816 7.744 7.744 0 0 0 2.816-10.368l-34.624-59.712a7.744 7.744 0 0 0-10.432-2.816 7.552 7.552 0 0 0-2.624 10.368z m56.384-37.76l44.352 52.8a7.552 7.552 0 0 0 10.56 0.96 7.552 7.552 0 0 0 0.96-10.56l-44.352-52.736a7.552 7.552 0 0 0-10.496-0.96 7.424 7.424 0 0 0-1.024 10.496z m48.96-46.784l52.8 44.352a7.424 7.424 0 0 0 10.56-1.024 7.424 7.424 0 0 0-1.024-10.56l-52.736-44.352a7.424 7.424 0 0 0-10.56 1.024 7.68 7.68 0 0 0 0.96 10.56z m40.256-54.592l59.648 34.432a7.616 7.616 0 0 0 10.432-2.752 7.36 7.36 0 0 0-2.816-10.24l-59.712-34.496a7.616 7.616 0 0 0-10.368 2.816 7.616 7.616 0 0 0 2.816 10.24z m30.144-60.8l64.832 23.552a7.68 7.68 0 0 0 9.728-4.48 7.68 7.68 0 0 0-4.48-9.728l-64.768-23.552a7.68 7.68 0 0 0-9.728 4.48 7.488 7.488 0 0 0 4.48 9.664z m19.008-65.152l67.904 12.032c4.096 0.64 8.064-1.984 8.768-6.144a7.552 7.552 0 0 0-6.144-8.704l-67.904-12.032a7.552 7.552 0 1 0-2.624 14.848z m0-74.88c0 4.096 3.264 7.616 7.552 7.616h68.928a7.552 7.552 0 0 0 7.616-7.616 7.552 7.552 0 0 0-7.616-7.552h-68.928a7.488 7.488 0 0 0-7.552 7.552z m3.136-60.16l67.904-12.032a7.424 7.424 0 0 0 6.08-8.768 7.424 7.424 0 0 0-8.704-6.08l-67.968 12.032a7.424 7.424 0 0 0-6.08 8.704c0.64 4.16 4.608 6.784 8.768 6.144z m-16-65.92l64.768-23.68a7.488 7.488 0 0 0 4.48-9.664 7.488 7.488 0 0 0-9.728-4.48l-64.832 23.616a7.488 7.488 0 0 0-4.48 9.728 7.68 7.68 0 0 0 9.792 4.48z m-27.2-62.208l59.648-34.432a7.616 7.616 0 0 0 2.816-10.24 7.744 7.744 0 0 0-10.368-2.816l-59.712 34.432a7.744 7.744 0 0 0-2.816 10.432 7.68 7.68 0 0 0 10.432 2.624z m-37.76-56.384l52.736-44.352a7.552 7.552 0 0 0 0.96-10.56 7.552 7.552 0 0 0-10.496-0.96l-52.8 44.352a7.552 7.552 0 0 0-0.96 10.496 7.424 7.424 0 0 0 10.56 1.024z m-46.848-49.152l44.352-52.736a7.424 7.424 0 0 0-0.96-10.56 7.424 7.424 0 0 0-10.56 0.96l-44.352 52.8a7.424 7.424 0 0 0 0.96 10.56 7.424 7.424 0 0 0 10.56-1.024z m-54.592-40.064l34.496-59.712a7.36 7.36 0 0 0-2.816-10.24 7.616 7.616 0 0 0-10.368 2.88l-34.496 59.648a7.36 7.36 0 0 0 2.816 10.24c3.648 1.92 8.256 0.832 10.368-2.816z m-60.8-30.144l23.552-64.832a7.68 7.68 0 0 0-4.48-9.728 7.68 7.68 0 0 0-9.728 4.48l-23.552 64.96a7.68 7.68 0 0 0 4.48 9.728 7.68 7.68 0 0 0 9.728-4.608zM578.048 134.4c4.16 0.64 8.128-1.984 8.768-6.144L598.848 60.416a7.552 7.552 0 1 0-14.848-2.624l-12.032 67.904c-0.64 4.16 1.92 7.936 6.08 8.768zM213.504 218.56a8.32 8.32 0 0 0 11.52 0 8.32 8.32 0 0 0 0-11.52l-27.2-27.264a8.32 8.32 0 0 0-11.52 0 8.32 8.32 0 0 0 0 11.52l27.2 27.264z m-46.016 55.872c3.84 2.624 8.96 1.664 11.392-1.984a8.128 8.128 0 0 0-1.92-11.392l-31.552-22.08a8.128 8.128 0 0 0-11.392 1.984 8.32 8.32 0 0 0 1.984 11.392l31.488 22.08z m-70.528 46.848l34.944 16.32c4.096 1.92 9.088 0.128 10.88-3.968a8.064 8.064 0 0 0-3.968-10.88l-34.944-16.32a8.064 8.064 0 0 0-10.88 3.968 8.064 8.064 0 0 0 3.968 10.88z m14.976 68.928l-37.248-9.92a8.256 8.256 0 0 0-10.048 5.76c-1.152 4.48 1.472 8.96 5.76 10.048l37.248 9.92c4.48 1.152 8.96-1.472 10.048-5.76a8.256 8.256 0 0 0-5.76-10.048z m-14.848 70.848l-38.4-3.264a8.32 8.32 0 0 0-8.96 7.424 8.32 8.32 0 0 0 7.488 8.896l38.4 3.264a8.32 8.32 0 0 0 8.96-7.424 8.128 8.128 0 0 0-7.488-8.896z m-2.112 72.576l-38.4 3.264a8.192 8.192 0 0 0-7.424 8.96c0.32 4.48 4.48 7.872 8.896 7.36l38.4-3.264a8.192 8.192 0 0 0 7.424-8.96 8.192 8.192 0 0 0-8.96-7.36z m12.672 71.68l-37.248 9.92a8.128 8.128 0 0 0-5.76 10.048c1.152 4.48 5.568 6.976 10.048 5.76l37.248-9.856a8.128 8.128 0 0 0 5.76-10.048 8.256 8.256 0 0 0-10.048-5.76z m20.48 68.928l-35.008 16.384a8.128 8.128 0 0 0-3.904 10.88c1.92 4.096 6.72 5.888 10.88 3.904l34.944-16.32a8.128 8.128 0 0 0 3.968-10.88 8.192 8.192 0 0 0-10.88-3.968z m34.432 64l-31.488 22.08a8.064 8.064 0 0 0-1.92 11.392c2.56 3.84 7.68 4.608 11.328 1.984l31.488-22.08a8.064 8.064 0 0 0 1.92-11.392 8.064 8.064 0 0 0-11.328-1.92z m99.072 105.216l-22.08 31.488a8.128 8.128 0 1 0 13.376 9.408l22.08-31.488a8.128 8.128 0 0 0-1.92-11.392 8 8 0 0 0-11.456 1.92z m49.28 83.904c4.16 1.984 9.088 0.192 10.88-3.968l16.384-34.944a8.064 8.064 0 0 0-3.968-10.88 8.064 8.064 0 0 0-10.88 3.968l-16.32 34.944a8.32 8.32 0 0 0 3.968 10.88z m75.52 28.352c4.48 1.152 8.96-1.472 10.112-5.76l9.856-37.248a8.256 8.256 0 0 0-5.76-10.048 8.256 8.256 0 0 0-10.048 5.76l-9.856 37.248a8.32 8.32 0 0 0 5.76 10.048z m79.36 14.72a8.32 8.32 0 0 0 8.896-7.424l3.328-38.4a8.32 8.32 0 0 0-7.424-8.96 8.32 8.32 0 0 0-8.96 7.424l-3.264 38.4a8.192 8.192 0 0 0 7.424 8.96z m68.48-45.056l3.2 38.4c0.384 4.48 4.48 7.936 8.96 7.424a8.192 8.192 0 0 0 7.424-8.896l-3.328-38.4a8.192 8.192 0 0 0-8.896-7.424 8.192 8.192 0 0 0-7.424 8.96z m71.68-10.56l9.856 37.312c1.152 4.48 5.632 6.912 10.048 5.76a8.128 8.128 0 0 0 5.76-10.048l-9.856-37.312a8.128 8.128 0 0 0-10.048-5.76 8.32 8.32 0 0 0-5.76 10.048z m68.928-22.72l16.32 34.944c1.92 4.096 6.72 5.952 10.88 3.968a8.128 8.128 0 0 0 3.968-10.88l-16.32-34.944a8.128 8.128 0 0 0-10.88-3.968 8.32 8.32 0 0 0-3.968 10.88z m64-34.304l22.016 31.488c2.688 3.84 7.808 4.608 11.392 1.92a8.064 8.064 0 0 0 1.984-11.328l-22.08-31.488a8.064 8.064 0 0 0-11.392-1.92 8 8 0 0 0-1.92 11.328z m56.832-44.992l27.2 27.2a8.32 8.32 0 0 0 11.52 0 8.32 8.32 0 0 0 0-11.52l-27.2-27.264a8.32 8.32 0 0 0-11.52 0 8.32 8.32 0 0 0 0 11.52z m48.32-54.08l31.488 22.08c3.84 2.624 8.96 1.664 11.392-1.984a8.128 8.128 0 0 0-1.984-11.392l-31.488-22.08a8.128 8.128 0 0 0-11.392 1.92 8.064 8.064 0 0 0 1.92 11.456z m38.08-61.696l34.944 16.32c4.16 1.984 9.088 0.192 10.88-3.968a8.064 8.064 0 0 0-3.968-10.88l-34.944-16.32a8.064 8.064 0 0 0-10.88 3.968 8.128 8.128 0 0 0 3.968 10.88z m26.88-67.456l37.248 9.92c4.48 1.152 8.96-1.472 10.048-5.76a8.256 8.256 0 0 0-5.76-10.048l-37.248-9.92a8.256 8.256 0 0 0-10.048 5.76c-1.152 4.48 1.28 8.96 5.76 10.048z m14.72-71.04l38.4 3.264a8.32 8.32 0 0 0 8.896-7.424 8.32 8.32 0 0 0-7.424-8.896l-38.4-3.264a8.192 8.192 0 1 0-1.472 16.32z m2.24-72.384l38.4-3.328a8.192 8.192 0 0 0 7.488-8.896 8.192 8.192 0 0 0-8.96-7.424l-38.4 3.328a8.192 8.192 0 0 0-7.424 8.896c0.32 4.48 4.288 7.744 8.96 7.424z m-10.56-71.872l37.312-9.92a8.128 8.128 0 0 0 5.76-10.048 8.128 8.128 0 0 0-10.048-5.76l-37.312 9.856a8.128 8.128 0 0 0-5.76 10.048c1.152 4.48 5.76 6.976 10.048 5.76z m-22.72-68.8l34.944-16.32a8.128 8.128 0 0 0 3.968-10.88 8.128 8.128 0 0 0-10.88-3.968l-34.944 16.32a8.128 8.128 0 0 0-3.968 10.88c1.92 3.968 6.784 5.76 10.88 3.968z m-34.304-64l31.488-22.016a8.064 8.064 0 0 0 1.984-11.392 8.064 8.064 0 0 0-11.392-1.984l-31.488 22.08a8.064 8.064 0 0 0-1.92 11.392 8.128 8.128 0 0 0 11.328 1.92z m-99.072-105.152l22.08-31.488A8.128 8.128 0 1 0 768 135.424l-22.08 31.488a8.128 8.128 0 0 0 1.92 11.392 8.064 8.064 0 0 0 11.456-1.92z m-49.28-83.904a8.064 8.064 0 0 0-10.88 3.968l-16.384 34.944a8.064 8.064 0 0 0 3.968 10.88c4.16 1.92 9.088 0.128 10.88-3.968l16.32-34.944a8.32 8.32 0 0 0-3.968-10.88zM634.24 64a8.256 8.256 0 0 0-10.048 5.76l-9.92 37.248c-1.152 4.48 1.472 8.96 5.76 10.048 4.48 1.152 8.96-1.472 10.048-5.76l9.92-37.248A8.064 8.064 0 0 0 634.304 64z m-84.096 40.064a8.32 8.32 0 0 0 8.96-7.424l3.2-38.4a8.32 8.32 0 0 0-7.36-8.96 8.32 8.32 0 0 0-8.96 7.424l-3.264 38.4a8.32 8.32 0 0 0 7.424 8.96zM474.368 48.512a8.192 8.192 0 0 0-7.424 8.96l3.264 38.4c0.384 4.48 4.48 7.936 8.96 7.424a8.192 8.192 0 0 0 7.424-8.96l-3.328-38.4a8.192 8.192 0 0 0-8.96-7.424z m-69.44 19.2a8.128 8.128 0 0 0-10.048-5.76 8.128 8.128 0 0 0-5.76 9.984l9.92 37.312c1.152 4.48 5.568 6.912 10.048 5.76a8.128 8.128 0 0 0 5.76-10.048l-9.92-37.312z m-58.88 59.776l-16.32-34.944a8.128 8.128 0 0 0-10.88-3.968 8.128 8.128 0 0 0-3.904 10.88l16.128 35.2c1.984 4.096 6.784 5.888 10.88 3.904a8.512 8.512 0 0 0 4.16-11.072zM268.8 171.392c2.624 3.776 7.744 4.608 11.392 1.92a8.064 8.064 0 0 0 1.92-11.328l-22.016-31.488a8.064 8.064 0 0 0-11.392-1.984 8.064 8.064 0 0 0-1.984 11.392l22.08 31.488z" fill="#FFFFFF" p-id="11879"></path></svg>